<mxfile host="app.diagrams.net" modified="2021-09-17T09:21:03.122Z" agent="5.0 (Windows NT 10.0; Win64; x64) AppleWebKit/537.36 (KHTML, like Gecko) Chrome/93.0.4577.63 Safari/537.36" etag="BK7uCUDFMIbIZmDkw7oL" version="15.2.9" type="github">
  <diagram id="ZAPsOA9Cjzw622FFj4i3" name="Page-1">
    <mxGraphModel dx="1102" dy="1550" grid="1" gridSize="10" guides="1" tooltips="1" connect="1" arrows="1" fold="1" page="1" pageScale="1" pageWidth="850" pageHeight="1100" math="0" shadow="0">
      <root>
        <mxCell id="0" />
        <mxCell id="1" parent="0" />
        <mxCell id="61gPIwUsfcne1V818Iqi-1" value="" style="shape=image;imageAspect=0;aspect=fixed;verticalLabelPosition=bottom;verticalAlign=top;image=data:image/jpeg,/9j/4AAQSkZJRgABAQEAYABgAAD/2wBDAAIBAQIBAQICAgICAgICAwUDAwMDAwYEBAMFBwYHBwcGBwcICQsJCAgKCAcHCg0KCgsMDAwMBwkODw0MDgsMDAz/2wBDAQICAgMDAwYDAwYMCAcIDAwMDAwMDAwMDAwMDAwMDAwMDAwMDAwMDAwMDAwMDAwMDAwMDAwMDAwMDAwMDAwMDAz/wAARCAEOBPADASIAAhEBAxEB/8QAHwAAAQUBAQEBAQEAAAAAAAAAAAECAwQFBgcICQoL/8QAtRAAAgEDAwIEAwUFBAQAAAF9AQIDAAQRBRIhMUEGE1FhByJxFDKBkaEII0KxwRVS0fAkM2JyggkKFhcYGRolJicoKSo0NTY3ODk6Q0RFRkdISUpTVFVWV1hZWmNkZWZnaGlqc3R1dnd4eXqDhIWGh4iJipKTlJWWl5iZmqKjpKWmp6ipqrKztLW2t7i5usLDxMXGx8jJytLT1NXW19jZ2uHi4+Tl5ufo6erx8vP09fb3+Pn6/8QAHwEAAwEBAQEBAQEBAQAAAAAAAAECAwQFBgcICQoL/8QAtREAAgECBAQDBAcFBAQAAQJ3AAECAxEEBSExBhJBUQdhcRMiMoEIFEKRobHBCSMzUvAVYnLRChYkNOEl8RcYGRomJygpKjU2Nzg5OkNERUZHSElKU1RVVldYWVpjZGVmZ2hpanN0dXZ3eHl6goOEhYaHiImKkpOUlZaXmJmaoqOkpaanqKmqsrO0tba3uLm6wsPExcbHyMnK0tPU1dbX2Nna4uPk5ebn6Onq8vP09fb3+Pn6/9oADAMBAAIRAxEAPwD9/KKKKACiiigAooooAKKKKACiiigAooooAKKKKACiiigAooooAKKKKACiiigAooooAKKKKACiiigAooooAKKKKACiiigAooooAKKKKACiiigAooooAKKKKACiiigAooooAKKKKACiiigAooooAKKKKACiiigAooooAKKKKACiiigAooooAKKKKACiiigAooooAKKKKACiiigAooooAKKKKACiiigAooooAKKKKACiiigAooooAKKKKACiiigAooooAKKKKACiiigAooooAKKKKACiiigAooooAKKKKACiiigAooooAKKKKACiiigAooooAKKKKACiiigAooooAKKKKACiiigAooooAKKKKACiiigAooooAKKKKACiiigAooooAKKKKACiiigAooooAKKKKACiiigAooooAKKKKACiiigAooooAKKKKACiiigAooooAKKKKACiiigAooooAKKKKACiiigAooooAKKKKACiiigAooooAKKKKACiiigAooooAKKKKACiiigAooooAKKKKACiiigAooooAKKKKACiiigAooooAKKKKACiiigAooooAKKKKACiiigAooooAKKKKACiiigAooooAKKKKACiiigAooooAKKKKACiiigAooooAKKKKACiiigAooooAKKKKACiiigAooooAKKKKACiiigAooooAKKKKACiiigAooooAKKKKACiiigAooooAKKKKACiiigAooooAKKKKACiiigAooooAKKKKACiiigAooooAKKKKACiiigAooooAKKKKACiiigAooooAKKKKACiiigAooooAKKKKACiiigAooooAKKKKACiiigAooooAKKKKACiiigAooooAKKKKACiiigAooooAKKKKACiiigAooooAKKKKACiiigAooooAKKKKACiiigAooooAKKKKACiiigAooooAKKKKACiiigAooooAKKKKACiiigAooooAKKKKACiiigAooooAKKKKACiiigAooooAKKKKACiiigAooooAKKKKACiiigAooooAKKKKACiiigAooooAKKKKACiiigAooooAKKKKACiiigAooooAKKKKACiiigAooooAKKKKACiiigAooooAKKKKACiiigAooooAKKKKACiiigAooooAKKKKACiiigAooooAKKKKACiiigAooooAKKKKACiiigAooooAKKKKACiiigAooooAKKKKACiiigAooooAKKKKACiiigAooooAKKKKACiiigAooooAKKKKACiiigAooooAKKKKACiiigAooooAKKKKACiiigAooooAKKKKACiiigAooooAKKKKACjNFI3SgA3c0tfzp/8Hcn7bHxp/Zz/AOCkvgnQfhv8XPif4C0a8+G1hfTad4b8U32lWs1y2qaqjTNFBKiGQpHGpcjJVFGcKK+Lz4h/4KJj/msvx7+n/C2bjj/yerrwuAxOJu8PBytvZX3OHGZng8Hb63VjC+3M0r/ef1+UV/IF/wAJF/wUT/6LL8fP/Ds3P/ydR/wkX/BRP/osvx8/8Ozc/wDydXZ/YGZf8+J/+As4P9aMn/6Cqf8A4HH/ADP6/aK/kC/4SL/gon/0WX4+f+HZuf8A5Oo/4SL/AIKJ/wDRZfj5/wCHZuf/AJOo/sDMv+fE/wDwFh/rRk//AEFU/wDwOP8Amf1+0V/IF/wkX/BRP/osvx8/8Ozc/wDydR/wkX/BRP8A6LL8fP8Aw7Nz/wDJ1H9gZl/z4n/4Cw/1oyf/AKCqf/gcf8z+v2iv5Av+Ei/4KJ/9Fl+Pn/h2bn/5Oo/4SL/gon/0WX4+f+HZuf8A5Oo/sDMv+fE//AWH+tGT/wDQVT/8Dj/mf1+0V/IF/wAJF/wUT/6LL8fP/Ds3P/ydR/wkX/BRP/osvx8/8Ozc/wDydR/YGZf8+J/+AsP9aMn/AOgqn/4HH/M/r9or+QL/AISL/gon/wBFl+Pn/h2bn/5Oo/4SL/gon/0WX4+f+HZuf/k6j+wMy/58T/8AAWH+tGT/APQVT/8AA4/5n9ftFfyBf8JF/wAFE/8Aosvx8/8ADs3P/wAnUf8ACRf8FE/+iy/Hz/w7Nz/8nUf2BmX/AD4n/wCAsP8AWjJ/+gqn/wCBx/zP6/aK/kC/4SL/AIKJ/wDRZfj5/wCHZuf/AJOo/wCEi/4KJ/8ARZfj5/4dm5/+TqP7AzL/AJ8T/wDAWH+tGT/9BVP/AMDj/mf1+0V/IF/wkX/BRP8A6LL8fP8Aw7Nz/wDJ1H/CRf8ABRP/AKLL8fP/AA7Nx/8AJ1H9gZl/z4n/AOAsP9aMn/6Cqf8A4HH/ADP6/aK/jl+J3xs/b5+D3ge98R+IPjj8fLHR9O2G4nHxTvJfL3usa/Kl4zH5nUcDvnpW7+y5r/8AwUY/bP8Ah9deKfhv8X/j94i0Ky1B9Lmuj8Wbiz2XKRxysmy4vo3OEmjOQMfN1yDjx8zay2PPmD9ku8/dX42PXy7EUswjzYGSqL+61L8j+v2iv5Sv+GZv+CrH/RQfj7/4egf/ACyo/wCGZv8Agqx/0UH4+/8Ah6B/8sq+f/1tyP8A6DKX/gyH+Z6v9l4z/n1L7mf1a0V/KV/wzN/wVY/6KD8ff/D0D/5ZUf8ADM3/AAVY/wCig/H3/wAPQP8A5ZUf625H/wBBlL/wZD/MP7Lxn/PqX3M/q1or+Ur/AIZm/wCCrH/RQfj7/wCHoH/yyo/4Zm/4Ksf9FB+Pv/h6B/8ALKn/AK25H/0GUv8AwZD/ADD+y8Z/z6l9zP6taK/lK/4Zm/4Ksf8ARQfj7/4egf8Ayyo/4Zm/4Ksf9FB+Pv8A4egf/LKj/W3I/wDoMpf+DIf5h/ZeM/59S+5n9WtFfylf8Mzf8FWP+ig/H3/w9A/+WVH/AAzN/wAFWP8AooPx9/8AD0D/AOWVH+tuR/8AQZS/8GQ/zD+y8Z/z6l9zP6taK/lK/wCGZv8Agqx/0UH4+/8Ah6B/8sqP+GZv+CrH/RQfj7/4egf/ACyo/wBbcj/6DKX/AIMh/mH9l4z/AJ9S+5n9WtFfylf8Mzf8FWP+ig/H3/w9A/8AllR/wzN/wVY/6KD8ff8Aw9A/+WVH+tuR/wDQZS/8GQ/zD+y8Z/z6l9zP6taK/lK/4Zm/4Ksf9FB+Pv8A4egf/LKj/hmb/gqx/wBFB+Pv/h6B/wDLKj/W3I/+gyl/4Mh/mH9l4z/n1L7mf1a0V/KV/wAMzf8ABVj/AKKD8ff/AA9A/wDllR/wzN/wVY/6KD8ff/D0D/5ZUf625H/0GUv/AAZD/MP7Kxn/AD6l9zP6taK/kZ+Pmhf8FLf2YfhLq3jnxx8Vfj7ovhfQ/J+23v8Awt+S58nzZkgj/dw6g8jZkkRflU4zk4AJrjv2fvjD+3/+1H4MuPEHgf42fH3WdItbxrCSdvipd2u2dUR2TbNeoxwsiHIGOevBx30c4wFWi8TSrQlTTtzKSav2ve1yYZbi51PYxpycn0s7n9i9FfyRf8If/wAFMf8Aoqvx7/8ADwSf/LCj/hD/APgpj/0VX49/+Hgk/wDlhWf9u5b/ANBEP/Ao/wCZ2/6t5r/0Dz/8BZ/W7RX8kX/CH/8ABTH/AKKr8e//AA8En/ywo/4Q/wD4KY/9FV+Pf/h4JP8A5YUf27lv/QRD/wACj/mH+rea/wDQPP8A8BZ/W7RX8kX/AAh//BTH/oqvx7/8PBJ/8sKP+EP/AOCmP/RVfj3/AOHgk/8AlhR/buW/9BEP/Ao/5h/q3mv/AEDz/wDAWf1u0V/JF/wh/wDwUx/6Kr8e/wDw8En/AMsKP+EP/wCCmP8A0VX49/8Ah4JP/lhS/t7Lf+giH/gUf8w/1bzX/oHn/wCAs/rdor+SL/hD/wDgpj/0VX49/wDh4JP/AJYUf8If/wAFMf8Aoqvx7/8ADwSf/LCn/buW/wDQRD/wKP8AmH+rea/9A8//AAFn9btFfyRf8If/AMFMf+iq/Hv/AMPBJ/8ALCj/AIQ//gpj/wBFV+Pf/h4JP/lhR/buW/8AQRD/AMCj/mH+rea/9A8//AWf1u0V/JF/wh//AAUx/wCiq/Hv/wAPBJ/8sKP+EO/4KYn/AJqr8e//AA8En/ywo/t3Lf8AoIh/4FH/ADD/AFbzX/oHn/4Cz+t2iv4u/Hv7av7avww+NMnw9139oH4+2Hi2KaC3ax/4WXqMuHnRHiHmJdNH8yyIfvcbucEHHW/8Lq/bzx/yXn4888j/AIujff8AyXXXLHYeKUpTVnqtd/Q0y/hfN8fzfU8NOpyOz5Yt2fZ9j+xeiv46f+F1ft5f9F5+PP8A4dG+/wDkugfGr9vL/ovPx5/8Ojff/JlZf2phP+fi+89L/iH3E3/QDV/8Af8Akf2LUV/HR/wur9vL/ovPx5/8Ojff/JlH/C6v28v+i8/Hn/w6N9/8mU/7Twn/AD8X3h/xD/iX/oBq/wDgD/yP7F6K/jp/4XT+3ln/AJL18ef/AA6N9/8AJlIPjV+3l/0Xn48/+HRvv/kyj+08J/z8X3h/xD7iX/oBq/8AgD/yP7F6K/jp/wCF1ft5f9F6+PH/AIdG+/8Akuj/AIXV+3l/0Xn48/8Ah0b7/wCTKP7Twn/PxfeL/iH/ABL/ANANX/wB/wCR/YtRX8XPxY/be/bO+Ci2B8Q/tD/HyzGpGQQFfiTqcu8pt3fcujjG9evrXd+FfiJ/wUI8a+F9O1nTvjT8fJ9O1a1jvbWU/Fa6TzYpFDo21r0EZUg4IB9uDWyxdFwVRSVn1ufJ5xTllNZ0MzXsZrdT916q/XyP7C6K/kC/4SD/AIKKf9Fj+Pn/AIdm4/8Ak6j/AISD/gop/wBFj+Pn/h2bj/5OpfXcP/OvvPH/ALdy7/n/AA/8CX+Z/X7RX8gX/CQf8FFP+ix/Hz/w7Nx/8nUf8JB/wUU/6LH8fP8Aw7Nx/wDJ1H13D/zr7w/t3Lv+f8P/AAJf5n9ftFfyBf8ACQf8FFP+ix/Hz/w7Nx/8nUf8JB/wUU/6LH8fP/Ds3H/ydR9dw/8AOvvD+3cu/wCf8P8AwJf5n9ftFfyBf8JB/wAFFP8Aosfx8/8ADs3H/wAnUf8ACQf8FFP+ix/Hz/w7Nx/8nUfXcP8Azr7w/t3Lv+f8P/Al/mf1+0V/IF/wkH/BRT/osfx8/wDDs3H/AMnUf8JB/wAFFP8Aosfx8/8ADs3H/wAnUfXcP/OvvD+3cu/5/wAP/Al/mf1+0V/IH/b/APwUU/6LJ8e//Ds3H/ydR/wkH/BRT/osnx7/APDs3H/ydR9dw/8AOvvD+3ct/wCf8P8AwJf5n9flFfyBf8JB/wAFFP8Aosfx8/8ADs3H/wAnUf8ACQf8FFP+ix/Hz/w7Nx/8nUfXcP8Azr7w/t3Lv+f8P/Al/mf1+0V/IF/wkH/BRT/osfx8/wDDs3H/AMnUf8JB/wAFFP8Aosfx8/8ADs3H/wAnUfXcP/OvvD+3cu/5/wAP/Al/mf1+0V/IF/wkH/BRT/osfx8/8Ozcf/J1H/CQf8FFP+ix/Hz/AMOzcf8AydR9dw/86+8P7dy7/n/D/wACX+Z/X7RX8gf9v/8ABRT/AKLJ8e//AA7Nx/8AJ1H/AAkH/BRT/osnx7/8Ozcf/J1H13D/AM6+8P7dy3/oIh/4Ev8AM/r8or+QL/hIP+Cin/RY/j5/4dm4/wDk6j/hIP8Agop/0WP4+f8Ah2bj/wCTqX13D/zr7xf2/ln/AEEQ/wDAl/mf1+0V/IH/AMJB/wAFFP8Aosnx8/8ADs3H/wAnUq69/wAFEyf+Sy/Hsf8AdWbn/wCTqPr2H/nX3ifEGWLfEQ/8CX+Z/X3RX8g39uf8FEv+i0fHr/w7Fz/8nUf25/wUS/6LR8ev/DsXP/ydU/2hhf8An4vvI/1kyr/oJh/4Ev8AM/r5or+Qb+3P+CiX/RaPj1/4di5/+TqP7c/4KJf9Fo+PX/h2Ln/5Oo/tDC/8/F94f6yZV/0Ew/8AAl/mf18E4FAOa/kHOt/8FET/AM1n+PX/AIdi5/8Ak6kGt/8ABREf81o+PX/h2Ln/AOTqP7Qwv/PxfeH+smVf9BMP/Al/mf19UV/IN/bn/BRL/otHx6/8Oxc//J1H9uf8FEv+i0fHr/w7Fz/8nUf2hhf+fi+8P9ZMq/6CYf8AgS/zP6+aK/kG/tz/AIKJf9Fo+PX/AIdi5/8Ak6j+3P8Agol/0Wj49f8Ah2Ln/wCTqP7Qwv8Az8X3h/rJlX/QTD/wJf5n9fNFfyDf25/wUS/6LR8ev/DsXP8A8nUf25/wUS/6LR8ev/DsXP8A8nUf2hhf+fi+8P8AWTKv+gmH/gS/zP6+aK/kG/tz/gol/wBFo+PX/h2Ln/5Oo/tz/gol/wBFo+PX/h2Ln/5Oo/tDC/8APxfeH+smVf8AQTD/AMCX+Z/XzRX8g39uf8FEv+i0fHr/AMOxc/8AydR/bn/BRL/otHx6/wDDsXP/AMnUf2hhf+fi+8P9ZMq/6CYf+BL/ADP6+aK/kG/tz/gol/0Wj49f+HYuf/k6j+3P+CiX/RaPj1/4di5/+TqP7Qwv/PxfeH+smVf9BMP/AAJf5n9fNFfyDf25/wAFEv8AotHx6/8ADsXP/wAnUf25/wAFEv8AotHx6/8ADsXP/wAnUf2hhf8An4vvD/WTKv8AoJh/4Ev8z+vmiv5Bv7c/4KJf9Fo+PX/h2Ln/AOTqP7c/4KJf9Fo+PX/h2Ln/AOTqP7Qwv/PxfeH+smVf9BMP/Al/mf180V/IN/bn/BRL/otHx6/8Oxc//J1H9uf8FEv+i0fHr/w7Fz/8nUf2hhf+fi+8P9ZMq/6CYf8AgS/zP6+aK/kG/tz/AIKJf9Fo+PX/AIdi5/8Ak6j+3P8Agol/0Wj49f8Ah2Ln/wCTqP7Qwv8Az8X3h/rJlX/QTD/wJf5n9fNFfyDf25/wUS/6LR8ev/DsXP8A8nUf25/wUS/6LR8ev/DsXP8A8nUf2hhf+fi+8P8AWTKv+gmH/gS/zP6+aK/kG/tz/gol/wBFo+PX/h2Ln/5Oo/tz/gol/wBFo+PX/h2Ln/5Oo/tDC/8APxfeH+smVf8AQTD/AMCX+Z/XzRX8g39uf8FEv+i0fHr/AMOxc/8AydR/bn/BRL/otHx6/wDDsXP/AMnUf2hhf+fi+8P9ZMq/6CYf+BL/ADP6+aK/kG/tz/gol/0Wj49f+HYuf/k6ga3/AMFEc/8AJaPj1/4di5/+TqP7Qw3/AD8X3h/rHlX/AEEw/wDAl/mf18A5pa/nU/4NGf22fjR+0h/wUk8baF8R/i78TvH2i2nw1vr6DT/Efim+1W1huF1TSkWZYp5XQSBJJFDAZAkYZwxr+ioHNdh7QtFFFABRRRQAUUUUAFFFFABRRRQAUUUUAFFFFABRSE4FIHzQA6ikV80tABRRRQAUUUUAFFFFABRRRQAUUUUAFI67lpaRjgUAfzGf8Hm7Y/4KvfDrt/xa/Tfw/wCJxrFexYAT8eB6CvHf+Dzzn/gq98Ov+yYaZx/3GNYr2En5fz/TrX7r4MVKcHinUdvh3+Z/MH0kaFWrSwEKKcnept/26J+f50fn+dGeP6elKFyPx6V+/wAXCS5k9D+SZwqQfLNWfmJ+f50fn+dLj5c5X86AM+n51VkReQn5/nR+f504pt+nY+tJj/Dr3o5VuF2J+f50fn+dOMZB7d+9IFz7d+aOVWuF2J+f50fn+dKB82KCMY+ZefejlQXkJ+f50fn+dZo8Y6QfEx0X+1NO/thU802H2lPtQTGd3lZ3498YrTAyazp1Kc/glexvVoVqVvaxaurq/Vd/QT8/zo/P86M8Z9s0uw//AKucVUXCSvF3InCpC3OrXE/P86Pz/OnBM/j0HrSMNvp+YquVbmd2J+f50fn+dLt/LrntRs4PscHjpRZBds8N/wCCkPy/sVeNz6RWp6/9PkFe+/8ABsGQf2APE+M/8j3eAfT+z9O/xrwL/gpONv7FHjn/AK5Wn/pZBXvf/BsCNv8AwT+8Tnt/wnd71P8A1D9Or/PX6dOmRVuX+Wn/AOln+iH0Pm3lzb/5+T/9Jifo7+dH51w3xN/ag+GnwV1yHTPGXxD8D+EtSuIVuIrTWtetbC4kjYkBxHLIrFSVYZxjKn0rEP7c3wcm8I6/rll8TfBOt6d4XsH1TVW0XVodVlsrVCA0zRWzSSbQSoyFPJA6nFf5L0OGs6rwjVpYao4ytZqErO+1nax/ck8XhoPllNJ+qPVMUYrxrWP+Cgvwh0H4NeEfiDdeL1j8IeOr8aZoeoDTLxvt1wWkUJ5YiMiZMUnLqo+XryM+y5+b9awzHJMzy+KljKUoJtpXTV3F2kvk9GFHE0KulOSel/k9mGKMUbvlz2pa8jnntc6EkxMUYpaKOeXcfKJijFLRRzy7hyiYoxS0Uc8u4comKMUtFHPLuHKJijFLRRzy7hyiYpRwaKKOeXcOU+Qv+C8p2/8ABJ74sf7ulf8Ap3sq+Ov+CBv/ACZnruD/AMzdc/8ApHZV9h/8F6Bj/gk58WP93Sv/AE72VfHn/BAsf8YZ67/2N11/6R2Vf2H4atvwuxGv/L9/lTPL4fS/1ypf9e3+p9u0UpIUckDjNITjPtXyXvWuf0N7oUUMdpPDHHoKM89/yxR7w7IKKU8ev5df84oPB545xz60e8L3WJRRn5c9uvHNK3y59gSanmew9BKKN3NGead3v+oaBRQDmlzReQ7LYSj/AD0pc0mcijmYrJn42ft/H/jcnf8Ac/2tofJ7/wCh2VfSmzn0zz0x/n/PrXz1+214cl8Tf8FpNVggeNHhu9LvCZM42w6baysOAeSqHHuR061W/bnubC2+IXw0/tZ2TRmvpvt4XdzAHg3/AHPm+7n7vPpzX9XU8OsVhMvw7lZujF/+SJ/ofDeG3EFXh3K89ztU+ZRxKiruybc1F667cybPo3GR+v1o24/wr5e+H0Wm6t+05pLfC2XU18O2UAbXW3TfZCDuwCJQSSRgAEdRkYwSPQb/AONXjDx78Qte0TwLpmgNb+GG8m9u9XaQLLMcjZGIyOcqw5yOMkjiuXEZPOEkoNWtd30trbX9D9myTxWwuKwsq2LpPm9o6cVT/ee0ajzNw2ukr83Zo9gIx3HXHWjb/nmvFY/2w4rb4O3+t3ekyR69p18NJl01XO03Jzj5sZ2kKxx1ypHcGpH+OPjb4Z+IdDHjvSfD8Wk+IJltln0t5fMsJDjAmDkg47hfQ88YOSyfE3akkunrbXTuel/xFXIeWE4TlKLUW2oNqCk+Ve0f2btNfmez7CfX64NJtr5e8H3HxCk/a68Zx6cfCB1ZLOFrgXX2g2ohIh2+Xt+bfjZnPGd2O1fUKFtnzY3YG7Hr/nPX0rHHYH6soe8nzJP70j0uC+Mln6xD9hKmqVScLyWj5ZOOj76aroGKMUtFef0Ptz5S/wCCnxxbeCP+ul4P0t6+9/2Zj/xjd8PiM8+GtN/9JY//AK1fA/8AwVA/49fBH/XW9/lb197/ALMvH7Nnw9/7FrTv/SWKvsq3/Inoer/Nn+Lv07P+Srr/AOOH/pqJ3G6jdSUf55OK8K7P4G1F3UbqRfmPHP0o7Uah7wu6jdSUuP8AHFK7DUN1G6kooux2lsLuo3UlGefp75/XpTV3ohai7qN1JRSTbV0HM9ri7qN1JRT1HaV7C7qN1JRR7wldq6F3UbqSildhqLuoJyKSii7FqGKMUUUAGKMUUUah6hijFFFGoBijFFFGoBijFFFGoBijFFFGoBijFFFGoBijFFFGoBijFFFGoBijFFFGoBijFFFGoBijFFFGoBijFFFGoBijFFFGoBijFFFGoBijFFFGoBijFFFGoBijFFFGoBijH/6vWiiqjfmRpR/iR9UeL/8ABlzz/wAFVviF/wBkt1L/ANO+j1/TsrZFfzEf8GW4x/wVW+IX/ZLdS/8ATvo9f08AYr9lWyP73WysLRRRTGFFFFABRRRQAUUUUAFFFFABRRRQAUUUUAIw3DFfiB/wctf8Fxf2gP8Agmn+3z8MvBXwn1vQNI8NJ4UtfFeq2d5osN9/wkUkuo3cLWtzJIDIluI7FQPszQy/6RMfMJ8sx/uBX8wX/B6kf+Np3gD/ALJVp3/p31igD9yv+CVv/BYT4Sf8FVfg1pus+EdZ0/RvHUVo82v+BbzUIm1jRHiMSzSBPlaez3zxbLtECN5qqwilEkKfWKuH6fnX8un/AAVt/wCCJ/xO/wCCB3xl8MftBfs8eLPGF/8AD3QLqB7fxDI0Uus+Db8gRGO/8uNIZrO5LMiyGIRN5xtpk+eM3P7Of8EO/wDguH4O/wCCufwca2u00/wp8ZvDFqj+JvC6SYjuE+VP7SsN5LyWbuygqSz27uI5CwaGaYA+8aKaJAW/HFOoAKKKKACiiigAooooAKKKKACkZd4paQjIoA/mM/4POV2/8FWvh36/8Kv03/08axXg37UN74Li/b8tY/iDIw8L/wBiI8oDXAHm7X8s/uBv6/h617x/weeA/wDD134df9kv03/08axWZffBDX7n9vC08c/YkPhyPRWs2ujNHzIY2GNhbfyTjpjnrX6HwTgMTjISo0Fd88H3W0t/I/K/EPM8LgMRSxGLlZKnWtrZ39zSL79jzz9iOP7V8fvG2q+CJtUT4Pww+VbLdNKLd7kKhJjWT5+PnySdwVgDyQK6Ow/ao+JXxa8Ja94x8B+H/CZ8HaFNMirqstx9v1NIRukeJYyEU7ezZweMnFP8Bfs8eKf2ev2hdYTwxpcWpfCzxeN97Z+fFH/ZLtkMyKzKSE5xtHMbYIyoNeb+G/2E734SXuo6XefC/TfiPYvdPJZ6ovid9KmEbHKpNGXAJH+wo5J5Nfoqec4bCQoUVONnJO3817q2/u9j8sVPhrM8xnjMXOnLmhT9nzWbcUnz812vf2u36o7zx1/wUN/4t/4BvvDtnpNrqnjoyL5+uXJh07SzG+yTzXGMjfnByOADjnFdkn7RHib4WfCHxD4u8ex+ENQsNNhik0+68LXcktvfu7lBHmQswIYx88jDE84xXIar8A/EGnfC3w1oY+FfhDXNEtvtDXXh9tUZZdPleUlHhu5WJyVI34YgkcACuW8DfsAa5r3w/wDiRpuoRweEbLxW0L6PoY1A3yabJE/mIZJecgcpuGTtkYnkCu769xA675eeUnD0SfL22d3seVUyjg76nap7OEVU1d1KUo+06Wd1aPk1bU6zxL+1Z8TPhN4Y0Lxp4v8AD/hBPBOtzwo8GnzTnUrJJl3RtIXPlsdvoOvGVzWr47/as8Zab+0jqPgfwz4Ys/EqJo8d9YqsvkSM7iM7pJHkCCIbicBdxJUZwcjy7Rv2RNSsfDsGmXfwK0O71CFRG2rHxjcLZzFf+WpgEok2nk4DA88Yr2Pw78Edf0f9te78XtZRr4dk0BNOjuFnT/WqIxjZu3/wnBIx71OArZ7WUYOU4xlOOv2krPm3XezNc5wPCOEcq8IUptU6jSTSi7cvKrKTfNv2bMzw1+0t498JfGrwX4V+IOjaFpaeMbKQRtZBy9vdKzBYy/mujA4Tgf8APVeeDWvD+1TdXPxy8d6dHb2SeCfh3pv2nVb7y3e5e42FvLjIYJn5WGCuSY255qx+238CtU+NHwxtZvC42eL/AA7fRahpEgdY2EgYBgGY7V4w2TxmNRWd8Af2W7jRP2Z9d8P+KyI/EvjYXVxrc6lJGimlyEww4baAG4JG4tzzXqyjnlPFVMFSk5RinOMn100i/wDt78D5SjU4UxGWRzfEU4QnK1J019l893US30hon3OVvP2s/imfhH/ws+38L+EB4FVvNNg11cNqptxJ5e/eP3XXOMrkAfdPWuj+Iv7XWrat4k8F+Gvhvpmm6p4h8Y2CausmqsyWthashb95sYHdhWJw3G0ABiwryHwd+xVqngfw+NF1X4N6P4vu4WKLrNt4tls4LnJyrPAzhsjPO0KDgcCvQ/En7P8A4z+HnxK+H3jjwhoGk6jcaFoi6Pqehi/MCRrtfmKaZiSoLkZYkjaODk14eExmeun+851FuPM0veXfl006H2mPyjg6NSm6HsnL33T1Sg/d91T959ertfZnM/C2bxMf+ClNwviyLRYdXTw/tlGktI1q37tcFfMUMCe4Pfua+udQvY9MsZridhFDbRtLI56KqjJJPYY79q+ePh98I/Ht9+2pJ4+1/Q7LStKudI+zKlvqMd15LbFARj8rM2QckKFzwDgZr0P9rnQfFPiz4C63ovg+0N3rWrItou24SDy4mI807nZRyoK9c5cV9NkVSvg8oxNaMJX5ptJrV66fefnfGdPDZlneXYZzgl7OEZOLXJGzfN12R8YReMvEUHxPtv2hzc3f/COT+Kn06W1J+YWWAoGM9PL3p6blHrX1j+1N+0rqnwS/4QaTRNPtNYh8UaktpIhUvI8Z2Y8kh0XzMNxuO3kZGK88v/8AgmpBD8An0C38a+P5bhLLzo9Mk1hP7JkvMb+IfL27DKCeuec5J5qDUfgJ8SPGfwq+Dljq2jgav4J1YHUma/gI+zRunlyBvMIPyDHBzlDxyK+YwGGzrL8PVwvJKMp8sr3vrzJS9PTsfomaYjhjOMThsQqkJwoOVNxa5fc5G4XvvZrdd0df4s/as8bfCPwFq+t+N/Btlpk17fQWHhvTre9SZrt5A5PnOjsPlxnO1c5245yEk/aO+Inwi+JHhLS/iPpPhNdJ8ZTfYrO60OS4L2Vx8oCy+YcNyy528dSCcYPTftpfs43H7S3wph0+xe0XVdMvEvbMXJYRXGAVaFyvzKGUk5XHIHIzkeS+BP2Ybm38V6HI/wADdI0K4s7uGWfVX8Xy3UcKo4LOkKy7t3GVDEj1Br0MdLPcNjVShKUorls9011vZfLy0PJ4focJZjlk8TWp06c/eUo7ONlaLi3K676Xu73O8+OXxr+JXw21vU5baf4SaTpFoWeyg17VJYL/AFCNejIA6oCxBADEc9RXbfss/Hhf2j/g3p/iY2f2G4leSCeENuRZEODsPUgjB9skdsnwvw5+yx4t0T4n+OG1jwL4V8Z/8JFdTT2Gv6tfI0VgjbyAbdgzkjcOAEwRjfgBh6l+wZ8H9f8Agd8AYtC8SWa2OorfTXHlJLHKAr7dvzIzDnae/GK9HhfFZrPNJxxPOqTi3aXSSklv6djxuNcr4fo8Pr6m6brQcLShZOSkne6u29VrfX0Kv/BSr/kyrxz/ANc7T/0sgr3v/g2B/wCUfvib/sfLz/036dXgn/BSr/kyrxz/ANc7T/0sgr3v/g2B/wCUfvib/se7z/036dX8e/Tq/wCRDW/w0/8A0s/pL6Hn/Itf/Xyf/pMTz3/gp1rvh7w3/wAFs/hPdeKfh3rHxV0SLwU/n+GdL0GPXLrUCTqO0raSkJJsbEhyflCFu1ezX3xE+Hl5+yB8dtb8Cfsz678FNU0PwZdym48VfDHT9Fh1ZfLkcRBCrx3Sq8Sl45FKfdyDXp3xS/YX8V+N/wDgq38Ofjra6loEfhTwf4dm0i7s5Z5hqMsrreANGgiMZX/SE5MgPDcdM+z/ALWvwi1D48fsweP/AATo81lbap4q0G90u0lvGZLeKWaJkUuVVmC5POFJ9jX8L4nxBymMMnwMZXUadJTmqklGDU7yUoL3Xpvfo/I/sD+yK8sTiazVk3ponf3Vs3qtT8wP2tfFU/jT/gkd+yVql1b6TaT6h42spZY9N063021RmN2Tsgt0SGME8kIgGTnqTn3/APav/wCCgviXxL+3frHwQ8MfFvwH8BNF8HaVDf6v4t8Rw2dxPfXUiROtrbRXUiQH5J0yDh/lkOcAZsfFX/glV8QPHX7AfwH+FVrrXg6PxB8LtettU1S5mubkWdxHH5+RAwgLs371cB0QcHmtz9s3/glfrHxJ/aqn+Mvw8t/hLrevazYRWGteHfiToJ1XRrwxoqJcRsqvJDIEjjXCBc7T83zMD9jT4p4PxOKorG1oS5XiXBuzjGUqicG0042cb2umjyY5dmUKUnTTTcaafTRX5kvMtf8ABKn9u3xR+0P8Sfin8NPGfibwv4/1X4cXML2HjDw8IVs/EVnLuCyFYcxBxhc7Pl+cr1Qs32puyRivmj9gj9lXxt8BvEHiTWPGfh74BeFptXt4bW30/wCGXhn+zYAEZi0k08kazSlsj5Cdq7cjkmvpcDDdsdq/nTxRr5XX4grVMo5fZNR+C3Lzcq5mraayvotO2h9bkUcTHD8uIbbu9+z2XyHUUUV+dHuBRRRQAUUUUAFFFFABRRRQAUUUUAfIH/Ben/lE58WP93Sv/TvZV8ef8EDR/wAYZa7/ANjddf8ApHZV9h/8F6f+UTnxY/3dK/8ATvZV8e/8EDf+TM9d/wCxtuv/AEjsq/sLw0/5Ndib/wDP9/lTPJ4f/wCSxpf4H+p7h/wUS+MPiD4Dfsg+LPFXhW//ALM13TPsptrkwxy+VvuoY2+WRWU/KzDkHr61wfwQ+GXx8+Knwo8KeKpv2hVtl1/TLbVGsx4E05xF5saSeV5m4FsBsbsA+3NbP/BWeIz/ALAnjpQpY5suB/1+29c3+yL/AME5/g1P8F/hz4sl8G7vEMmkafq8t0dVvv8Aj5MccjSFPO2D5+du3bzjGOK+v4cxGBwnDjxFdKMnUlG/JGb+FWWuyPu8+o4zEcQRoUruCpptczivi30Jv+Cm/wC1L43+EY8G+DfhbMv/AAnvi65lniVbaG4kS2iQlv3cqsq72PBK9Imx7dV+xx8eNe/bJ/Yo07WLPxFBofjdon0691OOwiufsV7EwBlMBIjYum2TZgL+9HHFfOHhxPin+1X/AMFEPG3xK+GqeAZ7P4cY8N6bN4o+1mzkUrIjSQ/ZhlmJErZJACzr1zkbX/BO668TfsvftufEH4U+NhoNpL4yT/hI7FdJeX+zvtB/eNHbeaA+3yncHcCR9mxk4yfXxuRYSjkf1ek4PEUlGq9ubvJNdlFx08meHRzjG1M8deamqE26Wz5bbJrzckx3xM8bftAfD39tXwL8Il+N6XK+M9Pkvzqp8Gacv2XYtw2zycHfn7OOd4+/045+kLv4UfGbT/hRBo1n8V9Mv/E8uqebceI7vw1BAbax8v8A1MdrGTE7iQA5cjhm54FeIftHws//AAWX+CDbTtGgXAJIwB8mof5/Gvbf26f2xbL9i/4Pr4hm0q51jUb+f7HptpGQsbTbWbdK2chAFOdoLE4HGdw4c2xeKr/2fh8HRpudWCk1yR+K8lf08j18vwtHD1sdWxVWahSdlq9Fyp/Nnjun/Hr4tfs4fty+Cfhl4z8Y6V8S9F8e2rTR3Q0aHTLywI8z5tkPRd0ZyWLZGfukYr7JK/LzzznkYr86f2E/jT8MNd+OMfxJ+JXxEg8RfGLxfNHZadYRaPfi00ATERrbxM0AQP8AMELZ2KCwDNuLt95fGL4mWnwb+FXiDxVe4NvoVhLe7Gbb5pVcqgPq7bVHqWFePx3lk4Y7D4aNNRnJJSlGPKpSv0W1ldL5HocE45zw1evKbcL3im7uMbdfXc+Gf25v+CinxN+GX7Terw/D+eObwP8ADX7AnihFtredLmSaUbkaRlZ0zuEXyEFWVu9fXvxs/aw8K/AX9n+P4k341DVfDksdvJE2lxxzSzxzlfLZd7qpHzAn5s/Wvhj9lj9mL48fFz9mrxrq+nw/CZtL+OEk97qMviA6gup8SSqrJ5KmNAH3yR5DffB6ECuc1P4sah43/wCCO/ifwZrQ2eJPhxrtro09u/8ArEt/tIaLcPQHzYx/1xr7XMeFspxUcPhKXK/YzhCpytXalZNy8+a6+Z8XgeJM0oVcRi6iklVhKUOZaJxu4peXLZn3B8PP+CkXwu+J3jPWtJ0vU7xrbw7oja7qGrPAo0+3hQoHTfuLM6+YM7VKnBwxrB07/gqp8PLjVNMa90L4g6J4Z1q6Fpp/inU9CNvod45JC7Jy+7BweSgwAScAEiz+1X8HdW+MX/BNy88NeGYGk1KfQLCa2tYhzciEwTNGuOrMI2wAOWwK+K9W8WWnxW/Zv0n4e+NPj7r1mbG3trY+Cj8Kx9vtZrcKqW6TRsu8qVwGaRd2PmAJIHm5HwnkGZxq1YRa5ZcrXM20kvjVlrfs9ND1M14lz3BunBtPmjzJqOjb+z/wdz7++Nf7Z+l/BvxvJ4eh8FfErxrqEFpFe3A8K6H/AGilrHIWCF23rjO0/mK2P2Yf2rvCP7Wfg271fwtJfxnTbo2d/Y6hb/Z7yxlxkLImSOR0KsRwRnKkD5A+MXxr8RD9q/8A4Vx45+IXxC+GvgGy0SyTw/L4c02Rb7X7h4YAwEsKSyeYZHkGAGUFCoIblug/4I2aa+kfE39oKBn8QShPENsgk11t2pygPeYNye83Hz+rE8V5+bcGZfhsinjI/wARRjJNO902lr067LY6st4vzGvnNPDW/dybi1a1mk3fv03Z8/ftRcf8FvNf9PJt/wAP+JJFWl+0B8LdZ8d/Ff4capp1oJ7Lw7qRub5zMkflIZIWB+YgnhG6A9KzP2oTn/gt1r3/AFyt/wD0xxV7bnH9ff8Az/nrX6MsTLD0MBUjuqEPxjY/Q/Cjh3D53kWbZbim1GWNm21/cdOSXza1PFfiJ8H/ABF4K+N1l428D2MV39vJj1zTzKkC3K5G5gWOMt+YZQfmyaZovgbxr8GfiV4m1TQNFtfEWleLJPtpge/jtZ7GbkkMWJBGXbgE5wORzn20/wCe3rRnmsv7WqOPLUinpZ+avdfd0P02t4XZesRLEYWtOlLn548trQk4uMnFNWtNP3ltfU+dpf2R9b1f4L6nDdXlmni7UdVXWiqn/RkkG7ERPPZm9skDoM1seJ/Avjv486z4ZtfEWi2PhzSNFulvL+WO+W5a9dcYEYUkp/F1PAPU4wfccn34GOtKTn/P6fSr/tqu3zSSbV2vK6toYx8IsohFUqM6kabUVUipaVOWTkubS97t3ta6djxHUPAfjPwH+0trni7R9Ct/Eema/Zx27xC/jtngZVjHO/qcx9ADkN2Ne2RktGpIx7Z3bevf8P8AOaU8j+tHU/y9q4sTjJV4xjJfCrX7rofWcO8L0snqV5YarJwrTc+WVrRlK7ly9feb6hRRRXIfUHyj/wAFQP8Aj18Ef9dbz+VvX3v+zL/ybb8Pv+xa07/0lir4I/4Kgf8AHr4I/wCut5/K3r73/Zl/5Nt+H3/Ytad/6SxV9fU/5E9D1f5s/wAXPp1/8lVX/wAcP/TUTt6D0/kfSignArxFufwVSSc0n3Plj4YftN/Gb48+NvG1l4XsPhtHZ+DtQa0ddSF9HNcDfKqbSkhXcRGck7RkivQ/2d/2sB8UtT8SeHvE2k/8Iv4u8HgtqVo0gaF4l4M0bf3c+pIwyFWYNkeK/sK/FXwv8Mvih8aP+Eh8Q6LojXGuB4kvb2OB5gklzuKKxy2MjoD1HFV/h74tn8VftCfGj4z6TpUuoeFbPQpbOz+0RFY9VeOKJflB6x4hLNxkK4yMnFfTVcJCU50+VJJJp7au3U/a8yyDC16uIwrw6pxjGDhNe7eTt7t9nfX0Pe7T9u74TXWrJZL4xtEmkfy1MtpcRRE5x/rGjCD6lse9cj+0X+3XZfBD9oPw14UafTP7MlJbxBLcWdw8tgrKjxmPbhW3K3YPjvivm348/E7VfjD+yRHrGq+PfBSiSeJ7bwdpGkQ+bYgT7Bl8+dBsXvjaQQoYhhn0745eJLTwZ8Wv2Z9c1eVbXTbawQT3cvEUeY4ASzdABuBY54ByetaU8rpRknNX3VvOxrS4LyvC1oOUHLmjUTje/vRjfR2WvbzPoTXP2v8A4c+HfDOl6veeJYodP1pHkspGtZy8yI+xm2eXvUBlI+ZR0rd+FHx08JfHCxurjwrrdrq6WThLhUVo5IS33dyOAw3YOCRg7W9DXg3x6/agnl/aE8OeH/C/iHwP4bstU0trn/hMb5IroPGGkBihkJ8vaWiIwSAWHUEYbmf2ES1v+2h8UEGvW/iXztPjlfU7aySxhv3LRHzBEnyckt8y5D/eBO7NcLyyPsJTejtdfeeBjODcHHKKmN5ZQqRXNFN393mtrpo7edz7JnmW2iaSQhUjG5mJ4UDqSfSvlT9m/wD4KG6r8Zf2h4vDOp6NZaf4c1z7X/YN4kUqS3HlMxXezOVOVRgdqj5to7899/wUK+Ksvww/Zr1WGyDPqXiV10W0RVJJ80HzMAdf3YcZHdl9a+Y/jJ4F+IPwk+BfgG/f4aL4ff4W3aXb6yutW12bhpJVLloYxvAaYqfvMF5HuLyzBQqUm6qV5aLy03XzsbcGcMYTE5bKpi4pyrXjC7s1ZPVd/esj7f8AGfxy8KfDzxbpuh61rNvp2patFJPapKj7HSMEuzSAbEChWJLMAADWfZ/tO+Ar7wDc+KE8T6eNAtbprJ7x96I0yjcY0DKDIcHI2Bsjpmvnn48XOi/HX9rH4DXdza2+paJr2mSXT21woljZHQvtYHjK5GRzgj2pn/BQbwO/wv174X33hvSvDOi+G9N1eWW5jmsmh0mG6byjG9zHAMkFUblVz8reuKmll1J+zhJtSlf8GzmwnCOXSqYbB1nJVakXJ6q2jkrd7vlSPov4VftLeBvjbqE9p4Y8QW+pXdsnmyQGKWCQL03BZFUkcjJGQMjOKwtb/bh+Fnh3WptPvPFlvDdW8jRSD7JcMiupwRvEZXr3zivCfD1zrnj79q/wZ4x1Xxl8G77UdOhmthY+EL65uLu/j8mVtrIVfoCcbioHTrgVw+sfHXVvj1+zZ4tu7vxp4H8F6aFuUg8GWGlQzXV3tG4Aq53qWJz5qA7Tub5dpx0LKaTnZPTS/wA2z2aHh/gHi2m3yWj11i3ddtdr3sj7+0vVLfW9Lt72zniubO8jWaCeJg0cyMAVZT0IIIIx2NT15H+we7SfskeCC24v9hdWLdeJpABz9P0r1yvBxVJUq0qceja+4/JM0wccJi6uGi7qEmk/RhRRRXOeeFFFFABRRRQAUUUUAFFFFABRRRQAUUUUAFFFFABRRRQAUUUUAFFFFABRRRQAUUUUAFFFFABRRRQAUUUUAFFFFABRRRQAUUUUAFFFFABRRRVQ+JGtH+JH1R4t/wAGW/8AylX+IX/ZLdR/9O+j1/TzX8w3/Blv/wApV/iF/wBkt1H/ANO+j1/TzX7Ktkf3rHYKKKKZQUUUUAFFFFABRSE4FeAf8FJP+ClHw4/4JY/s4j4mfEseILnSbjVbfRLGw0SyW6v9SvJhI4ijDvHEu2KGeUtLIi7YWAJdkRgD6Aor8gT/AMHqn7LI/wCZB+P/AP4I9I/+WdJ/xGrfss/9CD8f/wDwR6R/8s6AP1/or8gP+I1b9ln/AKEH4/8A/gj0j/5Z0f8AEat+yz/0IPx//wDBHpH/AMs6AP1/or8gP+I1b9ln/oQfj/8A+CPSP/lnR/xGrfss/wDQg/H/AP8ABHpH/wAs6AP1/r+YL/g9TOP+CpvgD/slWnf+nfWK+/v+I1b9ln/oQfj/AP8Agj0j/wCWdfjl/wAHCX/BT7wD/wAFaP20fDHxE+HOkeL9F0XRvBVr4bmg8SWtvbXT3MV9f3DMqwTzKYyl1GAS4OQ3ygAEgH9e/i3wfpfjrwrqmh65pthrOi6zaSWOoaffWyXFtfW8qNHJDLG4KyRujMrKwIIYg8Gv5uf+C1X/AAbT+Kv+Cdf9pftCfs2a5r9/4I8M6t/bk+i2bTJrvw7gi8uWO8trtZDLdW9vKsjGXCT20awu5mCT3Kf0r797HHt/jQsG09T9TQB+Wn/BvV/wcJaX/wAFKfC1n8LfipdWGifHzRbQmKUIltaePLeKPc9zbIMIl4iAtPbKACA00IEYlitv1O3jNfgJ/wAFqv8Ag2C8VfDz4o6n+0D+x/H/AGSNIz4ku/A2jTS2mq6VqMM0con8P+Sv+9OtqHjeJ4Ntt5nmQ28Xpv8Awb1/8HMlx+1h4qtPgv8AtIazYQ/EnVLtk8KeLzbQWFr4meR8rp1zHCqQwXYLBYGRVjuAFjIWcIboA/a+imq+716Z5p1ABRRRQAUUUUAFFFFABSN0paQ8igD+Yz/g86G7/gq/8Ov+yYaZ/wCnjWK9h6ZPfAB49uleO/8AB54uf+Cr3w5/7Jfpg/8AKxq9exoN49cgH6D3r958E172Jv8A3f8A24/lv6TH8LAN96n/ALYJxuyPzPPNKH2Dg47YHH60bdx/DNAG6v362up/Jd2IcbeOKF46cdqAMmgcmjpoh3lazHA4fk/XHGaQrhcj8felVRjJpNpPAzjtxSdk27CuwU7W6Z9iKUOp6r06AdqQikBH44yKclYWtrChQwOeRilj54/yKRTgGhc5yBSsuqHdig5B4H680g+YZ7j9T6/Wk5FKBjNVpcNeghPJ6g/55pySYI4GfUUmePr3xSFduPep6JCd0rATnt160bunbHT2oBwaCcjsKWi32GLuwB+h7ihhtVfXHP8AnrTmGUJ/u+1Nf9RVNK9gTfU8N/4KVf8AJlXjn/rnaf8ApZBXvf8AwbAf8o/fE3/Y93n/AKb9OrwT/gpV/wAmVeOf+udp/wClkFe9/wDBsCcf8E/fE3/Y93n/AKb9Or/PP6dX/Ihrf4Yf+ln+h30O/wDkWv8A6+T/APSYn6O0UmfmxQGyK/x51aP7xFozik3UdDzwfQ0rMV0LnNFJQTij0Hp0FopN3NBOKYC0UgYH/wCsM0CgLoWiml/m6UpOKAuhaKM0gOaQXQtFFFAwooooA+QP+C9P/KJz4sf7ulf+neyr49/4IGj/AIwz1z/sbrr/ANI7KvsL/gvT/wAonPix/u6V/wCneyr49/4IG/8AJmeuf9jdc/8ApHZV/Yfhn/ya7E/9f3+VM8jh/wD5LGl/gf6n24Se3169DSY56AAfd/2fp70oORR1FfKe1ly8t9O3Q/oZRjfmtqGDnPQ9sdvT+tIMx4PXH68j1zTqKr29Xm5m3fr/AJE+xp8tuVWEGVXAPb8/8/TvmhcqeM46ZBxxx+fSkGQeadQqtRPnUtV+HoJ0YNOMkmmIwz0A46cdPpSKCO/fP+fSlHAoAyaqeKrTalOb08xQw9KF+SKS66AFx9c5Jx+lHJXr2x6+vr2/+vQTg0GlGrVTfvP7xujSaUXFW9Axjpxjp7f40Dp7HqB/n/P60tIp/SinXrQu4Sav5ilRg1acU7eQHk+vHJ9aVT8voOwzwPw6UhbAoJodeo1yybt2uN0IXvZXPyU/agGf+C3ev/8AXG3/APTJFXtn5/gOteJ/tQ/L/wAFu9ex18q3/wDTHFXTeMvE+r3Hx90rw5aarc6bptzpL3khghgZ2kV2AOZI249q/p6dF1sHgo3t+4g/uicvg/nUcsyzMq0oOTljpwSXVy5Etz0bOKO9eHXXxe1A/bdF1We9lvfD/iW0083mnzCz+2JKGKeYApGPlbeowDx0xmusi+PNy+pa5IfDt1/Y3hy7ube+1FbuMhBEocFY2w7FuBtxgcHceQMZZXWXvR/pWX53P1TD+JeVTnyVW4WdtU3715KSdtlFxd3tbU9GIwOh/Kkx09+leV6Z+1JpxuYPttvYLBdadLfxtp2pLfPF5aeY0UqBU2PtzjJIyCM8HE/jr4meKbb4Q3uvWek2Gm79PF5bztf+bJDu2FQ6GHBYqxOMkcEEio/syumlKy6LXudL8Q8nnQqV6DlU5IuTUYu6SV7vor9D03qOh/KjPHt61wEHxW1S0n8OaVLpdjc67rsDXEYXUCsCxJGrNK7+SCGJOAqoe/PFUH/aMeebSLez8PXV5qmp3V5p8tqLpI2t7i2QMyb2ADKcj5sg47E8Uf2XWbtHXzv2/wCGZo/EDJ4L9/KUXpo4u93y2j62nHTzPT8Z+voOaT/9deaXn7RP/CO2/iRNf0ZtKvvD9tb3S2ouhP8AbBNhVCMEA4kKoxGQCepIr0PSLma+0q2muIPstxLGskkAfd5LFQSu7AzgkjpWFbCVKS5prQ9XKOJcBmVR0sJJuUVqmmmtXHVdHdPTyPln/gqB/wAevgj/AK63n8revvf9mX/k234ff9i1p3/pLFXwR/wVA/49fBH/AF1vP5W9fe/7Mv8Aybb8Pv8AsWtO/wDSWKvp6n/Inoer/Nn+Pn06/wDkqq/+OH/pqJ29KOtJRXhn8Drc4+9/Z68A6lfSXVz4G8HT3UrmV55NFtmkdycliSmSc9+vvXVWOmW2m2CWtvbw29rGnlpBGgWNF6bQOmKmorV1ZvdnbUzDFVUlVqSaWybehy9r8EPBdlpd5ZReEPC8dlqBQ3VumlQLFdFDuUyKF2vhskbgcdRzWh4h+HXh/wAXaJBpuq6Fo+p6dalfJtbuyjnhh2jau1HUqMDgccVsUU/bT7v7xvMcW5KXtZabau68zmr/AODHg/VNNsbK58KeG7mz0zP2OCXS4GitM8ny024Tnn5cVpab4J0XRtfudVtNH0q01S9QR3N5DaRxz3CjGFdwMsMKBgnjaK06KXtqnWT/AOHFPMcVOHJKrJrs2/xMzxF4I0XxdNZy6ro+l6nLp0nm2r3dpHO1s3ByhYEoflXlcH5R6VZ1nQ7LxHpctjqNna6hY3CeXNb3MKyRSrxwynII+tWqKlSkklfYxWJrRUYwk/d212/yMGy+FfhjTp9Nlt/DmgwS6OrLYSR6fErWQYlm8ogfu8kknbjJJPetbVdHtNd02W0vbW3vbWdSksNwgkjkU9QwPB/GrFFHNJu7eo5YyvKSnKbbWzvr/XU5zwx8G/CHgnUReaL4V8OaPebSnn2WmQQS4PUbkUHue9Oi+EXhO3vr+6j8MeHkudWjeK+lXTYVe9V+WWVtuZFbuGODmuhoq/rNVvm5mbf2pjOZzdWWvm7lTQtAsfC2lRWGmWVpp9jbjENtawrDFEDydqKABz6CrdFFZXu7vc5Jzc25Se+oUUUUjMKKKKACiiigAooooAKKKKACiiigAooooAKKKKACiiigAooooAKKKKACiiigAooooAKKKKACiiigAooooAKKKKACiiigAooooAKKKKACiiiqh8SNaP8AEj6o8W/4Mt/+Uq/xC/7JbqP/AKd9Hr+nmv5hv+DLf/lKv8Qv+yW6j/6d9Hr+nmv2VbI/vWOwUUUUygooooAKKKKAEYZWvyA/4PUYxH/wS08BdTn4q6d3/wCoRrFfsBX5Af8AB6t/yiy8A/8AZVdO/wDTRrFAHAf8EFv+CC37KH7aX/BKH4VfEz4l/Cr/AISTxr4l/tf+0tR/4SbWLP7R5GsX1tF+6t7uOJdsUMa/Kgztyckkn6//AOIXP9hT/ohv/l5+If8A5Oo/4Ncv+UFPwN/7j3/qQalX38TgUAfAP/ELn+wp/wBEN/8ALz8Q/wDydR/xC5/sKf8ARDf/AC8/EP8A8nV9/buaTfQB8Bf8Quf7Cn/RDf8Ay8/EP/ydR/xC5/sKf9EN/wDLz8Q//J1ffu+gSUAfAX/ELn+wp/0Q3/y8/EP/AMnVoeFP+DZj9h3wX4p03WLP4E2Et3pN3FewJf8AiXWr+1eSNw6iW3nvHhmjJA3RyoyOMqykEivu7dSK+5qAEVMN7dh6U+iigBDyK/FL/g4W/wCDZm5/aw8T3fxs/Zw0bT4viVqt2r+K/CAuYLC18TPI4DajbSSskMN4CxadXZUuF3SArOHF1+11IRkUAfgJ/wAEVP8Ag588U/D/AOKml/s//tgv/ZP9k48N2fjjWYZrTVNK1CGV4/I8Qec3+7A10UjeJ4Q1zv8AMmuYv36EgJr8sv8Ag4T/AODenS/+ClPhS7+KfwttNP0b4+6NaqJYi6W1r48t4k2pa3LnCJeIoCQXLkKQFhmIjEctt+ef/BFX/g5b8U/8E7JNM/Z8/aR0TxBqHgnwzqv9hQ63drMmu/DuCLzIZLO5tGjMtzb28qxqIspPbRrKiLMEgt0AP6W6KzfCXi/SvH3hfTdc0LUrDWtF1m1ivtP1CwuEubW+t5UDxzRSoSjxujKyspIYMCCQa0qACiiigAooooAKDRSN0oA/mN/4POWx/wAFYfhyeP8AkmGmf+njWKn/AGg/j5rHgXx74P8ABnhS0sL7xR4suS2L5HeCytkB3zOEKscYY5z0jb2zW/4POjt/4Ku/Drjp8L9MH/lY1euYtVF5/wAFL5ft/wDy6eFQNPyODl1346/3pP1+lfqnhtia1NTo0XyupOnFtdveb++1j8U8XMvw+IqYfEYqPOqNOtPlezaULX8k3c941nxRp/g3Rftut6lp+mwIAstzczLBBuPGdznAzzgEk9smo9B8e6H4p0OTUtL1nStS0+LJe7tbuOWBMdcupKjHfn9K+cfjLZWXjn/goJ4S0LxiqXPh1dIabS7K8GbW8ujuGCp+VySuMHrsQegNH9vDw3oHw6+HWn6X4et7DQtD1XX7WLxJFpirCkcW1tm9E4QFQW4AyVB7Cv2StxXXpwr1owjy05cqTfvN7XfkfznhPD7BYieEoTqT9riEp3SXs1F392+7lZaeeh9K+FPid4Z8dXM0OieItD1ia25lSxv4rhohnGWCE4/GmXnxU8Maa+oC58R6FbtpBVdQWW/iQ2BY4USgt+7yc43Yzg180/tH+DPDvwk+Ofwcufh/Zafo2s6hqCwvHpKKn22yYopeQL99SGcbmyWBbJPZ37Pfw00H4hftmfGo6/oum6ytreQiKK+thPHHuL5bY2VzwOcZ9CMmuWnxfjZ4hYNQjzuTTab5dIcya/Jnc/DbK44WWYzq1FS5OazS501UUHptbW6Z718VP2gtB+HHwevfGMV/pmp6fbxFrUxX6LFfvz+7jkG5Wbg8Lk/KeKg+C/7Snhj4xeArXWYNY0S2uGtBd3lkuqRTSacvT97gjbyRyyr15r5K+FXh6xl/Zc+PWly2kFxp2i38klhBLGHW0kAkUOobOG2qBuHPXnmvQfBureAPhB/wT6sfFVx4U0jVlvdOis79LWJLeXUZPOCmOWZRuIDrk5z0HrXBh+L8fUruvPljBUublbe+q0fy+49bF+G2U0cE8LTVSpV9tGCkrXtKKaTW1tfv8j6R8P8Axk8I+K9V+x6V4p8Papd8/uLTUYZpDjr8qsT2Ncwfih4nP7Tn/CK+V4a/4RoWJuTIL+M6mG2ZyYfO3bN3G7yse9fH3x+0PXfDV38OPFD+Hfhl4MS+1OC409fDhePVHQhXEkhU+W0Y+T5hkhiORkivd3Xd/wAFPUzn/kWu474I4P0qlxfiMS4QkuVqok7Xs04t+vQ0n4aZfl6nU5udTo1HaVm4yi0tGtL6nuE/xn8HW+mS30nivw3FYxT/AGV7htThWKOXGdhYtgNj+Hr7VrSeJ9Ng0D+1W1CyTTPKE32xp1FvsPRvMztxgjnOOa+QP2PPhB4Z8e/Cn4qXut6Bpeq3iapexRzXUAleBRFuGxj9w7iTuTByBzwMch8NvAup/F/9hTw3oVjr+nWeoJ4juWsrHVJzFb6mE+byM/3ssSFJ5ycetb0+Nsb7P2lSjG8oc0Un2aWt/W+h50/CvKnXlRpYiadOcIybSatOLldW6q3X1PuHwj8TfDfj2aRND8Q6JrTQDdIthfRXBjHqdjHHJHWua/aa+O6fs4fCm78USaadXS2niiNsJ/ILb2253bW/lXjn7LXj9NH/AGgJfBniL4Y+G/BnjGDTGlW88PpGttcQna/zLGSOQMhi7EYxxk1vf8FP0z+yVqw/6fLX/wBGV6dfiCtXyCrj6TSnFPa+j+Z4b4JwuB4uwuVV05UqkoaSa1TfePT7ivrn7dmt/DvR/DuteMfhrqGh+GPEbRiDUYNZhvifMTehMaqpGUycMQeDwSMV73r/AIx0nwlpAv8AVdTsNMsmwBPe3CW8eW5UFnIGce9fFP7QPw98W+D/ANlrwb4x13xxp3inSdEj0+8tPDt9pKWtvOZERVTfFIrTMiseDglFY8c56vWdetfjx+2L8Ov+Eys4/wDhHtV8Lx6npulXmHtJLqWIuy4YbZDuzweTsUdMCvnMu4uxtLmoVfek3FR5rac17ttdNNOp95n/AIb5VilTxGEiqcIe05/Z3bfJZqMYy15rbvY+rvC/i3S/Geli90bUtP1eyclVuLO4SeJiOoDKSMjI49xWenxY8LHxONFHiXQP7ZL+ULD+0YftW/08vduz7Yr5H1ia4+Fn7Q3xk0r4db7PTIPCr3M9rpwxDZXapH8yIvEbqHkIA+6S3ToKl78N/AEf/BNyPxJHbaX/AMJC0SyDVgFF+b7z8GPzcbjj5hs/ujP+1XcuPMTJPkpx9xNyu9+Vte532Pnl4T4GPJWnWm4VnBQSiuaLmrp1F0S8t/I+g/i7+2F4f+EXxo8OeD71tLI1kN9ru5NTSAaSBhl84HONwORuZevp19V0LXLDxPo8V9pt9a6lZTjdDc20qywzDJGVZSVPII4PUGvij4i6Tp+v/HL9nm98W6bps974i02Mau9/aIx1CQxoiGYMPnPIA359u1fa2heH7Hwxo8Njptla6dY2w2xW9rCIoYxkkhVXCjknp3Jr2+FM1xmNq1/rDVlLRdUrKy9NfvPn+PuG8syrL8J9VjL2jT5pacjalKLfrdaW6eZ4z/wUq/5Mq8c/9c7T/wBLIK96/wCDYMn/AId9+J8Zz/wnd7jH/YP06vBf+ClJz+xV45/652n/AKWQV71/wbBcf8E/PE//AGPd7/6b9Or+Kvp0K+Q1V/dp/wDpZ/W30PP+Ra/+vk//AEmJ9I/8FQP217/9hT9l+TxToOnafrHi7VNTttG0DT71XeG5uZW3EMkbK7ARpIeGHzbBkZqn/wAEqf25tT/by/Zyu9d8T6Xp+heMvD+sT6Nrum2cUkUUEibWQrHKzOgKMFIZidySenHyb/wUV8eeMf2mf+CsvgDwV8P/AAI/xOi+AUCeKNW0RdZt9JiuLmRopF3Tz/uwEzacYYtukAHUir+w38SfGP7Mf/BZHxXoHj34dN8KrT9oeyOrWeijWrfVYYL2LzJPMFxBiM+ZIl38hCsGlQYxjP8AFOC8MMvnwRFSpx+uuPt78y5+W+keW9+V07z23P60xudVYZo2m/ZRai10u+t/J2R6L8EP27vin4x+Bf7Z2taj4lFxqPwk1PU4PC0v9nWif2YkC3RjG1YgsuPLTmUOTjnOTXun7Jf7aun6f/wTh8BfFr4yeL9M0yTU7ASahql3HHbLPM0soVUihVVLFU4SNMnacDg18X/s2Jv/AGZP+Cio9dY1r/0C+rjPEkUfhz9l/wDYB8W+LreWf4S+H9QmHiJ5YzJZW0r3StA86f3dscpyf4VcDO7B+mz3gLKczc8HKmqadePwKKk1HDc/JHzk1ou7ucNDNcRRftk3Kyqaf9vpX+S/A/T39mb9vr4P/thajfWPw58caf4hv9NTzbizME9ndKmQDIIp443ZAWUFlUgEgZyawPjJ/wAFTPgB8AviLJ4T8VfErSLHxBbv5dxawW1ze/ZHzjZM8ETpEwPVXYFepAHNfJvxz8e+Hf2lv+Cz3wR1H4J6xpPiW/8AD+gX0nifWvD10lzaQ2ZilSKOeeJih27mXBPHnRjqQBS/4IsfHf4V/s1/s7/EPwr8WfEHhTwX8TrfxLfL4qt/E13DbX2prtAUEyndcqMSrsXdyz/L8+W+HxXhPkeHoTzX2Vea5IS+rpr2seaU1eTtsuW/w/aR6iz/ABTqKg3He3P9nZP79bH2R8dv+CmHwN/Zr1ewsvGnj+x0q71Sxi1K1ihsbu9aW2kyY5cW8UmFYKSCcfqK5n4/f8FQfhx4R/Yf8TfF/wAD+LdC8Q29mkthpDeRcTRTar5ReC0niQLLFvIGd/l/KwJYAg181fF79vDWPFv7dvin4beDPH/wk/Z48J6H4csbmPxfreiwPfeIIZLWCa3ih+0tHCUWOcbImwVUMfmyQnjX7AenSv8Ase/t+WEOp/8ACTIsF20d5baYNPj1HMGobrhLRQFgDhQ3lgAICAMAAV7WV+EGRUcuw2ZY2E1UUqMpRck1KFSSWvupLR6q7fexlW4hxH1j2EHo7x0WzSbv57H1P8E/+CtOkftafsMeJb/QvHPh7wr8Z9E8IXeuapjRL/8As3w60T48795BcCRFBQlU85ju4BxivY/2cv2s9N+Hv7A3hH4jfF/4meGNRW6tna78TQwPZWeqO083l+RA1vBIW2Kq7BAGJjJCkZY/Lv7Nfx98GeP/APggTr3hXSfFGh3nirQPhzq6ahoa3sR1GxCGdS8lvu8xUyUwzKARInPNeIeI7ePw1+zF+wD4t8XW8s3wl8PahKPELyoZLK2me5QwvOn93EcpBI5VXA64Po47w8ybGxrZfToPD01iZK1lzyUacpcsG0mlNq0VqvU4qWcYqlCFaUueXs7287xWvmr6n6ffsz/t9fCD9sHUL+y+HPjfT/EV/pi+ZcWZgns7pU4BkEU6RuyAlQWVSAWAzk1yHiP/AIK5/s6eE7HV5tR+J2mWp0PU30e8t2sbz7UtyhIdUgEPmyIpGDIitGCQN2SK+ZPiz4/8LftI/wDBbX4C6n8HNW0nxTP4d0e6l8Waz4fukubOKy2SLHHPPExQ4DMuCePOjHcAXP8AgjT4Y0/U9M/awkuLCzuJL7xtqNpcPLbrIbiDEp8tyR8yZZ/lPGWPqc/LYnwu4ZweHqZpioVVBQpy9k5JTi51JQak7dbJp2Wj2PRpZ5jJ1Vh4crblbmS0+G/39D72+Dvxk8K/H74e6f4t8Ga3Z+IfD2qpvtr21Y7HwSCpU4ZWBBBVgGBBBArqB0r8/wD/AINs55Jf+Cd13vd2Efi/UFRWJO0eVbEgenOSfc19/nO4elfh/H3D1LI8/wAVleHbcKcmk3v5X8z6LJcdPGYSFepu/wBB1FFFfGnsBRRRQB8gf8F6f+UTnxY/3dK/9O9lXx5/wQN/5My1z/sbrn/0jsq+w/8AgvT/AMonPix/u6V/6d7Kvjz/AIIHjP7GOudv+Kuuf/SOyr+w/DP/AJNdif8Ar+/ypnk8Pf8AJY0v8D/U+1tV1S30TTbi9u5ora0tInnnmkbakUagszMTwAACSa8s+DX7ZvhX40/BzXPiBbWfiDRvB2hNPu1LU7NUW8jhBMs0McbvIyLjGSoJOQASGA47/gq346ufAv7C/jWWyeSKbUVt9PLr2jlnjWRT7Mm9T/vVZ+KPgW0+GP8AwTF1zQLGOKO20vwBLDhAQHb7GS0hx1LNlj6lskc11ZPkeEq4GniMRfnq1VTVnslZyfq7pLsfq+aZziaWOlQoWUYU3N6bv7K/BnqfwS+PnhD9ozwa3iDwZrUOtaTHcPavOsUkJSVACyskiq4OGB5HQg9DWJ4C/a7+HvxV17xRpfhvXxrWo+Dklk1WC3tZl8kRsyttd0WN+VONrEHGelfmr+zx8V/FP7C/wZjh0a11LUrb47eGo38OrG2FsdaE/wBkfBJ+9tbzM8ZPkrjHI9d/4JWfCR/gF+1d8cPCpu5bq50LSbeGS4PBeUfNIwIHA8zOO445OCT9nmHhzgsLTxWI524Rs6euu6Ur+jdj43L/ABDxmIeFo+ztOTtPyum429VqfZv7Lf7U2gftc/DS48U+G7PWrHT7e/k05k1OCOKUyIiOSAjuu3EgwS2eDx0z6SGOO3+f1r8ydB/aB8dXH/BHPX/FX/CZ+Kv+Enj8Ui3TVjq85vkj86EbBNv3hcE8A45PrXtXi/4bfFP4efs6+Nvibr3xh1rV7m88CsLPSbG3k0+DSZmWKRJo2E7EyqFI8wrvO8nd2rycx4BoLEzdOsqUPaOnGLu22uX79+p6uXccVZUIKdJzlyc7asla7W3yPs1vlfbg5oHJHX06Z59K+GfgLZfFXSv2bPDfxy1/4q6nrmm+F/Cl3qSeFPs8qQ6mRbTBDdXBn3TPv2uWdGwR8uK5jR/C3xR8VfsQTftAt8Z/HUHjMW0mtxaVDeBdBWCOZlMDWm3YSUUnn5ckDB61xvw+Sm4PFxtzKF0n8bv7v6t9L9TqXHblCMo4aV3FytdfCrXf46I/Q3P/ANf2o3ZJHce9fn98XP2lPiL8YviR+y9deGPEs/hK9+IOmyzX8Mbyy6eZwqoXktlkVZlUhyiv6gHIzn66/Zj+DXib4I+DNRsPFPj/AFb4i6jf6lLfDUb6JoWt0dUXyVQyybUBQkBSoG7AAArxc54T/s3BrEYmvFTd7Q1vpJxeu1tLnq5RxVHMcU6FCk7K15dNYpr87Ho6528j0rM8YeLtO+H/AIR1TXtWuVtNK0e1lvbucqSIoo1LO2AMngHgDJ7c18k+MfEni39rz9vnxX8Lrfxt4n8A+Dvh/pcN5OfDV59i1DVJ5ViO5ptpKqPOxt5GEHGWJHkPjbxL4u8UfCX9or4P+KfG3ibWo/hVbjVtL1qK78q81G3Mbr9lvn2kzxkSISDyWB+YjaB7mW+H6qyp+1rJNqEpRs7qE2kmntfVaHmY/jlUXUVOk2k5RUrqznFN2a3S03Psf9mL9szR/wBq6a5k0Dwp4903SIYmmt9Y1fSVttO1ELJ5ZEEokYSNnPGBgA5wRivX1bd2r5f/AOCSXwubwZ+yP4b1w+J/Fmtf8JJYo4sNU1H7TZaSI5JVC2kW0eSrD7wyc7V6Yr6hU5r5nizC4PDZpVw2BVoQdtb7rfc97hTF4zF5bTxWN+OavpbRdNj8lP2oOf8Agt34g6j9zb4x/wBgSKvQvEnwog8QeO7TxHHqmq6ZqdnatZo1r5JQxsSSCskbg9f0rz39qH/lN3r/AP1yt/8A0xxV7ZX73UqzpYPAzg7P2FP8Ynv+CmV4XMMszOhjIc8VjKj67rkaenY4k/APQjokNnu1DK6kmrT3LTh7i9uE6NKxBBB7gAD0xWrpfww0vTdP161YTXlt4iupbq8jnYEM0gAYDaAQMD1J9CK6GiuN4yu1aUr/ANL/ACP2qlwplFGXPSw8U0rX8tV+Un97ucjp/wAIobTSLbTLjWdc1DR7aE2y2E8kQieMxmMIzJGrsADxljggHqM02H4NWx8MSaLc6xrl9pb2TWCW00kQWGM7cEFI1LMuwAFy3GR3NdhRVPHYiXxT1MKfBeSU48kMOkttL7O109dVptsccfg3bt/ZEv8AbWt/2hoO5LG+3QedFGyBGiYeVsdcAH5lJyOopNH+Bui6HqGh3ULXon0Ka4uEkaRWa6knULI8p2/MSBnjaB0xiuyo7/8A1qJY6u1y839f0yqfB2TQmqkcPHmTWuv2bWe/Tlj9yPMfij8G5PiF8bfCOqtbFdO0dHkv5vOXFwVYPDCUzk4cbjxjB9q9OxzQP880VNXETqRjTe0dF+Z15bkOFwOJxGLor368lKT9Ekl6afe2z5R/4Kgf8evgj/rrefyt6+9/2Zf+Tbfh9/2LWnf+ksVfBH/BUD/j18Ef9dbz+VvX3v8Asy/8m2/D7/sWtO/9JYq+nqf8ieh6v82f47/Tr/5Kqv8A44f+monb0UUV4Z/AwUUUUAFFFFABRRRQAUUUUAFFFFABRRRQAUUUUAFFFFABRRRQAUUUUAFFFFABRRRQAUUUUAFFFFABRRRQAUUUUAFFFFABRRRQAUUUUAFFFFABRRRQAUUUUAFFFFABRRRQAUUUUAFFFFABRRRQAUUUVUPiRrR/iR9UeLf8GW//AClX+IX/AGS3Uf8A076PX9PNfzDf8GW//KVf4hf9kt1H/wBO+j1/TzX7Ktkf3rHYKKKKZQUUUUAFFFFABX5Af8Hq3/KLLwD/ANlV07/00axX6/1+QH/B6t/yiy8A/wDZVdO/9NGsUAfQH/Brl/ygp+Bv/ce/9SDUq+/J5lt4Wd2VEQZZmOAo9TXwH/wa5f8AKCn4G/8Ace/9SDUq+6vHH/In6l/17Sf+gms60+Sm59hxV2keIt/wVd/ZcSQg/tJfAQEcEH4g6Tkf+TFer+Gfjd4N8Z/C9fHGkeK/DereC3tpb1dfs9Thn0treLd5k32lWMXlpsfc27C7WyRg1/Op/wAEHviz8FvAn7IeuWfxC/Yb+KP7R+tnxZeOnijw78GbHxha20JhtwtobuZgyuhDMY8YAlB/ir7w/wCC5f7Sth8M/wDgjt4G+Gfwn8AXfw21b9pC6sPCvh7wZNo8Wh3uhW906zXMEtlECkMmGEEkY+610Tknrc04U1yrXT8RRjzVLdFe/wAup+mnwa/aB8CftG+F5Nc+H3jXwn470SGdrV9Q8Pavb6naxzKFZojLA7qHAZSVzkBh6ivNtR/4KmfsyaHfz2l5+0X8CrS7tJGhngm8e6UksLqSrKymfIYEEEHkEYr81v8Agiv8Obr/AIJBf8Fdfij+yPquoTXvhj4ieHrLxn4PvJ5eZ5oYWFwijaAWYfaAT6WK+vGR/wAHan7G3wg+B37A3hvxN4L+FXw38I+JNU+IdlFe6tovhmysL68SSz1CSRJZ4o1kdWdUZgW5IBPNVOFpRUHpK1vVuwU/elJdV+Vrn62fBX9s/wCD37Smu3WlfDr4q/Dfx7qdhB9qubTw54mstVntotwXzHSCV2VdxA3EAZIGa9NRsH8a8m/Zy/Y1+EP7OLtq3w9+Ffw38B6pqNotvd3nhzwzZaVcXUWQ2yR4I0Z13AHDEjIBr1lRyDRNKMrIzpy5lzdOg+iiikaBRRRQAjrvXFfCH/BcH/ghx4N/4K6/BxLq2fT/AAt8Z/Cto0fhfxPIh8uePLP/AGbf7QXks3dmKsAz27uZIwwaaGf7vJwKb5gceucEe9AH8u//AAST/wCC2XxO/wCCB3xn8T/s+ftD+FPF9/8AD3QbueOfw9GIpdZ8G37AyiSw8yVYZrO5Lq7RiUROJluYZPmkW5/pa+AH7QHg39qb4OeHviB8PvENh4p8H+KrQXumanZsTHcRklWBVgGjkR1ZJI3CvG6OjqrKVH5A/wDB2H+0x+yBL8G9e+H/AIu0jTvF/wC03aWth/wj8mhRrBrPhiNzNNC99qPlOoswkksjae7M8ou4XWOLzI7yHgv+DLb4L/Hnw3Y/EDxrqNzqGmfs5eI7R4dM06+kxHrfiCOeGNr+yiKkiOKCKe3mmVkSVzDH++a2b7OAfvZRRRQAUUUUAFIelLSE4FAH8xf/AAeejP8AwVc+HX+18L9N7/8AUY1ioP2iPhF4jf4xeDPiF4Ps01HVtAZrLUrH7RHbm9sX3bgrOQoI3OBz1dTg4xVj/g85/wCUr/w5P/VL9N4/7jGsV7EvC8/Nxjkc/wCeK/Z/CXLIY2GJhN25XBp+avY/nXx5z2vlNXA4mklJP2sXF7SUlFNM5X4lfBvwz8atJt4fE+hQagLf54xLmOSBiBuCuhBHYHa2OO+BVXw3+zx4J8K+CL/w5Z+HrJdF1Mk3VtLumFweMFi7M2RjjnjAI5Ga7McewPXjlsUbeK/fXk+DnN1J005S0btv6n8mriPMqdH6tSrSjTTuopuyd+hwHwy/ZZ8A/CHXTqfh7w9bWOobCi3Ekslw8YIwdplZtuRwSuMgkVueGPhL4f8ABXi3Wtc03Txaar4gZWv5xNI32grnHysSq/eP3QK6M8UHnFaUspwdLlVKmlyt202utfv1FieJs0xMpTr15Sc0lK7eqTul6XRynhT4F+FPBFnrlvpmjQQw+JHaTVIndpkvCwIYMHLDB3NkDjB6VgeHv2Pvht4Z03VLO08L2yWmsxeReRSTzTJKgYOOHc7SGAIK4IIGCMV6W5w1CDP0rF5HgZJKVKPu6LQ0hxZnEOZxxE/fs3q9Wtvu0seXWf7GHwystKgs4fCllHHbXK3kbiebzBKoIU79+8gZ+6SV5PHeuvPwo8Pj4kDxd/Z6/wDCQ+QbX7WJZAfK6bNm7y8e+3PvXQ0o6fWqp5LgafwUkkvz/q48TxXnFZt1cRJ7rV9HuvR9Tl/BXwZ8NfD3R9U0/RtMWytNalkmvEErv5ruu1j8zHHGOmB7Vit+yr8Pj4BTwufDVs2hRXLXcdsZ5WMUrABmWQt5gJx2b8K9C5c0hPFE8lwUoKnOlFpKy8le5EeJ81hN1FiJKTab1e8VaL+S0OP+F37P/hD4LSTv4Z0O202W7UJLMrPJK6jnG+RmbGf4c44FafxK+GeifGHwtJo3iOxGo6ZK6yPAZXjyy8g7kKt19CK3Q2GoLZrVZbhfYPDci5H0toctTPcfUxkcfUqt1k7qV9V8/I8n0f8AYT+FGiXkVzF4PtGaEhkSe5nnjz7pI7KfxFdf8T/gh4V+Muk29n4l0W21OG1JaBmLRyQk4ztkQhwDgZAPOBnPGOpU880u75SK56eR4CFOVKNGKi+lt/U763F+dVq0MTVxM3OGzu9PT9TmPhh8GfDHwa0iey8NaRb6VBdOHm2FpJJjzje7Es2MnGTxk46muXT9jP4YJ4p/tgeD9N+2CXzgu6T7OG/64FjFjrxtx3r049KD1qpZLgZRjGVGNo7abEU+Ks2hVnXhiZqVT4nd6nJ/FT4FeE/jZb2kXijRbfVRp7M9szu8ckJbG7a8ZVsHAyM4O0ccCtrwd4N034f+F7PR9Itvsmm2ClLeEMz7ASSfmYlupPetItk0Z4rppYDD06rr04JSe7OKvnOOrYWODq1ZOnF3UW9E9f8AM8N/4KUf8mU+Of8Arlaf+lkFe+f8GwP/ACj98TdP+R7vOozj/iX6dXgf/BSj/kynxz/1ytP/AEsgr3z/AINgf+Ufnib/ALHu9/8ASDTq/wA//p0f8iKr/hp/+ln9+fQ8/wCRa/8Ar5P/ANJiffPhj4ReE/BXi3Vtf0bwt4d0jX9fO7U9SstNhgu9SOSQZ5UUPIcknLE9T0pni74LeEPH/ijSNc13wp4Z1zWvD8gk0q/1HS4Lm60xgwbdBK6M0R3KpyhHIB6iukXg0rHae9f5ELN8fGp7eNWSmla/M72ta177W09D+6nh6dnBJWflv1OU0z4C+BtH07xDY2vgrwla2Xi53l16CHR7dI9bd9wc3ShMTlgzZMm7O45zmrUHwh8KWvw4/wCEPj8MeHU8J/Zza/2INNhGmmEkkx/Zwoi2EnJG3HPSuiByKBzWk86zDmbdeejuveb1Stffe2l+iJVCktIxS+Rynwv+Bvgr4JWdzbeCvCPhjwfb3z+ZcxaJpUFgk7jgOwiRQxA4G4HtzVHx5+zF8N/in4ni1vxP8PfA3iPWYNoiv9U0K1u7mMLjbiSRGbjAxzxgV24jxinA81os/wAzjWeJjiJ87VnLmd3873EsHh+XkUVbtY5DxT8AfAfjzxPpmt634I8IaxrWhhBpuoX2j29xdaeFbcvkyuhaPDfMNhGDg9queDPhJ4V8A6jrN7ofhjw7od54in+1atPp+nQ20mqTZY+ZOyKDI+Xc7nyfmPrXRKu2gcFqJ57mdSn7GdebhppzO299r9/xGsNRUueMVfvb5Hnvh79k74U+EH1b+y/hn8PtMGv272eqfZPDlnD/AGlA5y8M+2MeajfxK+Qe+a6CD4ReFLb4df8ACHp4Z8Op4S+zm1/sQabCNN8okkx/Zwoi2knJG3Ge1dEo3ChhupVOIMzqtSqYicmmn8Tdmtmtd13FDC0FpCKXy+85b4X/AAN8FfBC0urbwV4Q8L+Ebe9cSXEOi6VBYJcuOjOIlUEgcZOT71P4N+EnhT4brqqeHvC/h7Qk1y4a71IadpsNr/aMxzmWbYoEjnPLMCTk810QXBpQ2e1Z184zCq5urWlLmte8m27bX11t0KhhqMdIxVvQwPhx8KPC3wb8PtpPhHw3oHhXSnma4ay0fT4bG3MrABnMcSqu4gAE4ycDnit/vSZOfanVx4jEVcRVlWrScpN6tu7b87l04RgkoqwUUhOKUnFc5sFFITilzTEfIH/Ben/lE58WP93Sv/TvZV8ef8EDl3fsZa7/ANjddf8ApHZV9h/8F6f+UTnxY/3dK/8ATvZV8e/8EDf+TM9c/wCxuuv/AEjsq/sLw0/5Ndif+v7/ACpnlcPf8llS/wAD/U+h/wBtn4GTftFfsueMPCdooa/1CzEtkpON1xC6zRrntuZApP8AtV57+y942tv22/2CJ/C0l62j+IE0STwprkcsJefTrlYjAZWiLKSHAD9RySuQVIH0uV3DH50Y75yfU/5/z+Nc2C4g+r5f9Ua96M1OD/lez9U7L7j9pxWSxr41YtS0cXCS7rp936nl/wAC/wBlrQvhF8HPBHhbVINJ8V3XgVWOnaneaZGJbeQyGTzYgxcxPnbyrZ+Uc1hfCf8AY1X4W/tFfErx+PEP25viJGENibDyxYYOf9Z5h3/98rXtrYxzQxxWP+seYc1WTnd1NJdtWpaLpqr6Gn+r2B5KUFD4LW+SsvwPlLT/APgmAlh+xBf/AAY/4TYtHfav/av9rf2P9z50fZ5Pn8/c+9v79OK9v+JfwNHxF/Zu1D4etqZtP7Q0VdHN/wCR5mzEYTzPL3Lnpnbu/Gu/oIzV4jirMcRONSpO7U3UWi+J2v8AkjPC8NYDDpxpw3jyb/Z7fieffBz9n6x+GX7OOkfDfUZ4/EOmafpZ0m4eW38pb2JgwcFNzbQQx/iP1rwQ/wDBLnWIPA9x8P7T4yeJLX4S3N157+HBpNu10sZk8wxLek7gpf5sbNpycqep+uznPtQDkVrguLMywtWpVpz1m+Z3SfvfzK+z7NE4nhnAV6MKVWGkFZWbTtbbTo7HhPjb9hjTNe+Lvwk8RaRqo0LTPhLAbWz0lbPz1uotqqq+YZFK4A5JViSc9a91KfNn3zg80IpUU4cV5ePzbFYyMI4iXNyJpfNtv722d+CynDYOU5YaNua1/kkl+CPAfjX+w/ceMvjjF8S/AXjm/wDhv41ktRY6hdw6dFqNvqUIACiSGQhSwCoMnIwi8ZGazvBn/BOrTvCfwa+I+iT+J77WPGHxSikXXPFF7aq0srNuxsgDAJGCzHYHzlvvYChfo4DA4oHSvWjxlmsMPDDxqaRtbRX93VJvdpPpsebU4Ty2deWInTu3f73o3ba/mcL+zP8ABX/hnP4FeHPBI1I6wvh62NsLwwfZzOPMdwdm5sfexjceld0Bilor57F4uriq88TW1lJ3Z7eDwlPC0Y4eirRikl6LY/JP9qH/AJTea/8A9cbf/wBMkNe2V4n+1D/ym81//rjb/wDpkhr2yv6UxX+44L/rxT/I9PwB/wByzT/sLq/lEKKKK84/fAooooAKKKKACiiigD5R/wCCoH/Hr4I/663n8revvf8AZl/5Nt+H3/Ytad/6SxV8Ef8ABUD/AI9fBH/XW8/lb197/sy/8m2/D7/sWtO/9JYq+wqf8ieh6v8ANn+Ln06/+Sqr/wCOH/pqJ29FFFeGfwMFFFFABRRRQAUUUUAFFFFABRRRQAUUUUAFFFFABRRRQAUUUUAFFFFABRRRQAUUUUAFFFFABRRRQAUUUUAFFFFABRRRQAUUUUAFFFFABRRRQAUUUUAFFFFABRRRQAUUUUAFFFFABRRRQAUUUUAFFFFVD4ka0f4kfVHi3/Blv/ylX+IX/ZLdR/8ATvo9f081/MN/wZb/APKVf4hf9kt1H/076PX9PNfsq2R/esdgoooplBRRRQAUUUUAFfkB/wAHq3/KLLwD/wBlV07/ANNGsV+v9fkD/wAHqoz/AMEs/AP/AGVXTv8A00axQB7/AP8ABrl/ygp+Bv8A3Hv/AFINSr7y8R6c2saBeWqFQ9xC8alugJBAzXwb/wAGuRx/wQq+Bv8A3Hv/AFINSr7+YZWpnFSi4vqNOzuj4d/4IK/8E2PHH/BLj9j3Wvh/8QNV8KavrWo+KrvXI5vD1xPParDNDbRqpaeGFw+YWyNpAyPmPbhP29/+CKWrf8FMv+Cn3gvxx8XJPC2r/s6+BfDc9hbeF4NZ1CDVtT1CYOXmkEMUQhTe0XMdyWItIwRh2C/o3sOaXbxVNtyUuq2+635ExXLzed/xdz8nP2hv+DafQPgt+0N8Efil+x3pfhX4beJPhx4lGqa/aeIfEusTWuu2YMZ8pXcXboxVZY2ACqyTtk5UV7z/AMF9f+CZXj3/AIKnfsc+Hvh98PtV8J6PreleLLXXZpvEN3c29oYIrW6iZVaCCZjIWnTAKAYDcjAB+6glKaWyS7O44tqXN1tYqaRaGx0uGJsbo0CnHciranikKk0AbBzTbu7smEeWKih1FNEgY479adQUFITgUucU0tuFADWlDodpzj0r8kv+C63/AAcxeDP2I/C3if4W/A3WdO8WfHiO7m0XUb1LczaZ4FdUXzZZGdfJu7xS/lpAhdIpYpftGDD9mm8A/wCC6v8AwdUaWnhfxN8G/wBlzV9Qk1t7qbSdb+I9syLaQ24RQ40SVXLSSOzSxfbCqBBEz25kMsNzF0f/AAb1/wDBstpfgDwtafGX9qDwdp+s+JdZtCfD3w91+yS5tNEtpY8G61O2lUq946N8ls6kWyndIDcELagHiH/BBb/g3Gvf27/tH7Q37VkHiDUvCHi8z6nomg6hqN1BqnjaW53M2sX1wrrcpAzOZIsSCW5ciUsINv2r+inwh4O0vwB4W0zQ9D03T9G0XRbWKw0/T7G3S3tbG3iQRxQxRIAqRoiqqqoAVQAOBWgseHznPNPoAKKKKACiiigApDyKWkPSgD+Yz/g84Pl/8FXvhz/2TDTP/Txq9exDke5xx/WvHf8Ag86OP+Crfw745Hwv03H1/tjWK8J/bB8XL4f/AGt0T4n2Pia/+GKWSDS7fTpWW3kmKKGkkAZcsH8zIBDY2dVwD+seG2e/2ZSr1eXm5nBa6JfFqz8M8YeFVn+IwWFc+TlVWW15O3JpFXV2z7Y3rIoIIx65yKB0x3r5u/Z18S/CjwenirxZ4E8U6i+iadpjT6locsszi1CYcSxxy4bOFYZO4EuACvSs67/az+Kh+EjfE+Dwv4PXwKp802D3Nw+qG28zy9+4YixnOMrnA+6etftn+ueDpU4yxD96Sb933klfe66H83VfCvH1cTOjgX7kWleouR8z1Uba3f4ban1ER8wHFDLtfH5dq8H8Zftbal4o8UeFfDPw50uy1PX/ABTpqat52qM4tLC2YbgZNnzE4ByB0wuNxYV5p+3hq3xXX9me7XxJbeCreG31CFbq402W4JuAWHl+Sr8oQ28OJOo27cUZhxphqeHq18PCU1Ddpe7e60v+ZhlXhlja2LoYfG1I0XVaXLJ+/a9rqPrt39D7EMePzxyKG+6D68da+c779oTxt+z38CrO/wDGFj4X1TV9U+yWPh2z0T7QPPZo8/vzLyMDb9z7x475FuD9o34g/Cb4leF9J+J2jeGU0/xjILWyu9Be4P2Oc4xFKJSc/eUfLxySCcEVt/rhg4yUKsZJqyd1pFy2Umc78NMz950ZQmk5cvvaz5VeXIutuvnsfQKrluOfpzWU/jXRh4nGinV9LGsMnmiwN0n2kpjO7ys78Y5zivn1/wBrP4jeKPi78QPCHhfwfpevXfhm5jhspDMIEiRiwZ5zJKu48AKqBc/NkjGC/wDbd0++8K/Djwh8UvssNp4u8F3VpNdmE4UxykLNBwTlPMIA5OAWH8RrOpxZTnh5YnCRcoQa5rprS9pNeatc6cH4cVqeLo4XMqig669zlkm+ZxTjzLdJ3S/4Y+k2NNqHSdRi1jSrW7h3GG5iWZCRgkMAR/Opq+vpPmgrep+a1qTpzlTlumFFFFWc4UUUUAFFFFABRRRQB4d/wUo/5Mp8c/8AXK0/9LIK98/4NgRn/gn34m/7Hu9/9INOrwP/AIKU/wDJlPjn/rlaf+lkFe+f8GwHP/BPzxN/2Pd7/wCm/Tq/zz+nT/yIav8Ahp/+ln+iX0PP+RY/+vk//SYn2j4r/bQ+D3gDxHdaNr3xX+G2h6vYSeVdWOoeJ7K2ubZ/7skbyhkPsQDVn4fftcfCn4s+J4dE8K/E34feJdauEZ4rDSvEVne3UoUFmKxxSMxwASeOACegr5d/4La/s0fDm3/YD+K3jSPwD4Jh8YtHZTf2+mh2q6n5jahaozfaQnm7ijFSd2SCQeDXd/8ABO79nL4f+B/2J/hZ420PwN8PtF8av4Gsbo+IRotrb3ZmksU8ySW5VBJhiWLksdwLZzk1/m8uD+GanC0c8pzr88p+yUfct7TlTv35dfU/s+pjsZHHfVUo2a5r67Xtb1Pqg53/AOz0/GvPviR+1X4C+EXxb8I+BfEWvf2d4p8dyGLQ7E2VxL9uYEAjekbInJH32WvzA/aT/wCCnvxD/Zt8OjW9F/a9+HvxQ8U2dzF9p8Had4ET+yrhd6iRYdRhQ71HJyZIyy7iDnAPbf8ABRHxtrfxb/bq/Yk8R+GRpeka34otF1Ky/tKFrq1snuBbyDzERo2kC7ugdN2MblzkfTYHwJrYfFUVmVVSo1YVWpR5o2lCm5K/NFO199NVc8/E8UwVGo6UffhbTfRyS+/U/UsNuP44/GuB+Cn7UHgb9ojWPFVh4O1v+17vwTqTaRrUf2Oe3+xXKlgUzKih8FGGU3DjrXyV4F/aQ+N37LX/AAUz8I/Bn4oeOtM+KPhX4naTPd6Tq0Ph6DSJtLnjSZ/LCQ9VzDtO5nJEkbAqQwPi37HX7UcX7GHw0/bh+I32JdQn8PfEGUWdq7kJPcS3U0MKsQQdgkkUtghioIBziuGl4LS+qYhxqKrUapOhKD92XtJuGt0no1boaviK9WEOXls2pJ9LRvdH6uDOeeB9P0pCfm6jjOea/JTxx/wU1+LHwO+DXhT4wS/tG/Bn4jzarPaXGt/CzTrXTo7jT7a4wWihmhka7aWIEKwcDYSxO8Jhv1d8Oa3D4r8NafqlvvEGpWsd1EGHzbHUOOnQ4PT/APVXxHHPhrjuGKdGtiZxnGpdXXNpKNuZPmSfVa7PoehlmeUMbJxgmtL+qZQ+IPxQ8M/CiwtLrxP4i0Lw5bX1ytnbS6pfxWaXE7ZKxIZGUNIdrYUcnBwOK3gefc9B61+Uf/Bd39mSDwT8Rfhl8RD408f6zd+IPHFtaLo2qauLjRtJTaC32ODYDCSY1J+c53Hgdv1bPyk9x0HHXn/P51nxRwjg8tyPL81wtZ1XiFK+nKouLV0ur3s31toaYTMKtbGVsLONlBRs773v/kQapq9roem3N7eXEFnZWUTT3FxO4jigjUEs7seFUAEkngAGsb4afFvwr8Z9El1Twh4n8O+LNLhmNtJd6NqMN/BHKFVjGzxMyhwGUkZz8y+or5M/4LtfHi++G/7Gf/CE6DmbxX8XdTt/CunQo2JGjkcGbHqGUCE+nn+teL/8Ev8AwJc/8E0/+CjvjX9nXUb6W80Tx3oVp4i8PXEzY824iibzlC4HLf6QD7WqZr6bIvCd5hwlVz1zaqrmcIW0lCHKptvyvp6M4cdn3sMbDDKN07KT6q97fl+J+nmTnBBHpx1pFRg3Ofxr845v2m/2o/jZ+3Z+0D8Kvhb4i8EW9t4TFn/Ztz4lgSKHw/E6KXaMQ2rvPIzHA88sqgHhsjEfxb/b5+IuoftRW3wIm+NPw3+C194G8MWN14u8c61b2U39r6q0ELSQWcV00MGwmUHaURhtcgABRVYXwTzCvUhTjiaXNKEajScnKEJRjJSlFJv7SjZXbe2moT4moU+ZuDSTcdtG+yZ+kKnI/wDrdKRyI+tfn1+xf/wUJ8d/F/w18evAetfEX4aap4q+F0Il0f4kLJBDoF/bSBgl1ceX+5Xy8AnZ8uWK/wABLeDfEv8A4K1eM/2bvib4Rn0b9prwp8frO91mG013w5F4DXR1gtnJ3vBdxJskIGVBMuQTGdjruFdWE8Bc4r4jEYRVYc9LVL37STipKz5bLRrdp30IqcVYWEFUaet7+Vmfr9IxQdO9KDkU0EhuemMcdqcDX4bUpunJwl0PpYSUoqS6nyD/AMF6f+UTnxY/3dK/9O9lXx7/AMEDP+TM9c/7G66/9I7KvsL/AIL0/wDKJz4sf7ulf+neyr48/wCCB67v2Mdd9/Ft1/6R2Vf1/wCGf/JrsT/1/f5UzzuH/wDksaX+B/qfbhbbycAYzSk4P+FeJ/8ABRD4v+IvgN+yN4s8U+Fb/wDszXNM+ym2ufJjm8rfcwxt8sispyrMOQevrXBfBD4a/Hz4q/Cjwt4pl/aFW1TxBpltqjWn/CCac4i82NZPK8zcC2A2N2Ae+K0yjhCeNy95hUrRhBSa1Unqkn0T7n7BmnE0MJjo4BU3KTjzaWWnz66H1QwLgjBOOuBml3YOO/p0r5S/4Kb/ALUnjf4Qt4N8GfC2Rf8AhPvFtzLPGi20NxIltEhLDy5VZRvY8Er0ifFdV+xt8etd/bK/Ym07WbPxHBoXjeSN9OvdSjsYrn7FexOAZTbthGLptk2cKPNHHFYy4RxMMtp5rUklCckut0ndXattow/1qw0sxllcE3NK/k3o7Lzsz6E7+n14/wA9KQNxn06+1fBPxN8Y/tAfD/8AbT8DfCJPjktwnjLT5L46qfBmnL9j2i4OzycHf/x79d643dOOfp62g+KXwS+Cl673Q+NfjJbvfbgx2nhseUwQBc5aP5CHbJOW3beMCu3MuCo4aFFrEwk6tuVaq6bte7SSWnVmGB4qeIq1qToSiqXxbdr29bHq7YQ4yM9u9DE9vbNfKX/BMP8Aab+IH7Rtz8T/APhYMtqL3w3riWVvYw28SR6aD5u6FXQZkVWXG5i5+X7xzUn7SPjPxF+yv+2d8PfFS+Idcu/h/wDEC5/4RzWdKvL2Wax0y6fb5M8Su5WLccE7AMLFJ/fwOafB9aGY1MqnNe0jHmXVSduayfdr8Ua0+K6VTL4ZnTg3TcrO+jWtr/J/gfVQPSlpCpXjn15GP0pa+PceWTTPqYS5oqfcKKKKRoFFFFMD8k/2of8AlN5r/wD1xt//AEyQ17ZXif7UP/KbzX/+uNv/AOmSGvbK/pzFf7jgv+vFP8jo8Af9yzT/ALC6v5RCiiivOP3wKKKKACiiigAooooA+Uf+CoH/AB6+CP8Arrefyt6+9/2Zf+Tbfh9/2LWnf+ksVfBH/BUD/j18Ef8AXW8/lb197/sy/wDJtvw+/wCxa07/ANJYq+wqf8ieh6v82f4ufTr/AOSqr/44f+monb0UUV4Z/AwUUUUAFFFFABRRRQAUUUUAFFFFABRRRQAUUUUAFFFFABRRRQAUUUUAFFFFABRRRQAUUUUAFFFFABRRRQAUUUUAFFFFABRRRQAUUUUAFFFFABRRRQAUUUUAFFFFABRRRQAUUUUAFFFFABRRRQAUUUVUPiRrR/iR9UeLf8GW/wDylX+IX/ZLdR/9O+j1/TzX8w3/AAZb/wDKVf4hf9kt1H/076PX9PNfsq2R/esdgoooplBRRRQAUUUUAIzbRk1+QP8AweouG/4JZ+Afb4q6d1/7BGsV+vzDcvpXOfE74Q+Fvjd4FvvC/jXw14e8YeGdT8v7ZpGtadDf2F35ciyp5kEqtG+2REcZBwygjBAoA/mm/wCCXX/B1p/w7Y/YW8DfBb/hQx8ZnwZ9v/4nP/Cbf2d9s+1ahc3v+o+wS7Nv2jZ/rGzs3cbsD3//AIjm/wDq17/zJH/3qr9fv+HTv7LP/RtXwB/8N7pH/wAj0f8ADp39ln/o2r4A/wDhvdI/+R6APyB/4jm/+rXv/Mkf/eqj/iOb/wCrXv8AzJH/AN6q/X7/AIdO/ss/9G1fAH/w3ukf/I9H/Dp39ln/AKNq+AP/AIb3SP8A5HoA/IH/AIjm/wDq17/zJH/3qo/4jm/+rXv/ADJH/wB6q/X7/h07+yz/ANG1fAH/AMN7pH/yPR/w6d/ZZ/6Nq+AP/hvdI/8AkegD8gR/wfN5P/Jr3/mSP/vVWh4V/wCD4/S7zxRpsOu/s1ahp2hzXcSajd2HjxL26trYuBLJFA+nwpNIqFisbSxhiAC6A7h+tx/4JO/sskf8m1fAH/w3ukf/ACPX86X/AAd0/s+eAf2a/wDgpD4J0L4deCPCHgHRLv4a2F/Pp3hzRrbSrSa4bVNVjaZooERDIUjjUuRuIRRnCigD+qlI9j8YAzk1ITgU0nDH6CuP+Pv7QHgz9l34NeIfiD8QPEOn+FfB3hW1N5qep3jHy7dAQqgKoLPI7sqJGis8juiIrOyqQDe8YeMdJ8B+FdT1vXNUsNF0XRrSXUNQ1C/uEt7WwtokLyTSyOQqRoiszMxAUAkkYr+cX/guH/wcoar/AMFCrIfs/fsu2Pi+Lwp4su20TWtWSxaPWfHRknaCLT7C3jLTJZ3A2FgwW4uBMsLRRIJY7jgP+Ctn/Ba74nf8F7vjD4W/Z9/Z58KeL7D4fa7dwJb+HnWKLWPGV+oExkv/AC5Ghhs7UqzrGZTEgha5nk+WMW37Gf8ABFT/AIII/Dn/AIJW/C3TNV1qx0Dxx8crv/S9U8XSWay/2NK0MkTWektIokt7dY5pY2kASW53s0gVDHBCAePf8ED/APg3A8KfsG+AtP8AiL8a9D0Dxh8c9VEF7b2l3FDqFh4A8uRJ4Y7UkNG+oLIiO92mdjII4G2CSa5/WBEKnr/9ekSPb/8ArzT6ACiiigAooooAKKKKACkbpS0EZoA/mK/4POz/AMbXfhye3/Cr9N6f9hjV6n8deIfit4b+IWqRWPhDQvGvhC9SM2cA1KOxuoPkUOkpkG11L7iBgn5uuOBB/wAHnny/8FXfhyB/0S/TQP8AwcaxXsQGVA6ADkCv2XwnytY2OJp87j8Oq+ejufzv48Z2sslga7pRqJ+0VpX0+B3TTTT80z5Z+F/7E+o+IfG/j3xL4k03SfBkHjLS5dLt9E0ooy2Ssqr5rlAIy4KK3y8MxLEDpXF+Df2LNT8EaGNG1b4N6N4wuoGKJrFv4uksoLjJyrPCzhsjODtCZwMAV9tjA9/QelITuGD6dc1+rT8PsBKMbNpq933vq9Nj8Qw/jTm9OrNyjGUHa0dVy8qsrO9/W71PmrWf2dfGHw2+IHgvx54O0bSby+0vRY9I1XQTdGGNkCY/cTSliMHjLMTlQfmyRWt+0B8OPH/7Tn7OOv6Pe6Dp3hnVnuIJtOsDqC3RkWNgWDzL8gJ528DoAT3H0BvyRkDI70gO33JAH1/KuxcH4dU6lBTkqdS949Lvr6nj1fEzGVatLFVaMJVqUk4zd7pJ35XrZr8bHzP48+DXxC+P3wI0iy1TRbLwp4t8FzW11prPqEV1BqckaBXYiPIiztBAJIzgcDmp/EHwy+Iv7S3xO8FXXi3w1YeDND8HXH9ozompxX0upXA2kCMJ9xcoBhugY/MxwK+kQAcZ55zzzQeOATjHfvSlwbQnPnq1JSTs5K/xcu1zd+KWLimqNCEWuZwdn+75laXLr18726HiP7PfwY8Q+A/2lPir4h1KzWPS/FF1FJp8wmjb7QqmQnKqxK9QOQOtZX/BRrWW1L4Naf4L08C41zxxqtvY2dsD80oSRZGYA/wqyxqfTeM19CBh6D246f59q5rUvhH4d1j4i2niy60/7Tr9hEYba6lnkf7OpBB2oW2DhjyFByScmtcVw9KOXLLMN8Llq3/K5XdvPocmA40p1M9hnWZLWlFcqjs5QilC/ldJs2fDmljQNAsbFPmWyt44M47KoUfyq1TmYdv17UhOa+qjHliovoj8/wATWdarKrLdu4lFFFWcwUUUUAFFFFABRRRQNbnh/wDwUq/5Mq8c/wDXO0/9LIK97/4Ngf8AlH74m/7Hu9/9N+nV4J/wUq/5Mq8c/wDXO0/9LIK97/4Ngf8AlH74m/7Hu8/9N+nV/nn9On/kQ1v8MP8A0s/0R+h3/wAi1/8AXyf/AKTE+sf+Cif7Nmt/tdfsaeNfh14du9LstZ8SRW0dtPqUkkdqhiu4J23tGjsPliYDCnkj61D4Y/ZPv3/4J16f8FdV1aC01MeBE8JXeo2G6WGKb7H9naWPcEZ0Dc4IUkccZr3HGaT+Hiv8pcDxnmWFy6lltJrkp1VWWmvPZLftpsf3JPA0p1vby+K3L8mfman/AASf/aGu/wDgn9rXwFn8UfA3S9EikhbTrjTNNvI73W8Xn2hjf3JTbHtwCDFA7uVUM4AYt6R8f/8Agmv8UfHXxB/Zm8R+EfEPgPTtQ+BmhxWd62ri7uIbq6ihhVfLjjVGkiZ4iCWkiYK2QMjFfdTqG680fe9K+2reN/ENSaqTjT0c3bk0bqR5JXV9br8TyFwzg1HlV9rb9L3/ADPjT4D/ALB3xX8Y/twWPx2+PnifwRqGveFNNk0vwzovhCK5GnWSyI6vMzXID7sSzfL8xJcHeAoSsn4Q/wDBJjUG+G37S3hD4garos2kfG/xHLrOmTaTLNLNpq+dJNC8ivHGPMSQxsVVmVtrDdg19xFvSkJP/wCuvOreL3EEnLkcIL3ElGKSgqcuaPL297Vm8MgwsZXab1b1d73Vtfkfmv4V/wCCU/xm8EeGrXwpb+D/ANifWNKsYxZx+KdU8AM/iCSFeFmkiEP2d5toGdxbJyWZic1+jnh/TP7E0Oxsv3J+x28cOYoVhQ7VA+VBwo44A4A4xVxxuHWgDA4rx+L/ABCzTiRU1mPL7l/hVrt2u3q97dLI3wOT0cG3Kj1PgX/gpl+w1+0p+3B400my0bUvgdpvgrwfr0Wt6AbybVItUmZIwNt1sikiI3FuI9pxjmvsT9nv/hZB+Gdv/wALW/4Qf/hMfNkE/wDwif2r+zPKz+72faf3u/H3s8Z6V2+0Zz3ozjFZ5vx3jMyyehk1alTjTofC4xtLz1v1esu7FRyqlTxUsVFy5pb3emn+XQ+Mv2w/+CY1/wDt1ft2eD/FPxBfQNQ+DHg7R5rWPQI9Ru4dRvruUOWkby40Ea7zFyk2SLZcj5mA4f43/wDBEHR/h98Xvhd4+/Zw0/w94I8QeCNcGoapBrGtak9vq1uGQiIOwuWUkK6EKqgrK2ScCv0FIyaMZNe5gPGDiPBU6OHw1RKlShyKnb3JLW7lHq3d3fUzrcP4Ss5zqK7m7t9Vbs+h8vfsw/sTeKvgx+3/APG/4q6rqPh+fw98S47NNMtrWaZ7y3MKqG85WjVBnBxtdvwrz/8AbK/4JW6v8R/2qZfjJ8PLf4S63rusWMVhrXh34laCdW0a8MahEuI2CvJDIESNcIFztJ3fMQfuEDGaCM1yYTxTzzDZp/a9Jx5/ZxpNW0cIxUUmv+3U/UuWS4eVF0pK6b5te5+f2pf8EqfH3xe/Zo+KHhHxPb/AH4c6r40s7GDT4vht4YawskktrpbjddSuizyrIUVSuSqfeCk5B5f4w/8ABLT9on48/so+Afh7rviP4G6PF8P9Xsp7XT/D+n3lpbXcEELR/aJpzGxM53H93HBHGS7sW6KP0oRNo9TTq9+j46cSUpScfZ6y5vh2fKo6a7WS3OOpwxg5pRlfRW33TEbn8sc0gXGKdQK/HalTnm59Xd/efQwhyRUVsj5A/wCC9P8Ayic+LH+7pX/p3sq+Pf8Aggb/AMmZa7/2Nt1/6R2VfYX/AAXp/wCUTnxY/wB3Sv8A072VfHn/AAQN/wCTM9c/7G66/wDSOyr+vvDP/k12J/6/v8qZ5vD3/JY0v8D/AFPTv+CtkJuP2BPHaqNx/wBB4/7fbeub/ZF/4J0fBy4+Cvw58VzeDt3iGTSNP1aW6/tW9/4+THHIzlPO2ffOdu3bzjGOK+tMYbIz69cYNIB+XbB+59Pf/wDVRgeLMRg8pWWYduDc3JyT3TSVvwP2DF8NUcTmn9o1ldKHLZ973ufnb4e/4Wl+1V/wUR8b/Ev4ap4Bnsvhvjw5ps3ig3Zs5FKyI0kP2cZZiRK2SQAs69c5G1/wTvuPE/7Lv7bvxD+FPjZNBtJfGKf8JHYrpDS/2eLjmRo7bzQH2+Wzg7hkfZsZOMn74Iyff/OP60AY9z+OD6d696v4gwr4eeBlQSpOCgv5k47Nvrrd7Hh0eBHSxMccq0nUVRzfaz0at6WXyPiv9o2B3/4LL/BGQKdq6BOCSO+zUK+rfi98ZfDXwG8Dz+JPFmo/2Volq6QyXIt5ptrSEBfliVn59hXTKCI9v4/X0/z+NBXJ7flXzmOz6hi3hFVg+WjFRdnq7Sbfpo/M+iw2SToSxU6cvequ68vdS/Q/PL/glJ+0x4J0f4zfFHR7rWfL1Dx74qNzoUTWdwf7Qj3SlW3eXtj4YcSFT7V6l/wV8vk1n4f/AAy8M25365r/AI3szYxof3hCB1dl4PQyxjJHGRwa+vQdrE9zxmvGtY/ZLk8a/ta6V8T/ABL4jOrW3hmzktvD+hJYmGDS5HwGnLmRvMcgtzsX+D+4K+mjxNl2Izv+2HF01CD91u/NJKyS00vpv2Z84+HcdhsnllsHzuct0rWUneX3a2PZFXYgHTHQfz/WlpAMAfrS1+ZVJc03LufoVKDhBR7BRRRUGoUUUUwPyT/ah/5Tea//ANcbf/0yQ17ZXif7UP8Aym81/wD642//AKZIa9sr+nMV/uOC/wCvFP8AI6PAH/cs0/7C6v5RCiiivOP3wKKKKACiiigAooooA+Uf+CoH/Hr4I/663n8revvf9mX/AJNt+H3/AGLWnf8ApLFXwR/wVA/49fBH/XW8/lb197/sy/8AJtvw+/7FrTv/AElir7Cp/wAieh6v82f4ufTr/wCSqr/44f8ApqJ29FFFeGfwMFFFFABRRRQAUUUUAFFFFABRRRQAUUUUAFFFFABRRRQAUUUUAFFFFABRRRQAUUUUAFFFFABRRRQAUUUUAFFFFABRRRQAUUUUAFFFFABRRRQAUUUUAFFFFABRRRQAUUUUAFFFFABRRRQAUUUUAFFFFVD4ka0f4kfVHi3/AAZb/wDKVf4hf9kt1H/076PX9PNfzDf8GW//AClX+IX/AGS3Uf8A076PX9PNfsq2R/esdgoooplBRRRQAUUUUAFFFFABRRRQAUUUUAFFFFABX8wX/B6oM/8ABU3wB/2SrTv/AE76xX9PhOBX8wn/AAeof8pTvAJ9PhVp+f8Awb6xQB/Q3+3P+3P8Of8Agnb+zlrXxP8AifrJ0rQNKxDb28KiS/1m8YMYrK0iJXzZ5NjYGQqqjyOyRRySL/Nr+25+258eP+Dov9vDRPhN8JdDv9K+HGlXb3WgaBdTeVa6ZbofLl1/W5Y96CQJLjA3iESi3gE00zNc58f/AA0Z/wAHZn/BRsAf8Ur4C8K8j79xoXw10iV+v8H2rULjyv8AYkupIv8AlhbQf6N/S1+wz+wr8Ov+Cdn7OWj/AAw+GGj/ANleH9LzNcXEzCS+1m7dVEt7dygDzbiTauWwFVVSNFSKOONQDy7/AIJXf8EefhJ/wSk+D+m6P4Q0iw1rx09q8Wv+Or3T401nW5JTE80Yf5mt7PfDDstUcxqIULGSUvM/1dFF5ZpY4th6/UU+gAooooAKKKKACiiigAooooAKQ9KWkNAH8xf/AAeef8pYPhz/ANkw0z/08axXsQ6H8K8d/wCDz3/lLB8Of+yYaZ/6eNYr2IdD+FfvXgl8WK9I/qfyz9Jn+DgPWp/7YJRRRX78fySFFFFABRRRQAUUUUAFFFFABRRRQAUUUUAFFFFABRRRQNbnh/8AwUq/5Mq8c/8AXO0/9LIK97/4NgTj/gn74m/7Hu9/9N+nV4J/wUpOf2KvHP8A1ztP/SyCve/+DYH/AJR++Jv+x7vf/Tfp1f55/Tpv/YNa38sP/Sz/AEQ+h5/yLX/18n/6TE/RwZYjj1+px6UjPjtj6ivkX/goX+1B4+0n9oH4SfA34SatDoXjf4iXr32o6tJZQXn9jaRCGM0gimVoyzbJSNy/8sCAQWBGd/wUo/be+KH7JnxK+CHgX4bW3gvWdZ+KGoS6Q174tguDGJle1ijlY2jxBcmdi+2M/wCyoxiv8v8ALPDHMcd9ThSnCNTFKcoxbaahC95ydtE7O3ex/bOIzijRlUUlpTSvbz6ep9lhtpwSPbmjd7V89/s+/wDDVo+KFn/wtP8A4Z8/4Qzypftn/CKHWP7T37D5Wz7R+6xv27s/w7sc4r5o/wCChf8AwWu8VfsjftlJ4J8M+FdC1/wX4TGnN40v57e4lurI3TBisTxyrHGfJdApdH+dsdsVeX+Fua5jmUssyypTrTjDnbjK8Ur2te3xN2SXmiKueUKOHeKrKUVdbq1/RH6N549PekI4615T+0fqHxg1jwdot58DpvhZcXd23nXUnjI3zWslsyAxtAbTncSc/NxtIxXxp+zZ+3V+2N+0/wDG74o+A9B039mey1X4R6iumavNfw65Hb3MhknjBt2SVmZc278uqcFeOoE5L4ZY3NMFVx1PEUacaXxqc7OGvL7ytpd7F4jOaVHlUoyfNtZXT9D9IVb5e3vz70BjkfrgV8s/t7/t8eLf2G/gDBqR+G3iPxt4wk0Nrq5v9C0qa48LaPdIiCV7qfcJYrfezMoYbmRcFk616P8AsNfHbWf2q/2OfBPjvW47DTda8Vaabm4TTY2SCCTzJEzGsrSHsCAxbnPUGvKxfA+Y4bKo53V5fYSnyJqSd3rrp00e5pTzSjPEfVtee3NZr+u57DnJIwfypE4FfIv7DH7Tnj2H9rf4sfAf4ra3F4l8ReEzHrvh3W1soLNtW0iURgb44Ujj3xmSMMVX7zyDJCAn67xXn8UcMV8jxawtZqacYyjJfDKMldNX12/HQ3wWMjiItxVrNprrdf1cWiiivmzvCiiigAooooAKKKKAPkD/AIL0/wDKJz4sf7ulf+neyr49/wCCBv8AyZnrn/Y3XP8A6R2VfYX/AAXp/wCUTnxY/wB3Sv8A072VfHv/AAQN/wCTM9c/7G65/wDSOyr+w/DT/k12J/6/v8qZ5PD3/JZUv8D/AFPt2iiivkD+igooooAKKKKACiiigAooooAKKKKACiiimB+Sf7UP/KbzX/8Arjb/APpkhr2yvE/2of8AlN5r/wD1xt//AEyQ17ZX9OYr/ccF/wBeKf5HR4A/7lmn/YXV/KIUUUV5x++BRRRQAUUUUAFFFFAHyj/wVA/49fBH/XW8/lb197/sy/8AJtvw+/7FrTv/AElir4I/4Kgf8evgj/rrefyt6+9/2Zf+Tbfh9/2LWnf+ksVfYVP+RPQ9X+bP8XPp1/8AJVV/8cP/AE1E7eiiivDP4GCiiigAooooAKKKKACiiigAooooAKKKKACiiigAooooAKKKKACiiigAooooAKKKKACiiigAooooAKKKKACiiigAooooAKKKKACiiigAooooAKKKKACiiigAooooAKKKKACiiigAooooAKKKKACiiiqh8SNaP8SPqjxb/gy3/wCUq/xC/wCyW6j/AOnfR6/p5r+Yb/gy3/5Sr/EL/sluo/8Ap30ev6ea/ZVsj+9Y7BRRRTKCiiigAooooAKKKKACiiigAooooAKKKKAEIyK/OH/gsH/wbo+F/wDgrp+1L4B+JWr/ABL17wV/wjelQ+H9b02z0uK8/tfT4ruW5VbaVnT7JcH7TdKZXS4T5oT5Q8thL+j9FAHGfAH9n7wd+y18HfD3w/8Ah/4f0/wv4O8K2os9M0yzUiO3TJYsWYlnkd2d5JXZnkd3d2ZmZj2dFFABRRRQAUUUUAFFFFABRRRQAUUUUAFIelLSGgD+Yv8A4PPf+UsHw5/7Jhpn/p41ivYh0P4V47/wee/8pYPhz/2TDTP/AE8axXsQ6H8K/evBL4sV6R/U/ln6TP8ABwHrU/8AbBKKKK/fj+SQooooAKKKKACiiigAooooAKKKKACiiigAooooAKKKKBnh3/BSj/kynxz/ANcrT/0sgr3z/g2B5/4J+eJv+x7vf/Tfp1eB/wDBSj/kynxz/wBcrT/0sgr3z/g2C/5R+eJv+x7vP/Tfp1f55/Tpdshqv+7T/wDSz/RL6Hn/ACLv+4k//SYnWeKf+Jd/wcKeGjqjBhqHwvlj0Ukjh1mmZwvocLP68H3rgf8Agud4KPxI/a8/ZJ0Eapreh/2z4nubQanpFz9l1CxD3Gnr5sEuDslUnKtg4IHFfSP7fv7FHin49+Pvhl8SPhnq+h6F8TvhfqxuLObV3mSy1GylGJ7WZokd8NjAIU/LJION2a92134TeHfiLfeH9X8VeFPDGqa94fZbqwnubOK+fSLg7GZrWaSMOmGRcOoUnapwCBj/AD+ocfYDL8RlWfxlzyo0JUZU0/ejJKUVLXSzUk/vXQ/sOtlVWtHE4RrSo1JS6dLr8Dw7wJ+y1p/7B+n+JPiVq/xn+PPjnS/D2h3lzdaf4x8Xf2nYLFGgkaRYjEuJQI8Kcn7xGDmvzf8A2a/hf8bv2mf2W/jf4hj/AGe28fx/tHXs1/F4kk8Yafpp08wXEph8u1nBkcRXO9gcpvCgDjBP7S+L/BmkfELw1d6Lr+laZrej36CO5sdQtY7q2uFyDh43BRxkA4IxkU7wr4R0vwJ4ds9I0PTNO0bSNPjENrY2NslvbW0Y/gSNAFRfYAVx8N+NU8tpVsRiaPt8VUlH3n7sVCDukuTld+bXtoi8Xw4q3JCm+WMb3XdvTr5HyR/wQw/aPm+Pf7BOi6XqhkTxD8Obh/CuoxykiTbAqmBiOoHkuic94mrzL/gkImP+Cjn7bH3ufF0Pb/p71Kvu/wAB/Bbwf8LNR1S88MeFPDXhy712b7Rqc+l6XBZyajLlj5kzRopkbLucsScux71J4S+D/hP4f+INa1fQfC/hzRdX8SSifV76x0yG2uNVkBZvMuJEVWlbLucuScsxzya8jMfEPLJrOYYShKMccouKdvdkpxlK/ldO3lY2pZLVjRw9KcrulK/ys0keA/8ABXL4w+EfAv7DHxL0PXPFPhvR9b8Q+G7uPS9OvdTht7vU2AAIgidg8pBIHygkZFZH/BFn4u+FPGP/AAT9+G/h7SPE3h7Vdf0HRP8AiaaZZ6lDNeabmeXHnRIxkiJ7bwPavoX4pfs7eAPjjeWlx418DeDvF81gGS1k1vRrbUHtlbBYIZkbbkgE49BUfw5/Z18CfAtr658B+AfBHhO9vYgkraPo9vpZugvKJI8MYJUHpkNjJ4NefDijJZcH/wCr0o1PbuoqnN7vIpfDbvbl1738jWpl+JeYRxcbcqVra3s9fzPkfx9LHqn/AAcH+BU01w82mfDOf+2NgztBkuvLDYPH+siPPqPrX3d3r5g/Yf8A2KPFXwl+O3xQ+L3xR1Hw9rHxI+I14sMX9jPJLZ6PpkaoIraOSSKJyflRWJTkQRkkksa+nxwK5vEvNMHicThcJgqiqRw9GFNzW0mleVvJN2XexrlFGpGVatUjbnldJ9rJfoLRRRX5oe2FFFFABRRRQAUUUUAfIH/Ben/lE58WP93Sv/TvZV8e/wDBA3/kzPXP+xuuf/SOyr7C/wCC9P8Ayic+LH+7pX/p3sq+Pf8Aggb/AMmZ65/2N1z/AOkdlX9h+Gn/ACa7E/8AX9/lTPJ4e/5LKl/gf6n27RRRXyB/RQUUUUAFFFFABRRRQAUUUUAFFFFABRRRTA/JP9qH/lN5r/8A1xt//TJDXtleJ/tQ/wDKbzX/APrjb/8Apkhr2yv6cxX+44L/AK8U/wAjo8Af9yzT/sLq/lEKKKK84/fAooooAKKKKACiiigD5R/4Kgf8evgj/rrefyt6+9/2Zf8Ak234ff8AYtad/wCksVfBH/BUD/j18Ef9dbz+VvX3v+zL/wAm2/D7/sWtO/8ASWKvsKn/ACJ6Hq/zZ/i59Ov/AJKqv/jh/wCmonb0UUV4Z/AwUUUUAFFFFABRRRQAUUUUAFFFFABRRRQAUUUUAFFFFABRRRQAUUUUAFFFFABRRRQAUUUUAFFFFABRRRQAUUUUAFFFFABRRRQAUUUUAFFFFABRRRQAUUUUAFFFFABRRRQAUUUUAFFFFABRRRQAUUUVUPiRrR/iR9UeLf8ABlv/AMpV/iF/2S3Uf/Tvo9f081/MN/wZb/8AKVf4hf8AZLdR/wDTvo9f081+yrZH96x2CiiimUFFFFABRRRQAUUUUAFFFFABRRRQAUUUUAFFFFABRRRQAUUUUAFFFFABRRRQAUUUUAFFFFABSHpS0h5oA/mL/wCDz3/lLB8Of+yYaZ/6eNYr2IdD+FeO/wDB57x/wVg+HP8A2TDTP/TxrFexDofwr968EvixXpH9T+WfpM/wcB61P/bBKKKK/fj+SQooooAKKKKACiiigAooooAKKKKACiiigAooooAKKKKBnh3/AAUo/wCTKfHP/XK0/wDSyCvfP+DYD/lH74m/7Hu8/wDTfp1eB/8ABSj/AJMp8c/9crT/ANLIK98/4NgP+Ufvib/se7z/ANN+nV/nl9Or/kQ1v8NP/wBLP9Evod/8i7/uJP8A9Jifo7RSHmlr/HnU/vEKKKKQBRRRQAUUUUAFFFFGvUAooooAKKKKACiiigAooooA+QP+C9P/ACic+LH+7pX/AKd7Kvj3/ggb/wAmZ65/2N1z/wCkdlX2F/wXp/5ROfFj/d0r/wBO9lXx7/wQN/5Mz1z/ALG65/8ASOyr+w/DT/k12J/6/v8AKmeTw9/yWVL/AAP9T7dooor5A/ooKKKKACiiigAooooAKKKKACiiigAooopgfkn+1D/ym81//rjb/wDpkhr2yvE/2of+U3mv/wDXG3/9MkNe2V/TmK/3HBf9eKf5HR4A/wC5Zp/2F1fyiFFFFecfvgUUUUAFFFFABRRRQB8o/wDBUD/j18Ef9dbz+VvX3v8Asy/8m2/D7/sWtO/9JYq+CP8AgqB/x6+CP+ut5/K3r73/AGZf+Tbfh9/2LWnf+ksVfYVP+RPQ9X+bP8XPp1/8lVX/AMcP/TUTt6KKK8M/gYKKKKACiiigAooooAKKKKACiiigAooooAKKKKACiiigAooooAKKKKACiiigAooooAKKKKACiiigAooooAKKKKACiiigAooooAKKKKACiiigAooooAKKKKACiiigAooooAKKKKACiiigAooooAKKKKqHxI1o/wASPqjxb/gy3/5Sr/EL/sluo/8Ap30ev6ea/mG/4Mt/+Uq/xC/7JbqP/p30ev6ea/ZVsj+9Y7BRRRTKCiiigAooooAKKKKACiiigAooooAKKKKACiiigAooooAKKKKACiiigAooooAKKKKACiiigAozRSHpQB/MX/weenP/AAVg+HH/AGTDTP8A08axXsQ6H8K8d/4PO/8AlK/8Of8AsmGmf+njWK9iB6/hX714Jb4p+Uf1P5Z+kz/BwPrU/wDbBKKKK/fj+SgooooAKKKKACiiigAooooAKKKKACiiigAooooAKKKBzQB4d/wUo/5Mp8c/9crT/wBLIK98/wCDYD/lH74m/wCx7vP/AE36dXgn/BShf+MKfHH/AFytP/SyCve/+DYD/lH94m/7Hy9/9N+nV/nl9On/AJENb/DT/wDSz/RL6Hn/ACLb/wDTyf8A6TE/R2iiiv8AHg/vAKKKKACiiigAooooAKKKKACiiigAooooAKKKKACiikJwKBnyD/wXp/5ROfFj/d0r/wBO9lXx7/wQN/5Mz1z/ALG65/8ASOyr7C/4L0/8onPix/uaV/6d7Kvjz/ggYf8AjDPXf+xuuf8A0jsq/sPw0/5Ndif+v7/KmeTw9/yWVL/A/wBT7eooor5E/ooKKKKACiiigAooopAFFFFA7BRRRQFgooopoR+Sf7UP/KbzX/8Arjb/APpkhr2yvE/2of8AlN5r/wD1xt//AEyRV7ZX9OYv/ccF/wBeaf5HR4A/7jmn/YXV/KIUUUV5x++BRRRQAUUUUwCiiigD5R/4Kgf8evgj/rrefyt6+9/2Zf8Ak234ff8AYtad/wCksVfBP/BT/m18Ef8AXW8/lb197fszf8m2/D7/ALFrTv8A0lir6+p/yJ6HrL82f4ufTr/5Kqv/AI4f+monb0UUV4Z/AwUUUUAFFFFABRRRQAUUUUAFFFFABRRRQAUUUUAFFFFABRRRQAUUUUAFFFFABRRRQMKKKKBBRRRQAUUUUAFFFFABRRRQAUUUUAFFFFABRRRQAUUUUAFFFFABRRRQAUUUUAFFFFABRRRQAUUUUAFFFFVHdGtH+JH1R4t/wZb/APKVf4hf9kt1H/076PX9PNfzDf8ABlv/AMpVfiCf+qW6jx/3F9Hr+ngNk1+yo/vWOwtFFFMoKKKKACiiigAooooAKKKKACiiigAooooAKKKKACiiigAooooAKKKKACiiigAooooAKKKKACkbpS0jDcuKAP5if+Dz07P+Cq3w8kb7q/C7TSffGsaxVVf+CjXwYZc/8JrDg4x/xLbz/wCNV+yP/BTr/g3s+DX/AAVe+P2k/EX4ieJvibo2taLoEPhyCDw5qVlb2j28Vxc3Cs6z2kzmQvdSAkOBtC8Agk/OTf8ABlf+y47Enx98fjn11zSef/KZX1fDHF+MyPneFSfPa9/I+H408P8ALOJ40oZg5Wp3tZ23tf8AI/Pv/h4z8GP+h2g/8F15/wDGqP8Ah4z8GP8AodoP/Bdef/Gq/QP/AIgrf2Wv+h9+P3/g80n/AOVlH/EFb+y1/wBD78fv/B5pP/ysr67/AIjBm/8ALE+B/wCJeuGe9T/wL/gH5+f8PGfgx/0O0H/guvP/AI1R/wAPGfgx/wBDtB/4Lrz/AONV+gf/ABBW/stf9D78fv8AweaT/wDKyj/iCt/Za/6H34/f+DzSf/lZT/4jDm/8sfuD/iXrhnvU/wDAv+Afn5/w8Z+DH/Q7Qf8AguvP/jVH/Dxn4Mf9DtB/4Lrz/wCNV+gf/EFb+y1/0Pvx+/8AB5pP/wArKP8AiCt/Za/6H34/f+DzSf8A5WUf8Rhzf+WP3B/xL1wz3qf+Bf8AAPz8/wCHjPwY/wCh2g/8F15/8ao/4eM/Bj/odoP/AAXXn/xqv0D/AOIK39lr/offj9/4PNJ/+VlH/EFb+y1/0Pvx+/8AB5pP/wArKP8AiMOb/wAsfuD/AIl64Z71P/Av+Afn5/w8Z+DH/Q7Qf+C68/8AjVH/AA8Z+DH/AEO0H/guvP8A41X6B/8AEFb+y1/0Pvx+/wDB5pP/AMrKP+IK39lr/offj9/4PNJ/+VlH/EYc3/lj9wf8S9cM96n/AIF/wD8/P+HjPwY/6HaD/wAF15/8ao/4eM/Bj/odoP8AwXXn/wAar9A/+IK39lr/AKH34/f+DzSf/lZR/wAQVv7LX/Q+/H7/AMHmk/8Ayso/4jDm/wDLH7g/4l64Z71P/Av+Afn5/wAPGfgx/wBDtB/4Lrz/AONUf8PGfgx/0O0H/guvP/jVfoH/AMQVv7LX/Q+/H7/weaT/APKyj/iCt/Za/wCh9+P3/g80n/5WUf8AEYc3/lj9wf8AEvXDPep/4F/wD8/P+HjPwY/6HaD/AMF15/8AGqP+HjPwY/6HaD/wXXn/AMar9A/+IK39lr/offj9/wCDzSf/AJWUf8QVv7LX/Q+/H7/weaT/APKyj/iMOb/yx+4P+JeuGe9T/wAC/wCAfn5/w8Z+DH/Q7Qf+C68/+NUo/wCCi/wZY/8AI7Qf+C68/wDjVfoF/wAQVv7LX/Q+/H7/AMHmk/8AysoH/Bld+y2D/wAj78ff/B5pP/yso/4jDnH8sfuD/iXvhno6n/gX/APyk/bk/bY+GPxV/ZZ8VeHvD/iiPUdX1FLdba2WyuYzKVuYnb5njCjCqx5Pb1r1n/gg3/wUw+CP7HP7H2u+F/iR42HhvXbzxddanDanSb673272dlGr74IXQZeGQYJz8vTBBP6BH/gyu/Zbz/yPvx9/8Hek/wDytpP+IK/9l11+bx78fBnrjW9I/wDlZX5F4oUqfHuGlhM7vyyST5dNndd+p+v+HmSYbg2k6OVXabcve11aS/Q5b/h/D+yj/wBFWT/wndW/+RaP+H8P7KP/AEVZP/Cd1b/5Frqf+IKn9ln/AKH74/8A/g70j/5WUf8AEFT+yz/0P3x//wDB3pH/AMrK/nr/AIlj4O/6e/8Aga/+RP1P/iIOY9o/cct/w/h/ZR/6Ksn/AITurf8AyLR/w/h/ZR/6Ksn/AITurf8AyLXU/wDEFT+yz/0P3x//APB3pH/yso/4gqf2Wf8Aofvj/wD+DvSP/lZR/wASx8Hf9Pf/AANf/Ih/xEHMe0fuOW/4fw/so/8ARVk/8J3Vv/kWj/h/D+yj/wBFWT/wndW/+Ra6n/iCp/ZZ/wCh++P/AP4O9I/+VlH/ABBU/ss/9D98f/8Awd6R/wDKyj/iWPg7/p7/AOBr/wCRD/iIOY9o/cct/wAP4f2Uf+irJ/4Turf/ACLR/wAP4f2Uf+irJ/4Turf/ACLXU/8AEFT+yz/0P3x//wDB3pH/AMrKP+IKn9ln/ofvj/8A+DvSP/lZR/xLHwd/09/8DX/yIf8AEQcx7R+45b/h/D+yj/0VZP8AwndW/wDkWj/h/D+yj/0VZP8AwndW/wDkWup/4gqf2Wf+h++P/wD4O9I/+VlH/EFT+yz/AND98f8A/wAHekf/ACso/wCJY+Dv+nv/AIGv/kQ/4iDmPaP3HLf8P4f2Uf8Aoqyf+E7q3/yLR/w/h/ZR/wCirJ/4Turf/ItdT/xBU/ss/wDQ/fH/AP8AB3pH/wArKP8AiCp/ZZ/6H74//wDg70j/AOVlH/EsfB3/AE9/8DX/AMiH/EQcx7R+45b/AIfw/so/9FWT/wAJ3Vv/AJFo/wCH8P7KP/RVk/8ACd1b/wCRa6n/AIgqf2Wf+h++P/8A4O9I/wDlZR/xBU/ss/8AQ/fH/wD8Hekf/Kyj/iWPg7/p7/4Gv/kQ/wCIg5j2j9xy3/D+H9lH/oqyf+E7q3/yLR/w/h/ZR/6Ksn/hO6t/8i11P/EFT+yz/wBD98f/APwd6R/8rKP+IKn9ln/ofvj/AP8Ag70j/wCVlH/EsfB3/T3/AMDX/wAiL/iIOY9o/cct/wAP4f2Uf+irJ/4Turf/ACLR/wAP4f2Uf+irJ/4Turf/ACLXU/8AEFT+yz/0P3x//wDB3pH/AMrKB/wZVfstKf8Akfvj9/4O9I/+VlH/ABLHwd/09/8AA1/8iH/EQMx7R+4+Rf8Agrp/wVt/Z8/aZ/4J5fELwP4H+IC654p1waeLGxGi6jb+f5WpWsz/ADywIgxHG7csM7cDJIB+bP8Agj/+3d8Kf2aP2ZtY0Dxx4rXQ9Wn8RT38cB0+7uN0LW1qituhidRlo3GCc/L7jP6nD/gyu/ZcU/8AI+/Hz8db0n/5WUp/4Msf2XD/AMz58fMZz/yHNI/+VlfoGTeFuTZZkk8gwzn7Gc3N3d5XdutttEYYPjjG4fMo5pBLnS5bdLHy1/w93/Z3/wCiiR/+CXUf/kej/h7v+zv/ANFEj/8ABLqP/wAj19S/8QV37LX/AEPvx+/8Hekf/Kyj/iCu/Za/6H34/f8Ag70j/wCVlef/AMQcyHvP7/8AgH2f/Ebs6/lj9x8tf8Pd/wBnf/ookf8A4JdR/wDkej/h7v8As7/9FEj/APBLqP8A8j19S/8AEFd+y1/0Pvx+/wDB3pH/AMrKP+IK79lr/offj9/4O9I/+VlH/EHMh7z+/wD4Af8AEbs6/lj9x8tf8Pd/2d/+iiR/+CXUf/kej/h7v+zv/wBFEj/8Euo//I9fUv8AxBXfstf9D78fv/B3pH/yso/4grv2Wv8Aoffj9/4O9I/+VlH/ABBzIe8/v/4Af8Ruzr+WP3Hy1/w93/Z3/wCiiR/+CXUf/kel/wCHu37O/wD0UWP/AMEuo/8AyPX1J/xBXfstf9D78fv/AAd6R/8AKyj/AIgrv2Wv+h9+P3/g70j/AOVlH/EG8h7z+/8A4Af8Ruzr+WP3Hy3/AMPdv2d/+iix/wDgl1H/AOR6P+Hu37O//RRY/wDwS6j/API9fUn/ABBXfstf9D78fv8Awd6R/wDKyj/iCu/Za/6H34/f+DvSP/lZR/xBvIe8/v8A+AH/ABG7Ov5Y/cfLf/D3b9nf/oosf/gl1H/5Ho/4e7fs7/8ARRY//BLqP/yPX1J/xBXfstf9D78fv/B3pH/yso/4grv2Wv8Aoffj9/4O9I/+VlH/ABBvIe8/v/4Af8Ruzr+WP3Hy3/w92/Z3/wCiix/+CXUf/kej/h7t+zv/ANFFj/8ABLqP/wAj19Sf8QV37LX/AEPvx+/8Hekf/Kyj/iCu/Za/6H34/f8Ag70j/wCVlH/EG8h7z+//AIAf8Ruzr+WH3H4hfH39pzwT4w/4Kr6h8QNN1n7V4NvntYE1P7JOioDpsVs8jRsgl2pJu3YQsQpKq3APr5/bD+G4P/Izwf8AgLP/APEV+rw/4Mr/ANlrP/I+fHz/AMHekf8Ayso/4grv2Wz18e/H33/4nekf/Kyvsa3CmEqU6VNNpU4qK9FojXg7x1zzhyGIp4WnCSrVHUd1tKW9vLRH5Q/8Nh/Df/oZ4P8AwFn/APiKa/7Y3w2jXJ8TwY/69Z//AIiv1f8A+IKz9ln/AKH34/f+DvSP/lZSj/gyt/ZaB/5H34/f+DvSP/lZWC4Nwn87Psn9Kjia2lCl9z/zPydH7Zvw0b/mZ4v/AADuP/jdH/DZfw0/6GiH/wAA7j/43X6xH/gyu/ZaP/M+/H7/AMHekf8AyspP+IKz9lrP/I+/H7/wd6R/8rKb4Nwb+1Ix/wCJpuKv+fVL/wABf+Z+T3/DZnw0/wChoh/8BLj/AON0f8NmfDT/AKGiH/wEuP8A43X6xf8AEFb+y1/0P3x//wDB3pH/AMrKP+IK39lr/ofvj/8A+DvSP/lZU/6m4Puw/wCJpuKv+fdL7n/mfk7/AMNmfDT/AKGiH/wEuP8A43R/w2X8ND/zM8X/AIB3H/xuv1i/4grf2Wv+h++P/wD4O9I/+VlB/wCDK39lr/offj8fY63pH/yso/1Nwfdh/wATTcU/8+6X/gL/AMz8Ff2+fjT4Y+LcXhVfDuqpqR0+S6Nxthkj8sP5O376jOdjdPSvrz4Df8FAPhF4S+B3gzSdR8Xx22o6XodlaXUJ067byZY7eNHXKxEHDAjIJHHWv0tH/Bld+y2B/wAj78fs/wDYc0j/AOVlH/EFd+y2x58e/H3Hb/id6T/8ra9SWQ0HhYYVt2jt8z+aPFS3H2YSzHOdJyafuaaqKivwR+f3/Dx74Lf9DtF/4LL3/wCM0f8ADx74Lf8AQ7Rf+Cy9/wDjNfoF/wAQVn7LP/Q/fH//AMHekf8Ayso/4grP2Wf+h++P/wD4O9I/+Vlcn+q2F7s/KP8AiD+S/wA0/v8A+Afn7/w8e+C3/Q7Rf+Cy9/8AjNH/AA8e+C3/AEO0X/gsvf8A4zX6Bf8AEFZ+yz/0P3x//wDB3pH/AMrKP+IKz9ln/ofvj/8A+DvSP/lZR/qthe7D/iD+S/zT+/8A4B+fv/Dx74Lf9DtF/wCCy9/+M0f8PHvgt/0O0X/gsvf/AIzX6Bf8QVn7LP8A0P3x/wD/AAd6R/8AKyj/AIgrP2Wf+h++P/8A4O9I/wDlZR/qthe7D/iD+S/zT+//AIB+fv8Aw8e+C3/Q7Rf+Cy9/+M0f8PHvgt/0O0X/AILL3/4zX6Bf8QVn7LP/AEP3x/8A/B3pH/yso/4grP2Wf+h++P8A/wCDvSP/AJWUf6rYXuw/4g/kv80/v/4B+fv/AA8e+C3/AEO0X/gsvf8A4zR/w8e+C3/Q7Rf+Cy9/+M1+gX/EFZ+yz/0P3x//APB3pH/yso/4grP2Wf8Aofvj/wD+DvSP/lZR/qthe7D/AIg/kv8ANP7/APgH5+/8PHvgt/0O0X/gsvf/AIzR/wAPHvgt/wBDtF/4LL3/AOM1+gX/ABBWfss/9D98f/8Awd6R/wDKyj/iCs/ZZ/6H74//APg70j/5WUf6rYXuw/4g/kv80/v/AOAfn7/w8e+C3/Q7Rf8Agsvf/jNH/Dx74Lf9DtF/4LL3/wCM1+gX/EFZ+yz/AND98f8A/wAHekf/ACso/wCIKz9ln/ofvj//AODvSP8A5WUf6rYXuw/4g/kv80/v/wCAfn7/AMPHvgt/0O0X/gsvf/jNH/Dx74Lf9DtF/wCCy9/+M1+gX/EFZ+yz/wBD98f/APwd6R/8rKP+IKz9ln/ofvj/AP8Ag70j/wCVlH+q2F7sP+IP5L/NP7/+Afn7/wAPHvgt/wBDtF/4LL3/AOM0f8PHvgt/0O0X/gsvf/jNfoF/xBWfss/9D98f/wDwd6R/8rKP+IKz9ln/AKH74/8A/g70j/5WUf6rYXuw/wCIP5L/ADT+/wD4B+fv/Dx74Lf9DtF/4LL3/wCM0f8ADx74LD/mdov/AAWXv/xmv0C/4grP2Wf+h++P/wD4O9I/+VlJ/wAQVn7LX/Q/fH//AMHekf8Ayso/1Wwvdh/xB/Jf5p/f/wAA/P7/AIeP/Bb/AKHeL/wWXv8A8Zo/4eP/AAW/6HeL/wAFl7/8Zr9Af+IKz9lr/ofvj/8A+DvSP/lZR/xBWfstf9D98f8A/wAHekf/ACsp/wCq+G/mYf8AEH8l/mn9/wDwD8/v+Hj/AMFv+h3i/wDBZe//ABmkP/BSD4LAf8jtF/4LL3/4zX6Bf8QVn7LX/Q/fH/8A8Hekf/Kyj/iCs/Za/wCh++P/AP4O9I/+VlL/AFXw38zD/iD+SfzT+/8A4B+fTf8ABSn4Jq2P+E3T/wAFV9/8ZoH/AAUp+CZ/5nZP/BVff/Ga/QT/AIgqv2Wf+h++P3/g70j/AOVlL/xBV/stY/5H74/f+DvSP/lZT/1Wwndil4OZE/tT/wDAv+Afn1/w8n+Cn/Q7R/8Agrvf/jNH/Dyf4Kf9DtH/AOCu9/8AjNfoJ/xBVfss/wDQ/fH7/wAHekf/ACso/wCIKr9lr/ofvj9/4O9I/wDlZS/1Vwndi/4g3kf80/vX+R+ff/Dyf4Kf9DtH/wCCu9/+M0f8PJ/gp/0O0f8A4K73/wCM1+gg/wCDKr9lr/ofvj9/4O9J/wDlZR/xBVfss/8AQ/fH7/wd6R/8rKP9VcJ3Yv8AiDeR/wA0/vX+R+ff/Dyf4Kf9DtH/AOCu9/8AjNH/AA8n+Cn/AEO0f/grvf8A4zX6Cf8AEFV+yz/0P3x+/wDB3pH/AMrKP+IKr9ln/ofvj9/4O9I/+VlH+quE7sf/ABBvI/5p/ev8j8+/+Hk/wU/6HaP/AMFd7/8AGaP+Hk/wU/6HaP8A8Fd7/wDGa/QT/iCq/ZZ/6H74/f8Ag70j/wCVlH/EFV+yz/0P3x+/8Hekf/Kyj/VXCd2H/EG8j/mn96/yPz7/AOHk/wAFP+h2j/8ABXe//GaP+Hk/wU/6HaP/AMFd7/8AGa/QT/iCq/ZZ/wCh++P3/g70j/5WUf8AEFV+yz/0P3x+/wDB3pH/AMrKP9VcJ3Yf8QbyP+af3r/I/Pv/AIeT/BT/AKHaP/wV3v8A8Zo/4eT/AAU/6HaP/wAFd7/8Zr9BP+IKr9ln/ofvj9/4O9I/+VlH/EFV+yz/AND98fv/AAd6R/8AKyj/AFVwndh/xBvI/wCaf3r/ACPz7/4eT/BT/odo/wDwV3v/AMZo/wCHk/wU/wCh2j/8Fd7/APGa/QT/AIgqv2Wf+h++P3/g70j/AOVlH/EFV+yz/wBD98fv/B3pH/yso/1Vwndh/wAQbyP+af3r/I/Pv/h5P8FP+h2j/wDBXe//ABmj/h5P8FP+h2j/APBXe/8Axmv0E/4gqv2Wf+h++P3/AIO9I/8AlZR/xBVfss/9D98fv/B3pH/yso/1Vwndh/xBvI/5p/ev8j8+/wDh5P8ABT/odo//AAV3v/xmj/h5P8FP+h2j/wDBXe//ABmv0E/4gqv2Wf8Aofvj9/4O9I/+VlH/ABBVfss/9D98fv8Awd6R/wDKyj/VXCd2H/EG8j/mn96/yPz7/wCHk/wU/wCh2j/8Fd7/APGaP+Hk/wAFP+h2j/8ABXe//Ga/QT/iCq/ZZ/6H74/f+DvSP/lZR/xBVfss/wDQ/fH7/wAHekf/ACso/wBVcJ3Yf8QbyP8Amn96/wAj8+/+Hk/wU/6HaP8A8Fd7/wDGaP8Ah5P8FP8Aodo//BXe/wDxmv0E/wCIKr9ln/ofvj9/4O9I/wDlZR/xBVfss/8AQ/fH7/wd6R/8rKP9VcJ3Yf8AEG8j/mn96/yPz7/4eT/BT/odo/8AwV3v/wAZo/4eT/BT/odo/wDwV3v/AMZr9BP+IKr9ln/ofvj9/wCDvSP/AJWUf8QVX7LP/Q/fH7/wd6R/8rKP9VcJ3Yf8QbyP+af3r/I/Pv8A4eT/AAU/6HaP/wAFd7/8Zo/4eT/BT/odo/8AwV3v/wAZr9BP+IKr9ln/AKH74/f+DvSP/lZR/wAQVX7LP/Q/fH7/AMHekf8Ayso/1Vwndh/xBvI/5p/ev8j8+/8Ah5P8FP8Aodo//BXe/wDxmj/h5P8ABT/odo//AAV3v/xmv0E/4gqv2Wf+h++P3/g70j/5WUf8QVX7LP8A0P3x+/8AB3pH/wArKP8AVXCd2H/EG8j/AJp/ev8AI/Pv/h5P8FP+h2j/APBXe/8Axmj/AIeT/BT/AKHaP/wV3v8A8Zr9BP8AiCq/ZZ/6H74/f+DvSP8A5WUf8QVX7LP/AEP3x+/8Hekf/Kyj/VXCd2H/ABBvI/5p/ev8j8+/+Hk/wU/6HaP/AMFd7/8AGaP+Hk/wU/6HZP8AwV3v/wAZr9BP+IKr9ln/AKH74/f+DvSP/lZSj/gyr/ZaU8ePvj9/4O9I/wDlZTXC2FTvdjj4O5ImnzT+9f5HwJ/wZbHf/wAFU/iAezfC3UsH/uL6PX9Oy9RxXwn/AMEwP+Dev4M/8Em/j9q/xG+HXib4nazrWteH5vDc8HiPUbG4tUt5bi2uGdVgs4W8zfaxgEuRgt8pJBH3aoOa+lSP1cdRRRQAUUUUAFFFFABRRRQAUUUUAFFFFABRRRQAUUUUAFFFFABRRRQAUUUUAFFFFABRRRQAUUUUAFFFITgUALRTBMCT7UqvuouA6iiigAooooAKKKQnAoAWim76UPk0ALRRRQAUUUUAFFFFABRRRQAUUm7imiXNAD6Kbvo30AOopu+jfQA6im76N9ADqKbvo30AOopu+jfQA6im76N9ADqKbvo30AOopu+jfQA6im76N9ADqKbvo30AOopu+jfQA6im76N9ADqKbvo30AOopu+jfQA6im76N9ADqKbvo30AOopu+jfQA6im76N9ADqKbvo30AOopu+jfQA6im76N9ADqKbv5oL0AOopvmc0u7mgBaKKKACiiigAooooAKKKKACim76FlDGgB1FFFABRRRQAUUUUAFFFBOKACim76UPk0ALRRRQAUUUUAFFFFABRRRQAUUUUAFFNaUKO9KDk0ALRRRQAUUUUAFFFFABRRRQAUUUUAFFFFABRRRQAUUUUAFFFFABRRRQAUUUUAFFFFABRRRQAUUUUAFFFFABRRRQB/9k=;" vertex="1" parent="1">
          <mxGeometry x="30" y="230" width="796.4" height="170" as="geometry" />
        </mxCell>
        <mxCell id="61gPIwUsfcne1V818Iqi-2" value="&lt;div style=&quot;text-align: justify&quot;&gt;&lt;span&gt;Boot sector contains:&lt;/span&gt;&lt;/div&gt;&lt;div style=&quot;text-align: justify&quot;&gt;&lt;span&gt;-Bytes per sector&lt;/span&gt;&lt;/div&gt;&lt;div style=&quot;text-align: justify&quot;&gt;&lt;span&gt;-Sectors per clusters&lt;/span&gt;&lt;/div&gt;&lt;div style=&quot;text-align: justify&quot;&gt;&lt;span&gt;-Number of FATs&lt;/span&gt;&lt;/div&gt;&lt;div style=&quot;text-align: justify&quot;&gt;&lt;span&gt;-Volume Label&lt;/span&gt;&lt;/div&gt;&lt;div style=&quot;text-align: justify&quot;&gt;&lt;span&gt;-Format Type&lt;/span&gt;&lt;/div&gt;" style="whiteSpace=wrap;html=1;rounded=1;arcSize=50;align=center;verticalAlign=middle;strokeWidth=1;autosize=1;spacing=4;treeFolding=1;treeMoving=1;newEdgeStyle={&quot;edgeStyle&quot;:&quot;entityRelationEdgeStyle&quot;,&quot;startArrow&quot;:&quot;none&quot;,&quot;endArrow&quot;:&quot;none&quot;,&quot;segment&quot;:10,&quot;curved&quot;:1};" vertex="1" parent="1">
          <mxGeometry x="170" y="150" width="175" height="90" as="geometry" />
        </mxCell>
        <mxCell id="61gPIwUsfcne1V818Iqi-3" value="" style="edgeStyle=entityRelationEdgeStyle;startArrow=none;endArrow=none;segment=10;curved=1;entryX=0;entryY=0.25;entryDx=0;entryDy=0;" edge="1" target="61gPIwUsfcne1V818Iqi-2" parent="1">
          <mxGeometry relative="1" as="geometry">
            <mxPoint x="180" y="270" as="sourcePoint" />
          </mxGeometry>
        </mxCell>
        <mxCell id="61gPIwUsfcne1V818Iqi-7" value="" style="endArrow=none;dashed=1;html=1;exitX=0.171;exitY=0;exitDx=0;exitDy=0;exitPerimeter=0;" edge="1" parent="1" source="61gPIwUsfcne1V818Iqi-2">
          <mxGeometry width="50" height="50" relative="1" as="geometry">
            <mxPoint x="670" y="240" as="sourcePoint" />
            <mxPoint x="240" y="110" as="targetPoint" />
          </mxGeometry>
        </mxCell>
        <mxCell id="61gPIwUsfcne1V818Iqi-8" value="" style="shape=image;imageAspect=0;aspect=fixed;verticalLabelPosition=bottom;verticalAlign=top;image=data:image/png,iVBORw0KGgoAAAANSUhEUgAAAggAAADQCAYAAABiDpkIAAAAAXNSR0IArs4c6QAAIABJREFUeF7snQd8FcX697+7e056JZSEUEINvXfpHSkCCkhViiIgUqSJdEFQQKWKiKA06SoIiNK7AtIUaYHQQ0ggjSSn7b6fmU2U69V7X/+iqHfPvflgcnZnZ34zO8/vafMohmEYWB8LAQsBCwELAQsBCwELgQcQUCyCYK0HCwELAQsBCwELAQuBnyNgEQRrTVgIWAhYCFgIWAhYCPwbAhZBsBaFhYCFgIWAhYCFgIWARRCsNWAhYCFgIWAhYCFgIfDfEbAsCP8dI+sKCwELAQsBCwELgf85BP6FIHg8HlRVlSAoivI/B4Y1YAsBCwELAQsBC4G/CwIiCVHXdSmvs2X3w+z7vxAE8bCEhARWrlxJbGwsVgbkw4TaastCwELAQsBCwELg4SAgSEG2jG7WrBnNmzd/6Ir9vxGEmJgYnn32WQ4cOPBwRmG1YiFgIWAhYCFgIWAh8NARECRB/IwbN47x48c//PZ/fg6CIAg9evTg4MGDfPbZZw/9gVaDFgIWAhYCFgIWAhYCvx+BvXv38tZbb0mCMGHChN/f4M9a+LcgxQcJgjBfiB8rHuGh4241aCFgIWAhYCFgIfC7EBDhAF27dpXWA4sg/C4orZstBCwELAQsBCwE/jkIPEKCcAjD0LMsCD8BaqCgoGMgsh3M38ANaCL34Tcir4OuoquiNRFwIZrIbvOXmzIv8cgvPYqGJvqoiL+pv/B4g6wvMfCg6DZ+8bLf2OtHcblE3FDwKAaarshxCPzFoBUEHqr8zfxdl79j6OhySlRUA/OvigsdO6rA0NCysP+ppUcxtr/uM40fERZr00zsyS5d8uBaf7CcyW99B/7T6M35zf6I3ojfDEP4Hf+6qP17z37CxxxDdud/eRA/WS3F1dnX/zkDlj39mdX0l4rV/Dm9+TvN8W/p6x/1vvyWPvwzrn2EBOGgJAc/dzGYL6wbw7CDoqNIouAC7L8ZcdmWx8CjKWjiWUK0KeK/f4VriJQOKe50uU97VBVNN/Co4p7sV/bHndzczLNIh46O6rGhayYZ+bt9BAXQTJojsRI4mHxAEAcxTg1DdWNgk/OjYMsiCGbaqmq48Sg2NHQ8qJJYCZbhVt3YxL2SmJnXWh8TAZMemJTrASkt170kYP/yx+xN72Fi+K/PEYRdEAPDZId/E5IgcPm1enC/jNVPe062giLwf5i4/voKf3DreXDvEzPxi7Tm1/Yq6yX6Dwj8uHv9afP6T52OvxxBEO+6rrilNi61GPnWmOLrt36yZDeG4kGRZgCh5SpSU/51Ge4xNSihN0ttWsWjGlJ4mnUpHyAKgnKIVBApR4WFwWPqI39DM4LkABIWYUsQJEfL2nc9eOREiL+4wGPH0DyCDplES1hmFGHhEaTCjiaNNh5UgYGhoKtuVMOG8SPZ+62z+L9yffam9muCKlsQPmxB9qCANV+47NSmnywa/+mZ2aLtr0CKf2tf/nxBYtosDHM/yjoPxuy12Dn+f0ngH7UW/u7v2i/hYmH1e2b1kRGEQwcPov/cgiClFDhUA2/Tdo2hitfGNH//VsVc6sGGiiIFmGpaLBRT1P3aR+q/wjyuazg1DZsOquoyja9GtptDl5q1aEmY3z1o0izvUcVzQDNsv7mvv2cSH8a9unClCC1KcaIYwkqQpdnqCm7NiSKFv0kddNUlrxHETdU1YT5AV4QQ0aWrwSQL4ndhMxAWF/P3hy3aHsa4H3Ubpmsh29SdTUD/m2n8Yfb6PxGEB90dYv1n6+pZlg+ZJ20eovLoF7wp7LNtMnLZ/Vc/iVjz2T3/c1anOdNiX8rGLCtIW7gdfrRIir3uJ8ogt5osi86PZ8dYFrlfeAl+chmZ75V0mGX9/Dnz+zDfzL9CW4+WIEiBk73ZiN3HjBlI01T8PR4URZi1pfFemr1/s83T40ZXxctoRxdvmWGa/4Us+yVzt3iE2DI0wynMGGTavPDShcFcaNFCozaJhaIKQ3xWG4agFAqa7iFDs2PDjU1XBav4rXzm0a4HGQ/ixoNwE3gwFA1FbP6GjlMDm+4lXS9OYRFA/G6XlgVFd6LiJfEV1geP6sFmKDhFHIJiYBNET81yXTzaEf7lni7XviTJDwozITDM+Jts0ZUtFMS/D/80M3MDNU9LM0ndTx/RF/HbT5tr9qlq2ebx7H//uzD+4+A3cTTjhsz+iP6aCkF2v365fz8RBDPu4s+wgoj5Nsm4Ge+ho6qKqSxJ66OwLhgoqoqhiDGYMQsyHivr4JpswWeO0/o8uF6FopO9t2fjZCJrYfV/WSmPjCAcPngQjyAIUrsUxMDD+bNn2LT+cwrVq0P7WrXQFOHTFxq6DbvuAfX/380gNoddW9Zx8Pg5fHx8eLxtJ4oWyY+X4cJQhPvi3zeD23E3+OboCWrXb0SQv4oihWIKh49eZNfuL6lZoy61atXCZheUQATh2VF0D25VIf7qGZ7uN4mvtqzBSxdmB+1vRRA8Gcls+mInMRfO07Zjd/JHhLJzxza+PXEKj+pL3SrVSLx7Fe88RWlUuyLXzpxk+6EYej3XAS9DxZkZz/vvriW6ei1qVsjP6s/20q1rB7wR1he7dBIJm4P1eRABQV496JJ4qhi6geChIgbhJ3ppCrrsz8MXYqJt0QexiZr9EG+G2GizyYgUtCb9k93QPeI781pJHx6hAUFaMCQ+Oh7dZfbLMANqFdX2I0n4NYJgjtsMzHz45OsXVrvYx8RcZyu3io7ucaGrGroiFAwd7cfvsufejJWQcyNJghm1YvGDn+NroMvgaIGT+JGUMSuyytp9/i9771+CIJgbkMGV2POMHzkGv5LlGde3O/czNcLz+HL8+5tULJGPyzFXue90EBAYKK0NLqdC6XIluHD6FJmGSqYjkzJlyhEc4CsVsOH9OnI5MZj8+e2cPH+fLZuWcjvmGFfjXOTJG0HBgnm4ciGGOwn3CM8fxfWYk0yf+R69B4+iZZOaeHmcrPxwPmNnrWZQ32e4EnOVFwc+x93UezjS0ogqUoqIHH4cP3WWuBtnGDnzE47sWs2ty5e5fjOB0BxhlCgdLQP3xCv9n/Mn/i/T93vuydJQRUCi4WTKK0M5ei6F+jWLMG/RRmbPmcYXW1YRGBZF0agilC4awfQZM/nmQia7v/iQ96ePYtnn57kQ8w3euovUez9QslRriparxTvTB/DSqHfY9vl6bp49wvW7TkJy5SQ6Kj8xP5wl3e1G87IR6BtAYkoqFcqXJeNeIj/EXMbbx58KFctjk2b3fwnf+z2D/UveKyw2p44e5t0lq8gTlpu8kfno0OUpQgKDUBRTGCu6wvr16/EPDaNJwwZoWcRWxseY+1+WOdrUnH7MixDWuCxBJFZedl6QGYMjWzaFVNZ3CTeusWHjF9yOiyMqqgCdezyLl2hcE+tDuIfMbBaP2Hh1N/PnLuTprl0IyREqhZpwMYl2BeGXnyyX4B+vk5tWGIQbUXeDYifhVhyrPtnMnfh4wiMi6NK5M8FBAbJLJj4GalamjpiDPTu/JPZGMs92f9okCxI305+Spedn3WdmMkkCJd1pWVqpCCo1VJnRY2KbBYGcGtNKkU2mFF3H43aye89+Dhw+jK9NoX6TJsyeO4duvfrSqE5tbHJOxX2mRUE0KkiBcP/NnLGAnr16kyMkMOthZo+FpU9XNPP5fzzo//V9Eji7MtM5e+YH7qZl4uPlTZHiRckVGipxFZZdM9IrO4Yrq0mJezZDEoZcsV6FS/enCA0Rv5G9ds2xi9/NgRuGg9enzqJnj2eIiAxHVZzE3bjJpdibgnpRvEQxcoWFZs2z6TaTwfAiXkoxcDvSuBSbQIGoSHy97SbZlG5pAbPIaMuK08lye7tcGVy8eIk7CUkEh4ZQvFhhfL19TRf0j/36ySAobRnymVlvqm5w5foV7PYAIiJy/tivv8AUygl5ZATh4MGvMYQ2L/1xwpwtQLvPgunTOJ8WTOX8Ot9cN+jfvjz1nprMZysn89akGRSvVIJNm3bRqUtHvvziIItXfcCozm3J+1gzrh07RM1WzzCobzs0XWPMC93YdSmFQrl8UPwL8dbUfowcPIocRQpz7pvvGTL2ZVYsWkreyGD2H7lE784tmTV/Oe2e7sqowS+gO27RvVNvGvQcSq+2jXGmJnF030amLt5KhfzBeIIK0KpuYd56ezPVa+Vj8ZcnOLxyDqNHTyEsIj9bvtrB6k3rKJY3p+yPW2RF/B88Jf/1bfwNF5jBiEJ4iMBNgbuHzIxblC5Zgzc+3EDb+uWYOuolLtz2J4dfKvEOjaJ589KwWUMWzl5IWD4/4uOdhGo6+2PucXzv59gVnft3z1G4ZkcG9XiaOwk32Pv9DfZt+ZhF06aw+etj3LjpYsXK6Yx7cSgVatViycfLGdT/ZTZ+sYNZc6fxwetTUHPm4+SJ75g0axZ1ShaWKtKfYvX9Dfg9zEuF9rt9/VJ6vDKb96ePY+78pUx+82W2bzxGv+G9OLp3Ox63ymuTXkcNK8jSdydzaO9BTn1/kdI1q9GxUX3eX7SA63fS6ditCxWii+HR77N+/Sf4+tg5evQ8DR5/nEql8jDn/cUYKQE07dSc9Btn+ebby/iHhtCsVSMK5g3ny48Ws2TzEZ57riuKZlCtSnV2bdzM4R9+oHKNWrRtUJkVK9dz7up1ikZFsvKDFRSrUpFGrVoS5Ehnx4nDVCzTmNpVCrNp0zY0m0ZQ7ki6tG/9MCH7t7ak/VFXUdRMVHcaHi2Ud159hfc37+ON18eRnnmfFvXrs3X7V5w8+T0VKtWkbfs6fLV6Kwe+O0XTxjWYO2MG5+J9WbpwCjevXuDIkR8oVa0irZpUZ+7rSwiLiqBMySguX7jM92evUrFadZq3bECAZuPMd0f59uR5rl66Rq7osnRrU4eNn27m5HcXKV+jFpUK5eazbVsJCIqgUKlomtaqgjv5Gk07DaBXr16E+BjcSkznwL6v6NbrWXbtPcGYwX3ZfXA/hYpE4Yq/x7ovvsDun4em5XLQZcBrtO/Zh8E92rB27SbuZLpo264N3vFX2fTN9wQGBvDUk23Jmyf3H4r7rzUuaY20cLiIu3yRTj36Uufxllw/fpyyjZozqHcHLpy+wu379yhRrgTh/t7sO3wCRfGhQoWSODMzOXXyLJGF81IsXw4Onoglh5+NDNd9qTDWqFqGixdiyZErAsOZxPdnYihWvCTheXNw69p1EuMv0W3oTFa+O50yZUqjpd+kXceBFC9TgqDAvNRuVJ2aFUty4vQPuNxQo0pVMp13+P50DE63h0DlLsMnf0zvfl3o0LIRx4+fwa2olC1VgoT4KyQmOXB5NMqVj8bHo/PVjs95b/F6KpQrjdvQebJDW2zYuJ14m3LRpXE5M7l4+w6Vihfn3MULFC9ZlPOnY/Dzt5GQlkatEiUYMHwUin8EY17uSe7wfGba+F+EIfxFCIIqbJooqpN335zG2fQgauRzcPiGSv92lanz5Hi2rpzM3EUrmTCqN/VrdGTNls28NnkMU+YvZkq/jnQbMZnUA1+x+oLKuoWvSA1sYp/e3AssTodW5Rg/4S2GDx7E3KVb+HDleDpXqkfj7gOJvXOPaVN7U7pADd56ey7b9u5hwhuvUjAoDMOVRtdO3SjZshsjnutIamoii15/lVijBEO7V2bMm8soX8CbZFspXny2Ch2en8zSSYPoMXAcbbu15erla/QbNIzSUQWltudRhUIm2PCj84fJQE2pQAqCoEoNxeVKoHLpOrz6zhw6tKjLy/16k6zkIsgrg8o1W1CyTDS5cuiMGDmVSZP681y3ITzZsSsbth1j55ZF0jR9P/EixWv2Yv+W+Yx5eTjbTqVy4ftlDBv0Gs/36EKHp8ewZtss3pj2FlNHD6dxjeYs+3Ir695bQpe+7enYrhf9XxqKI+UOdZ/qQL0qlfEWrhrt0WH1h++wuofd6z+med8XKR4ZQViugiz44G2GDBhK07ZPcWbfXgaOGcnc16fglzea/p0a0uyZkSx8cwQLFi5lzOCX6T5gJOPGDie6aiXK5csHmck8038w7bp3Jj3pInv3XcZ55wZ5SlWkQIjK0au3KOzIZPeNdOZMG0d4ZA4CfPz4bu/n9Bk+GbfDoG6T1tSqEMFXh2IY8PzjjHxxDEXKViRV92b48x3AmcmYiVN55pXh+N5L4JMvjtO9Zw2G9JzKy68O5P1lHzNzxiRyBeSlYFTEHwqjtDPJAGEnqp6Jrnhx6uA+nn7+RbwUf+o2a8GoPm1o2GUQ898YwxuzFvPRzFF0HTiF1ycOBz2N7Z/v5NDlJKYN70zzbgNZ9e5UPlqykZeGtKFFyyF8/NkaiofYeKxJK4aPmEDVmrWILh1FkKaycf1Sdp1MoFfb0gwYNJcnWtfiVOxdBj7bnjGT59G0bnkWfLKZT5euJCTYj7y5grl+eAvPTN3Mp2sX4uWTQdL127w6Ziw9erSnXteR3D21l9dnv0OjenV5b8pb5Ctdm+p1q9KicjCtu05j4ozBbFy1AU9wHkrlyUXs5WsUD/NixelrzJs4isJRBfHz8f1Dcf/Vxg0z3kj8PzHmDG37DGXr56tZNH0mdzVfGpTNx+uzVpE/Kh9RZQsTnJDOscuxBOSO4KXnWjN49CiK54vm3JUM1rw/lLbdxlOtekUa1i3PyDEf8sm6N3nnrdmMHNCXF4ZPI3/ePPxw6TqfLZlCl/4TqFgykgWbDrFr3VzKlCqD6ogjX1RjHqtTm+atmtD8iVrsXPUpm3Yd5W5yOp2e64z73AUOfH+B0PDc1Cyak+kLP6dNx+ZE58zJ6i82o2l2WrftiC31Miu3nqRevRq83LcPip7JiLGTKVixKgM7tyI5I5Nv9x9k2tx3KVyyKP62nFQrnIcF+75h+cTRTJj0JlNn9Kdd7/HUKVaULw5cYP7MZ3n7zWUkqEG8PX4YpcuXNgnWX0QzeoQE4ZD0c8qwwKykgGmvT2T3rt081W8ExQPuMGryMuqUK8KafedYvWwsHy79nDGD+9C84eMs37CN11+fwqR3pjO8azvCCpfl7Onj9Bg3g37N6oPq4tWhfTh20UHJKD8OHLnGms8+oP+z3cgXVZgTpy8yb84cJkwYR4H8Odn77TmWz5rF66+9QaHaNXhj+DBpF9rz1Rp69HuVp9t14nbcVVo0q8a0d1dQoUwx/HNG0bpaNGNmvEuj6pXYdOQa+z+ZQ6+u3chXvAwut0a/wUMpVzRKMkKX6snyxns9mpfXtP1mmSvdZjqmNGrd5+MFS3hv1QZKFS/B/t17+WjTepYsnklaujcF8haldvlIPlq3k4kzplE4xI+rsefpN+xNPl8/H0PxJ/XuZSo36MPJr9ew+sPFvDZ7E0e2z6H5E8/TtE5Flqw/xudb5zPnrXd5dcQAmjdqy7KNm/h40SK6v/g8s8aMxmkPpVDePNRv257mdaqCav9HhxYZuNmz/mOeGTOPo4c/4/UxYyldrRE1i4TRd8QblK1ehZkTRzBzwjiMyNI0Kh5M856TGdr/SQwlkBG9OzB2+jQ2fr6LZ0aOYEzv3qiuOLr3G8WLw8ZA0gnem7eFs5dPUbhUdQrnj6RosWJcP7aNnSk+bH7/HbzdGh6bQsLtWAzNj7jzR2neoT9NmtXjZlwiVR+rSgE/O/u+vUDD9j3p3KQidhLo0mU0L09/E+flfWzYf4PRw9rSukZLOj3fn027D7Bm5ULy+If+4ccLmARBlz78rCQovt1zmMJlorl44RQvjZjEkM5P0HvibEY934V0TeHZelXo9eYatq6YgW7zZstH77Hx+3hGdnqMql3GE/fDDmZNfItWT9WmebfJnD22g3DfTN5+513Wb9hGcPHiLJ49kzwhXmxcs4Ijt12M6laTli2GULZSSb67dpuGVcrgFxZGoFcmb6z6igu7NqIrvtgMD86b52jSayyLFs0nV4CTQ9+eZ+2KD3imW1eaPD2MmAMbeefd92n0eFM8KfdYMP9dTtxII2bvUlp0ns6894YwfuAI0sNyUKNwESKKlIZbx1h3MZWN783FrpkOoUfyEQRBMc9CSb54mvbdn+fapYuEhJdjxep3eO3VsTi881IsTOFGUhqFwgvyycattG77OO3qVqJu16FMeLkfX+3cy8KZPek1cgMLlkyjVKQ33doOIE90UXS7Ny80rEa9PkMY3LsHK7ZuZVa/7ryz6WtWLxtHlZaD+XjGVMqWLYGiJ3MpNplVaz/iszXraPzk4+zf/A2FKpSHe5dRAwNJTlUZ+MoQ6pQpQcKVI7w8ZSNTxz5Pl64v8OKkoXgn3GLtznM0LRnMsQSD6ZNG4y0CujMzGTVqEsXr1eK5to/jcSYzceJC1EIF6dMwmkkzV1IiMoyPDpxh45yRDBrxOh+8N5xWA2az5rUhvDx1KW3bVSP+xCX0AoUY0Ksb3roHQ8SvPaLp+/maeaQEQZhYTYElI5/Y/uWXBASFUrpyFXyVNA4d/o7wnGHE3EigWrXiXIu9RdHihdm/fyfVqzbi7NkLlC1fnBc6tKVG286UrlSF2pXLoQmfqa7z3alviLl2E0X1o3SlshTJE0bc9ViOnb1M6fLVicgdyI0LZzkXe5Wy1WqTO8CXH06d5Mbd+zRvVF+GZemqk2tnr3Lq/HlKR0dTsGhhzpw9Rtyt+5SrWpHwAG/2HzpKYHAgt9LSaVi9FnevX+LE6TME5gincvUq+ChmYKQ4Xsj+yH2E2R0QPm6xCs2DqHSHzrfffcvtG6nUqF4e/xzBnP3uJNeuxpKpBRFdJAp3SgZFK5YhwKaSeT+Fo6fPUbdmRTyGD7orjW37jtKsQT0c9+M4ejKG+lVrcuLMcfzsfpy7eZPHalbk4vkYShYvzN79+6hWvT7Xr1wmslg0gUYGe78+gl0LpG6tWijeIqre9o8mCMKUc2TnFwyZOpcGtcsSf/0uzw0cTHS4QtMW3egzYhy9OrZhw4r5bNjzPVOGv8D4SbPJWygUhxZK5ybl+XzTV8QnOXmsZRs6t24G7hv06T2cMqWrcv1GDGWr1SIsUOXDJVsoWymKUiUrkXztGKfTg3lrzDAzoFbX2bNrE2u37iTCL4C4dIXenVqw8P0V5MwfSa4cOSkWlZ+P1m+keFQ4ZSqW4drJC5y/mUTl2qW4cPIEmt2Xy4nJjOzZlfdWbmTG1LF4+Qfg9acIqqx4CwNcisHKeQv5NuY0Ad6+uLEz8qVnGTzmLfLnCsNheDP11d70HzaVPDn9KFaiItEFczF97jJGD+3H/EVzCc0diaF58crzHenQdwZrV72LLeUG0+cvxKNr+IXmpf8LvcgVBJvWLmP1tiMUCo8kPlPhua5N+WDuciIK5CYwd17yhQawdstRliyfgY8820VHdd1n/JSp3ElIJsTbm8JVanDl3Cnat27GtJmLiCqcn5T4e3Tv8wQb1+7B308hJiGDea8PYsiQN8lTrCDVC4WzdP1OSpUuQGSp8oSm32T/ZRczxg9BUx9dfRsz5FyXB8vFXYqhXe/B7P50GYNffoXIItEEKhnsOxlDi8a1CA/PRdytK1y7cZNde88waUhPRr31AZ1aNcMWYKNnu8o07TqfhR9MpnS+MC4f/IoGz45h9OSJ9GxUlpY9RtKyRT1Uuy+tH4um96jZPNelCcNmb2Tz4jmUL1kQd/IVnp/wBrXLlubgN2eIrlwWd2w8cen3KVe+OJEFi7F/9w5cup28hQrSqnoUr7y2hDqN65F05QLXXMnYnTaKlCxPmDOWr+8EMnvSUBRFBKgbbF27ikVrvqRZswoYafdJSVU4ePMCNYvlJSHBSfMqZXnu1XcYObgzS9fvYePyKbR9YRqr3hjKsCmLadO+ORmxZ9n+/S0mjB5AdIFCZgbZX8Rw+sgIgjwH4cc0x6w0HhE4JBOYRfSuIjMYpK9cF0ceazKYxKW4UUVQie6DrnhQ3TpfH95L4ehKBOcOwcfjQRfRyyLtziOODHag6l7SbOMSMUaqjuYxA610myurHXF6oI5bE0FBHpmyaObtCzYs7gWP5jIDtTzijAMzylwcwCRjKHRV3uvlMbMsdM0to9MNvGU/bDJzwkseGG3/+SF5fzrNzz4RyTwQyYxcB7cuzpoQmSLiNCkDQxwOJc44MFRcMmpKx+5WybQZcgwCE3FqpDgnwoUmA9Xc4h4xT4Y4N0GcjeAtI9/tHuFeEW2KhFGBkwc0N4buIwOQZPyVokt8RIqk2IQFhnZh4VD/Im/KHzFPukFqajKXbl3F26USEJqTiFw5SLp3lf4vjmTM5DcpER2FOy2Zy9fuUiAqD4ZH5/qVS3jnyENEWABXL1zF5h1IZIEIfBQbHiOZHv0HMXDQCHJ4+RFeKJwAzc7VS7e5r98hT0RhXI5kXJleFMiXB1Qdh6DpGWncupZAhiOVfNFlCbLrxMff5lZCCv45clA4dy5uxd0k8V4iecML4eOtcv3KFULCcqLZFeLikggvFIKvEsjd2wlEFAhH1ez8Obk8ZqCiCDIzDA+qy8HFm1dwpWtE5A0nJCiU9PREYq/E4R8SKs3S6UnpXL95lVyRUQT7u7hw4QYRERH4aA4u3EgkZ9485A0I5vtL1yhaKB9ehpNzMXfQySQ8Ii+BgcHYcbNh/VLOXE2lfZM25CuYG/9gLxJv3yM+IY7Q4Fz4B9u4kZBOyah8wquHWwO7x0WG08WN6zfF20Bk4fzEx90iZ1AwaZn3SLjvJsDmRVhIAMkp90lISiN3ntyEB4aQkHRLmsbzReUl+UYCCY775IqIxNeVSHJGAJH5wtDMVJg/YsX+9zaFNSdLumWmJ7DnyBma16hFYuIlTl+Ko3yJEhw/doR7qR4KlSyALcXJhZux+ATno07NQly+co2YMzdRAn1pUq8y3xw+T60qZfD1D8Jw3GXbgeOUKV+GfGEBfHf8DD9cvoF/QCgN65Xh60MnceoKqW6dRjXKExQYhttI4uj+Y9xMuI1/UEGq1qyAd9pd9n17ilSnQcWKlcnhlcGKp9+eAAAgAElEQVQ3R86Sghdt61Ti6Onj3HF4aFKxAruPHsWpQM2qtchMvMQdhz+VyxSTZ5foYte7n8KxkyeJvZYgCU+Z6KKcPh1DQvpNypesSr6IIHbs3I+XvxceJZDGNaPZe/wCNcsW4cTZWPJGRuHtTOPgiQtUrVqY/HmLyan7n49ByE5zlBYE8WILTUaeVyiC6BRsutM0tWDgVGx4eYQ2L0U2Gk4wfPHIA3tMIW53gdueic3jI19CkbPvwYXq8Za/e3MfdD/zuGXVPNxICDphDrMJv7zqRNHN7AdxvfiIIxRUj5sMuxNf8Z04AlpSAzcu1SQOZkSqgltx4OXywtAEKRGkRhAIM91KZDGIzUtQBvPA6EeZcvMAQchObVPAI4iRPGLZJjERuJv1K3RUMQ5xgJJux6moeOsO3JqI8BUHRAny5JFnP4h503HhUex4iTMosOHUHPi4bXhsgniJdEcRxevGpXnk3CDvNfvkUjU0Ia7EuRWqmJe/34FT/30HfeAKaTpz41Y0bG4PhibOlhBr9x7pGT4y8lvRxHHf5umisraFeDfcYo2aeQl2j47TJkiWBy+HN9gdpLnS8NHCsKs6LlXB7jZw2MBLnM8hCJ3NkCRNcm6xG0liq+PRhOVNkL9MXJqPeR8K3ooDkX+pC4uO241bHJKpubC7fOVz5U3yzfTCJoiePJjMhc3pD3+wN+3HEwV0QVDB5hYHeYHuAs1LnIoqNwOpSOgipVC4IhQXdrHmdLEuTUKrGjJnA0W9j677/1hbxEwnFOMXYXdiMC68RFuq2PAN3E6B4X0U70DspKF6AuTpoR63DdUu1rzYb1QUtxNd8zLPWBEni4odSu4zLmnBQfEyMyRcIt3STA0WscRuuwtVTlQGhsdfzpkmszXEYWYuXNixi6VhT0fx+JlxTjLG6DetxId2sdhZxa4nloDQpcTx82KJOLwcaIYXqlDaNKfcC1yCLLldeMReqjtQJQZCHphJ0VLBs5m1XTQy5b7gUjSpcIiPU3Pi5VFxqTbsYk5s5r4l9iih04iD3STWDySbuGxOOc9ivm0eSLdl4uf2wW1zSonhJeWFguYxcGviTBuxz5tKjIzbMkeH4lbx2MUdQgHS0A03iiYUU1EWQOhYNmlFEURCKGEuRcfuEXNvR9fEuyQOmVNwq7ocg6mI6aZMEsHsD21Gfl9Dj8yCcPDgL9di+H3Dse62ELAQsBCwELAQsBB4GAhYBOFhoGi1YSFgIWAhYCFgIfAPQ8AiCP+wCbWGYyFgIWAhYCFgIfAwELAIwsNA0WrDQsBCwELAQsBC4B+GgEUQ/mETag3HQsBCwELAQsBC4GEgYBGEh4Gi1YaFgIWAhYCFgIXAPwwBiyD8wybUGo6FgIWAhYCFgIXAw0DAIggPA0WrDQsBCwELAQsBC4F/GAIWQfiHTag1HAsBCwELAQsBC4GHgcAjIwiHDh2ievXqcgyiwqD1sRCwELAQsBCwELAQ+OsgkJiYSExMDOPGjWPChAkPvWOK8TPpLx7Wo0cPBEHw9TVLkloE4aHjbjVoIWAhYCFgIWAh8LsQ0HUdl8vF2LFjGT9+/EMvQ/0fCcLatWslORC1r/8q9a9/F5rWzRYCFgK/isCDisDvfd+z2/q97VjTZSFgIfDrCOzdu5c5c+ZIC4IgCA/78x8JgkdU9ZO1jh5RZZGHPVqrPQuB34RAtmvtwfUvamyaJYhkIbCsqjuyWIws9yXKxYiKm7Kqk7xWFlx6sDqPKD4mKonJv/7suwf7Z9ZZF8V5ZVltUShKVk+VxYGyigQZoghXVuvye1GISRRV01EMURJNkHuPLCQliguhmYWGEGWedG9Z+VT0RRRH02T/NVmKXRbQEcVsRP9E5VNR4laU+lLMiqeGKiqrZuPiNgtFYT5HfETxKvF88SPa8iAK62joqllOx/Raio6Lyq+iWpOsE/sjIr80TWYhdFHJVXw0ib9HFisTFWaz7s2q/GOIccnCY6I4lSgOJIr9eMuiVaKwkxiL6JuoWuTGJguSiQqpssqpOYOy0JxZxMeGR3ObhbLk1IpCTAIrUdBHFCwT7WSVgc2qWinHrmSYRet+KnOXNVf/Yc5/0/q0Lv5fR2DFihV0795dkoM/lSBYxZr+15eeNX4pTMzacg+AIQSI+J+oaCoEgxAYQrAIgaLISpuaWfJUCgPxI8R0Vg0/2Y6pXetZxPvXhYV5lVNWKfQRpb5FDTlZWVCVzxEFz1EcKIYQ9E4MUdlOEaXLhagXJdJNAa4YDtyGHU1IOCHDbeLvQsBmC1ZTKApiIMp+q5J0mPeaQln0wY63qIBqlkc1v5G3K5IMqLKyp6ABZklxWW5cVpE0SYYbBVErVBAQwQ5EFT0JgxCu8l+XrKQnaIL6awqJoeNQFLwNtxS6qtuOx+7CJoiQJCIuDN0mK5DLGn0SK0GsRPU/UWbebtItUZ1PlJKXzxNzJAS9qCJpEgRRbdBOBorbF4fNibfbC7eWia7YsTsUDC9RoVaUVRcVThXsYm50uzk9ZMp2dUUTXAyn3SWrBCqGnyRVAj9zNVlKl7XD/H4EHlmQokUQfv/kWS38UxAQ2mj2pi50T5MyKELoaEKPVLALsiALxZtavhB+Uj4bGqosj5v1fRYkpusuW9j+u7AQ3whxKiwCNiF8DLcs22zgha5kCTdpORAEwW5qsIYNRf4rnuUWNW1xa8Jy4OZOQgo5cgfhpXuZ5duzhLDQkn+0BAj+YBOiXFgRTAEv+mBgkzYJWexdV3CoQkibBaRFmWmXKMObZTlwKQY2Q2jnolRuFnESo/douDQdu6HiEWXYVVF2V2jqpsXBQJQr98quz/7LC0cSBBVvUZIZB+fPXIecuQi3GWTqXoTlDDDL9Eorjg3FLR4k+iGe5CLx2h0OHTlLsxbVsfv6ZlmARLF387HC6GMSG5dJrnQbTtVDRsIl5n64mQ5PtaZ4gQLEXLxORFRubl6OIzSqIME+wqIgKKOKKgiYmmUVkXwshUXLNtC1U1cC/D3oho/okvWxEHgoCFgE4aHAaDViIfB/R8B0KWTbElQp/FWhKxvgUjVshoLqMWS9e6GJorqluJB36EJoC6ErDOtZJEMK9qzvf1GbNHBmpPPFxo0cvxgjLRUVH6tNi9qlmbdoFYF5C9C9TUM2fLyB8zGxZNqFCT2A/r27E5o7CLcjg927d3DyyCnsQXlo3qIee3bsp/tzXfC2eWNza2Bz4MYbm3AfGBpu1Yldt5meESOD+JvX+Ob0DZo0qI+3PYMrly7y6Rd7SU11Mmz0UHx+dK/oXI29wInvLxIYGErRkkWIzJVbWiF0YTdQsuwnnlRmfbSJQc92xqMKd0a2q8OFbthRVB1VMqpsf8m/z5ekU1lWDs2ZQO0G7QnIV5zuj9cjDQ1fjw/tnmrMiZMnKJqvIB9v/oqi+XPhwJu7V29QvXZpPlrwCY1b18OhBFIlOjcnz5wlRQ+iRdWCfLh+Nw2bNKBCdASXL8Zy/PsYgvwDsblu8O6ao8x6ewzhoRk832kiL08ZymsvTabX60PxT3dx+fJlajWqz6mvj3HPcZ9aVavjSU3lwtWLvDVvDcs/mM5Xe/ZQtFBxypUrS4C/GQBufSwEfg8CFkH4PehZ91oIPAQETHJgYOjCEC9EmLCtu3EqPlLM2z1uqcG7VbskC9KvL4WZcAF4ZOyAKszzgmgIX770gWe1Iy/8uUqpk3IvniEDBlCmdjMqVSxLWGQhXFeO8+Kg0SR65ef0/rVc+/4scXdO8fzYZbwzYwrVK5YhwA92bdzArMVreGnwWFJTEoiI8OP4N5fp+EwLPtmwGcPhwab40blHcw7vP8H5K9fp2KMrfpobzeMFGXFUq9Wc6FrNmD1jLGGueJ7qM4JWT3Yhf6Fi1KlZQprXwY5ipLLivUVsOxXD6CEDCfGHbduPcODot0x4dQj7vthNoiOdCkV9aPP8PNYvnMjuw0cpkCuE4NyFuZ1wic0bD7BixWICg4TbQ7hL/sOkGW7cig2b6zq1Gr3A4P4deO31ubwwrB+fLtjIyjXzWLh4CU0fq063cdN4uXcHUlMMbuzZT3SPBlzdE0+3no1p0n00E3vU4evL19m++wQb3x/PvA3HGPfKi+QJ8WfV4ncJjCzO2+8sYfqwTszeeIr5b4zC3y+BTk0HUqVhNT5duofh857nw3kfkz84F/7FIqlRtgIbFq+kbusmfPrZbqaM683YKR/w1qDneGLgEAaPHEaHNm0ICfB/CCvTauJ/HQGLIPyvrwBr/I8QAZMaSGuACNiTpnMXLkcm6fjh6wNeHp3k++moQQH46go2TRABYeRWTCu/do/te49SonBJ9uzZQWT+gtSvXz/Lf2+a4H+JICTfi6ffiy/iZc9FVOFIenTpxLtvv02NBg0YOXoSHyxbQ71qhSDlBI91XMBXWxdiF4GDwIntX9JrwHAqVK9LjbpV6dr1cerV6sqWHStY9cFiVn6yiZwhhRk39EleeW0uEQUjOPbtHX74bhOq7oNq3OfI4YNM/3AHc9+aQGDKKQrU7UGklx3vsPxs2fMJocKloNpQlQwunz3H2g1f8tasqYx7cxJrFm+hRqVS2EI0Tp+KY+3qxXgZ1yhU7Tk+e388B0+c4YXuHWjxVF9q1CzD0x2fp1jRCAxFmPZFAOaDMR8PTL8hAhRFwKaB4YmnXtN+bF/3Dt37j6Zag3qc3vE1g4b1YfOXu2heqzL931zA6P49SErN4Pr+PeSoU5W736XzzAv1aPLUEMb3a4dXaEEqVahIxr2rbNh7ktEDXwA1g89Xb8A7OJix095j2dtDeW/tN0ybMkTO98Ae/XnptWFMGTyHJ4c2Y8eOo7w6tC8XT8cyeeH79KzyGCkhGmvX72XuOy8xbuxCBg3tSZ7QYOYt20Cfnj0oHlXwEa5r69H/FAQeIUE4hCHMjxJJ4ac0g4mEX1IGMZlhUKY/U4Q4iaAsudmppjtURhaLiGoRMQ0uZzrXb8ZRIKqwqYXJACfhCxXalunzNH2jQksTQVagyWhvsSlr0u+qGnZSU+5y49ZtwvNHEewnNDhxpS2rHTPQSjzANPGKKOYH/a1m9LlsU44qOxJdaHaiN2KDzfLJivtUETEu2s4O1jIjm8W15r9mYBqGCO6SIWMouhnxLQcoA9V07t5NwMvLl6CAQDO8TQgb2YGsQDAZZS5QEnhmfy8ByRI2MrJNCpIfQ8TkdeYYdImZGVWeHdFuGOaYTFxNwSECwQzppzafbZqThR9ZzKZNYiX84rK1rPmRQXhZ2q6MSJcKso4MPP8xeC9Lx86KIBdas7xWmovNFSSN6rq0zZtjMB30WcJR6uem71xGg/80NzJwLBtz+YUIEBMrRNxhRqNnrSQU6UT+CQPR8+yQsAcDDuW6k9Nj+o1FX0SgoRm1L9aTuXbM9WniIXzSJvaZvDFuHJu/vsKyJZM4t3cPfV99k3c/Xk390sW4GHuVoOCc5MuXE1eSk0u3T7No+ae0b9mOq1fPkSt3JOXLlObWnSSCAwMpEBmOIqLq/uVjkHI3niEvDqFAsXKULF+SUkVCGDF6Bk2bNeHEoV0EFqrFzCn9UZN+oGHnOWz7fAm+iorwHiRcj+H0qVMkxMfzzvsreLpTCxZ/uIud+9fww8G9fPTpLqbPmMbnC97hs0Pf0f6px1m1/DCbPp0hA/FUTwbfH/6KyUt3MWf6BPySY2g75B0+n/sqRaq04f0NK2hauYoZsGi4uXrlMmkpaaz4aCk16zbkyuWb1G1Ujvh7SRzcE0PLVrUoVyQPrZ8dyTsTBvPl7oM0r1OFdV8cJHeeMJo2fpyCBcNlvIPtZwGd/4pLdpaESwZG7tl1jAZ1qnPtxjXSdTvhgX5s3/0VhupD48eqcvDMZSoUK8B93UPmnQyCQ304e+Y0SZluHm/RgkxnOt8eOkFqegr1GtTl1t27lC1SHEN1kxB/k68PfkuZatXJ4e/NhdibVChfBM3jy4mvj1GkXCG+Ox5DibKFSUlM4tsTJ4kqHMWdu4lkZjiILlmU3MG5OHBgHw7VjwoVinD88LcUL1mK0qVKoKlm7MXf45P9rmXtPvKVNgNc5ZsvQz0M4uPicKKRL08eGUGT4UwnKSmT8Jw5MDQFtzOT+DuJ5Mkdgc1my94if3yHxburG3KHNuNB5J5mPkuXpNHcV2TsjtxrdHSxmQkXn5BVWcGp8hq5xWUFyYr9Q+5F4q9Zf5P/iL3C3EX+rp9HRxAOHcbQRUyyjiEnAA7t28iW/ZcY1K8nZ747yM0EhafbNpOR1bomiIAT3fDCJoJzVBe66sbm8UUEDSfePMfwCW8z670FBCoeNDnBYoJk3DOa20DXHBiKlxm4ZLhk3LNLcWE37DhVB/Z0B3PnzeHS7RT6DBxEqXy52f/VJ3ywZi82w0HRclUY0KsT54/vZsO+czzfuzteqbcZ++YMmdrlMWzkK1qaCa8MQFN0PIa3jDhXDRceTbywQuTpGLogDi5279vCydO3cDnv0vKpZ4nOHyG/9yjCFCrGZ5OC4/rFIxw4f58OLeqjehzs2fMlR8/cxNvIoFX7zty+dY7g0HwULVJYCkibjNICt6GjyQUuFrzBhx9+QOsOXQgN8JN4y0jvH7mBiltBpmsZhg+K6ubQrm2cOhdHrvw5iS5SnDLR0ZIMuBz32b5zF8UrVqVonmA8ivB3CuJiRmuLl0qM23k/iRXr1hPgH0BIrkI0qVsVPStKXfrSFZMgij+5VCFIRUoZrJ2zgMe6dyI8OCc2VZBAMQbxdiq4ReC4LR3FI6K2RUS/+N6GW1WweUxxbmhONI9YLwq65kbRbRiqGYUvfPviOS7NC80j0u1En+0mMZXEQpjyZRidKdBl9LvIHgDNrePRRCS/SWIFQRXpe2YsoNgIhL/dbkb6/0i+xLWCBKbjULzw1sX1Bk5Nx0v45GVgoI6m2+Q61shk/vgxvLFqO+Ne7se8d98Gtx/T5s5i15YtaHaNO/eS6fVMBxbMX0ZEZG5Ono9h5MuD+frLdXjlLEqeII0Tl25x62Y8XTo9TbMGtf9tf0q+e4fBQ4bydO8XaFbrMXZt/5hFK76kSf3HSEi4xbYD51kyZwo5QpNo9tQbbNv8Id42MbY0Duzax/Kl6/CoDu47Ffr17MCA4TPZuHkRHVp1wD8oLwWKFmJEz85MnDEH/5Bgcucvyptjh8mNWM24xdOduvPN5bu8PKQ/L3RsRt9Br+LOSOdakoPlK5eTKzQY1XDL9ZCYkMC1a7fw9vGmZMlobsfHcfPmLSkI/P0DiIm9RKnoEsTEXCAoKBjdrZOcnEyJ0iW4m3iP0NAQvL1FCqKYT7ni/q779T+y3ybFN9N1PeKNcrlYs24rYcWiaFixFJs2bSNneC4c9+K5qwbRrnF9VCWTCzEnWb/5BwY+9yR2vwCSrl1h1pLlvDRgALly5JDywsBbCne3Kki4yDQR2UEmsRfWukN7drJ+/Wbu60F07d2JxyqVzYrnEb1x4BSKDSIOKJ20eyl8tGkH7Vo/Tt7QIDPbSCpuQgHwZCm2plIolAmXTWSiCIXy70TW/nWJPTqCcPAghtCGTZ0a1Uhh+fKpDHhxJW8vXwx3vub7qy7a1qmJLbwARXOEcOL0CSIj83Dk6Fny5g0mLF8Rkq78QHyqg5oVonmm1zBmL1zA8ZNHaf54cwINlY/XriU4d04aNmnNrs1LyB1QlHRvD42r18Tw8yX+5lm+2LKPkAIFKRMZSt8XBlG23uNMmvAKwZrBhzPHsfl0JnOmjsTwV8kZ5MOAjk+w/2waM2YvoPljRbl06XtGT3iLrv1GUbVsEbS7N9m4YzeqFkinPt0JlEJHlcRGpmZ5hM/YwcrlC7ibEUDMxeNUrdMGPeUKe/edoH7zZoT6ZLJm3W4ea/gYRsIxPt59n7dfG0rpcnlZO+8Dbqg5qFMmlAlTttLpiVKkOjzsOn4ex+04Oj/ZiAPHz1KwVBkqFM7Dl7sOkTtXbr5av4xmz76I814i3jadtAydsACNE9+dJdGRSoUKjXissB/n0/15oUc71s2dSUpAXp7s2IL9m3ayc9chVE8S0bUac2jPDnLlz0/rx0ryyrQlFMgTQoM2nalSyJc9J+MY1Lcz+9bMYcsVO2P6d5f6+GuTp+HONOjaoxMjBo7j48/m8f7CddQvX5Kxsz+kUOEwOrdvx+whIynf+xmebd+JooUiTEuSIYheMqoRZKarqSKH3LRgCFzdNjc2qXCq6JogGiI1zBuPlomm+6B4Mtm6bTOR0RUpV7iAKaA9oldeKKqCMyt2TYgOsZGYH5PECIIq1qrb5iVS9rFrIopcwyPSygQ9MUTqnx1Fd8moe5NqiLx2QVe8pDVEx4HmVjE0U3tRpWVLWKhM64amm/n8CunMe20S+2MTuf3DOZ4c2pPVk+fRc0AvZsxdwpNtm3Hs5CnqlizPrE+PcvLgLKa/vYymrVpzeMGbJBSsSMnwYOLib7B/x0FqNu/KpFHP/5tgEeQ8KSkNH38fvO0+6M673Hf7E+yv4fZkkJiSQQ6/3Ng1uH3/LjlCfLEJ/73Awe0iJSUFl66j2XwJCQokISWF3MG+JMal4FZcuLxsRIYGknovlfseHdUnBxHBPuiCtLrvcfOOU+Ju9/YjODgIZ0oCqRkubL7+hIQEYXg8aFKOmwRXinVVBHAKi5TAT3ypIs5SyT5HRfxJ94j0TnGdgSrmJ0tDNP87y7L2N9bo/okMQWZ5yLMxBH3PxO5OZsTweeSrXZ2X2tTmtWnzyFusGFUi/biQ4UuzKuVYsX41qpLMqQs23nylL1/s20/cme/44swpFkyfwf2kJLZ8sZ2q9RtSq0Qu1n2xjyDNzo0Mlaeeakmg0DRSrhFStilrl31IwbyR3DdSic5XgM+27CDJ7aJr5yewJySzbvt2nOnJlI7IwcAJH9GyW1Mm9O3Op59/xT28aNmiBak/fMPZ2BSS7R7a1G/OuvVLuG/40K51eyJyBf1tz/p5hAThEIbulKlT0uzrgZXL5rBtx0mu375Jq8bVib3vT0DyD3hXrskTFSry7rwlNKpTiufHz6PfE83YefhbunRozYZPVtP1uRdYOGMZTz/TiqMHD1G7SSt2frwSr4gI7ty6Rcf+L/PZ+2MIjapFpw5taFi3MY6MOKa88iq2HLk5vH8r1Wu355u9O6nf9imGvzwQHzx8MH0S89fsp23relSuWYuy+TRaPTmIzl2fIl31Y8yoYWTeu8Sgoa/Rd9hYahTyYeKoiZxLSCdncB5een0MxUKC0DUVm1sIMhea0CJ1D8sXv8Gqz49iuF3MWfwRHy+YTpu27egzagZNS+SiTfduzJi1kjEvNGDljngmj+mHoTj5ZN4C4nwjaFDOn+eGLKZPh8qkpKucS/cw8cXOzJg8lcA8RfnmyGnqVi5A087PUiiyMFOe60yPcWOZ9dYCZsyewcKpb/J9bDJDhzxHRGQu3p36Ot9eSuK9D2YSHBrAqnkzOXQqnkpVynPn0jmiStegWEQq7607SakCuWnUugUZMV9z+J4XPRtWp1WvkTzdshbFq9Snce2KrJg+kRivKMa+2I3Y2GMMHP4eEwd155vYsyx5bTUbdy/nnTnv0bR2cd5ff4LW1SsTlD+CLcvnMOCNuZQqkA9NugCE5HSRePcyTzzekfhbKaRjkK9YKfZu30BmUhqZLhs5cmts/vgjdhxNYtTofoT6KtxL8uATYCMgyI8Xuj9Fjaf60btVE1RHCvOmzeCjL/bhret07v8Cz/XoRPLdZNyqTnhoHjxGJnfuJmHHxvlTX/Py6wtZv/o9wkODSElOJsMIJCynL56UZAybH3dTU4nIEyoPt3E7Etm66XPWfP4NM+fMII9/CkuWruHDFetwKjnYu20ddtV0oUknmOlPAsPBO5NfI9E3D/UqlqVWnWhaV2/GoImTmD1nKeNHv4rb5sDHcY+OL81kw9IJLFnxKU92bcfe2e/yQ2AePNfu8NLQ7qz5aDU5SlTmtZEDfzyxNFvACLkpPDKako5HFxYlD25NaDymG+qnPIisA4aEG0ncIL7XhBlHZFl4SW1JymDVKcmadPkZSCuMGJJMSTRPH5Aamy4seFkHIwkaJnL4Dc0LkZRoN8xzBQw9S7gLjdLjQRXmYmEZkucOmCevSrOwBzRpmTM/Mi0yK1Mh+4RW4QqTrkDpZvnJHfVPFLR/3zE58WBHE3Ml01nv8cqwyZyNS6RS8Xxs+/p7nunRBa+bxzlwNRNvhweXXSF3Dh/iUj3ULlSIyauW0KNJc7Yd+ZbVb4+idsfhtKhWmi/2fc/XO2byROdxtG9QlamL97Nqy1walC6J5kimeeuOuNQQqlYtRY9eT7J50afsOXmC1OQM6rVuhH7rFtczPZQsWIyy+dxMWrCdp3u04v6Vm5y4eBFfOxQvU4tiAU7mbvyGXt3qc/3kFb48+TXRpeoz4LmOVChb2iIIv7I4f/UkxYMHv8HQHVnx2x4MXWHVsoVcTfbC794PzFmxjVadexOadgby16Z1veLMmb+YlnXKM/LDHWye+QrTZy/gjdmzGPtCT4rVb8Lq5TvYvGMZG+ZN53qCk0UfLGbgpAmEOR2EFirFuunDaDR4Kr1bNZObYcKNGCaOeYPnXh7I/q3LuHhVJzUlmZfGT6JcoQh5StriGZNYtS+WkYN6krdgHrYumsOijcd4rF4Zfjh5my93rseTdoshwybQe9gYKkeH8dmHy/n6zGWuXYln7Ow3KRcZLmMIbEIZFSfNGTY03cGureu4a4Ry9+pFHL5h5A3QSUt3k6T7UDzU4PrdTNyqrxz7e8v20Pf5HuQJD2X7+pWcvJ5Bbv9MchUsi5GUQJrTzXWHTt8uzdi58SsUvxBUbx+8HQncybSTP18BLh/eQlh0OWIvXqFk+VKc/+4iHtWbJs2aUCyfD/NnzODYPS9mTxmDv13hy0+XcyHOSfmyJbl+5hy5C0QTGZbJhn2xFHiQofYAACAASURBVMzpjVdQMEXCbJy570e3RlUYM/AlzhoBfDRnFr52ndtXz7Fi3R4qVyqBl11l+54jFIuIoEDpImxf/xkVqtfi9JlzPF6/HOv3nqNx8WKokbmI/W4X/rnK0aBBVXKGBMr89ezYCIwMli+dT2xSKEMH9+TOxa9594PVOB1uqjduT+z+dXx65Br9+/VHTf2BCzF3SHZ4MWrCMCb36USFDi/xTNtGOBNv0KLlEzTu2Ju6FcuRIzI/N8+fZO/hY6QkJ9GizVNk3LvFge9OkT8gAI8jk1nLt9Hv+c40rlmBT7ds5X6Ki6ZtW5IWd51bdx0k3L/Pq8MG4q3B/cRLvDpiClcyA3l/wVQCMs9TunZ3OrZ/muKVq9C1Q2N8pN9CHO+THTMjhKmb/Tt3kuYTQtMa1VC1VObPWULzVh24euksO3fuxjcomCefbMkBoTXdvEdgznBaN23I+aN7SQvJiZEYz9nYeEpGF8QnNB8t6tf4dwtClrdUMxzoireZn6+YZxGIQ4F+jK3JPigpSwSbbjshaqVIz8r1N5P8hftIBAJieMnNXroTss75MyV81rmP4oRC4QoTDiHdjVsVbr8sW2LW0etmh01XgCnizZ+skE6zN9Ii8KB/98ErTcpgHhqVfZ3pzrRObv1rUQlB7GS8liStIpX3HqOGz8AZFEqbGqVZvGYL9Rs3wOvWab46e5ukJCeTJozEcMaw5OM9uG4l4V+lAi80r8nIaW8zuldnnuwxhpnTXuHr7y4w5JnK9Jq4lQ/f6MaTnaczbtoAGlSvBRkpbN29E7uhsGL5UkIKRnHhRCylq1ekUv4Q4lPcHDp8ht4v9qFGtVI4rp2h/5Q1TBv/LC/1HceTfXoR7r7Fp4diqVoqB4evp7F44nA2rviMbceOkp6h0LtvV2pXrfLXAvw39OYRWhCOmARBEXEF5jGrK5bN50pKMEOebk67do9TrFE3GhXwZeS0JTSsX5kUZwbtG9di/Hufs2b2GGa+/QEz5k5jfN++lKjbgDXLVhFduhAxt+MZPmIiMfu2s2brVwT4+fLiq5OYP/FFWr/0Cr3atJHbkZ6cxnuLprNh014UuzejRr7E8mUbGDxuHJWjIuRpZQtnvMbe2Ew+mjeV5ITztGnelRGvTSHYN4PXJs+m9/DxPF6pIENGTODZl8dSrWgo8yaNZc2WvWi+OVi9YS0Fw3NIgiBGKTUbqSk5SE4Vh9MY2DUbCQlJ5AjxJzEhidx5C6AaqdyMSyZnrpz4++pcu5ZMSEgoAcFepN9LJCHJiY+3N7nCw0hPzkRXPbhcGgE5vSEllTtJKXg0P/KG+hJ35zb+gaH4aCpJaZkEBXiRmJhCUEgQimbg6xuIpqaxeN4KQqLL0b55bbzcGhmpydxOSUNXMvDFn6AQf2w2nSQH+ClOUpJ0cua0k657ERKoMblnH0p2H0zb+tXQRPCh6iTl7l3upaWROyw3HpdOcmoGuXOF4HTcIzER7F6QK8ifBIdBDruKx0fFV3dy446T4PAcBAtpa0ZuSFGhelys+PADLqX6MGxgNxZOm8D5NC/a1SvGsLGrGP//2DsPMCmqpQ2/3T0zu0vOOWeBiyhJMigigqCICQREBZSgKEqQLCgqCIIgCipiQJSgophRVJCkSBAkSM45w+7OTHf/T53Tswsq/hclLJceHxV2e7pPfyfUV3WqvvNwM2Yv2c0Tfe5h+qQJbNp+gq+/+ZmpX37AmN4dqHRHZ+5pdj1xyUf5atYcPvl+Dj8vWki1utdzYvdWSMiGfXIvh04YZEqfwH0Pd6FoznhWLfmNAWMm8u7ECbz5yvNkLVyGigXS8fQrn3F9vVJkzlmeBg1qUrxAAb3tYBxmw/IldB82gwkvD8fasoBGPUYz8rF7ebjnCMZMm0rtYrlUpr42jUISJDFXbzlINr3sl0voNdEKELJloyWJqAjhmKIoaBFyE1VJniRDyZaKLVsvhk1I9IqtgN4ascTj/us90NRcMNm+kdQtnVehbblO8pLIgBh8mZ86GdVLfD1F9lh0GESPISo5QcqPD2Ip7SbdZ5JUm+q76yRdXZIpu7eSGCalmhKN0LLMKoFVGf7Ys/SK5nGMUwy8d9cULeiUdFcvpKCTW1MJgRAGnyCchX24IJdqISmdfG3Lrn/kBD17vUCR6lXpfHM9hg4dTYFSxQnv/p0lWw9SOG92Zs78msrVioOZi5tql+eB/i9Su0JZdh45xtuvDGVI/+dYuXE7OXLn5c3R3Wnd8xXGj+jK7XcOYNCQnlxbsyrG0b3c07472w/sgFAGej7+EM7+g4waPxE7mEDbTq2JO36cl994j1AoEy8//zgDBj7LMSNIx7tu5blXX8N2oHu33pzc8hPztkV5dUgnxr4wjremzcIlKy+MHULNqlUvWVJ68QjCwvm4toQpvXxxR2u6S7KaeB+SjJcckCQ9SdoTXyVABIu4qIFtaaU3FaIkQrIRUOpnthnEipgkBV3iHQlnWpi2qcL6BiEs5wSOm14nxQWSCUbiiAQjWsZUJZ5JqEsS9EQfXZ5rqr1OSd4LOslETFFxi1PRDrX2mQ4nTZN4JLzqeVbqfYQNSza8ofbFlR67Wgz1u9mu/D+ZsBVUCS6SVOhaUWxHEjCj2PLe8nxLJFxdhYkK1YoREAU3hZUWbpc/y3cdN4oVjicpLqwka1VSrXh1YnLEWksaoZfBK0lzkoCjMsBk8RdNeGm13EPaKu9ppyfZCivZWTFChiTrONI/lhLWcc0kFUoXQyI7AJI0JMmNYqAsubcdLwwBJyipPKIAZ2OKoTDCRKTOXBeDKMMRMSUfQPDTuQay7WRaySQbcYREWlbMk+AuHq5znHfeeIu1J+MZ1Lktk4cP4ZeTJk2rlaTb0+8y7Im2fP7lCvr2aUmVK5sx45vpDO79DM+88hIj+3SkXov23NPsRg4d3cXI0a/zUJf7mPr6BKZ9v4qKJQpz3Q03Ua/mlSxZ/CuvT3yLDv16cWWudPww7weeH/s+H33yNuOefYZMJcpSNi7KkDdncn29SlxR8TpaNKyi8h7CAcEvkbWLFtNn1CRefOV5ckbWUO/OZ5j+/BNc1+4Rxs/4lHolc3qVI3rsKKkjpf8vnryBbTpEXIv4aJhkAcyIxxVZHjsOV3IcrDARNx0BR/bhRYfXVSp9Ss9fkSqDgBp3Z8qiFqkhyY0Ri+wRE5HwVUnAyTLb1D1tMwnLTYgVxfzpbjG/XZ2HYAdUYqiMDUki1iqJ0tGSn6ErioRGBL3KEYlDhFQkUciNVLFoo5+aRqj/rsnMHxMMY+dQaEnqU+phPMIl5OB0G6eLdS7drPILYrEv9ENUtCkm9WWqoSJiYJKEEhVBLJGdJoJpR0m24omTtd2OU2MkKSiRqGQCUZGZ9tZqO0DU8tRJDZtgxMQOyFqqR5ZthbGNKKFokHAgkZAdj+OEsINJ6s0laV0IuutEJKUIEeWMBiUJXbKSZGxbKj1JmihrXwSHEHJeiMxaLVMekHyjgEuiY5GQsi12oYH998+7eARBkhRlkTgtpPjvX8i/w/8aArqESPEs2XR2E/l+3o/sOWLSonF9juzbyvARL7D7SCJdH+9LjsABnh/+BoXLlMVN2s+OvQeww5noOagzM96dRqWq1ahT9WqOR47z+vNj+Wnlb2TLk5+HH3mIgzu28dbrb7Av0eH21i3JGR/l7YlTicuaiU4PtOf9yR+wbd9xej52F+PGTuRkcoDefR9i6dJfKVzoCqpVKqvtlJvM/n176dq1G7YTpOYNDel63z1Mf2Mis776hmrXNeCBjveLScS4hDOcz8dIU/nl6kwGqaYJKVK6c8dG1m8/SPTEMUpUvopCGbPgBKKYdpxOAFXE0SASOcSaVRs5fOIoWXIUonzJYhiKPAvBFVItFS2miuYZJLJ57U4yZM9OrqwZCQekmin+z5IR5+Ml/Xv6CFwiCPgE4RLpqMuzmV6I2tMt0JvfUqYomewSudB6FsIeJG5jyO9sqXCQMkYpI5SIheStibERDQspwRTjIFGRqNL3V3XO4rlKYpxXsihGR0WnJGdKSlTVCYFSeuoQFTVAFXGSaoQojndioePahMygpjISLnUcZfzlrlEp+xSVREdcDgs7oEP+Ugrrl9z9wcOXLQclJy3nCgjmyXw0YzKLVmxi/4bfKF//Jkrkzsvy39dyX5tbefe1KRgZ09Om1R3EZwgyd+bnfDRvPm3btCN7QhIvvfEFj93XkkVrVhJJgjrXXMXbUz+gdOkifPnxHO7p2Jafli+m0bU3cUXJEn53XJ4Ljf/WZ0DAJwj+0Ei7CHj6AjqJycAR/QgVipRwgmgOyNaDLmuT8LPKVJeSRxXukwx60bvQe+H66GQpf9O11irKrL5mqkoJSZaTDHt1LqJscXl5AC4ncFSYXOroxVuVcHu8EtZS1TdOHKbSMtC6Gqcer6wiZFoGSYXAJaCvDleSPXjvqOZUMai02w0XtmUqkzdW3aiEo2Z++CZvvbeASuUKcUPTevToPYKSJfOQpUQxDi3aRd8X+pMnV0YCgRDbVy7jtc++Y8Bjj/LTDx+qcuSeLW9h0LixLF/6G1eXLsbRhDw80fVm3h71Fqs3r2PtcZOZb48nU1zo72WYLywQ/tN8BC46Aj5BuOhd4DfgjAikZLZJHoPef/b0B3XpmkqU87xwleAkkQTJI/FCyrJ95eW/e6KS3j62VlCTcj5lvlX2W5LKOZHdRMkbkURSMeIq5B0T3YolyinPX7QQAmojUuecxNQ/U09VTDlRUaUW6JwUlYniqTzq3Dp/P/zU/lenLroh70dCFiJ8/tl0dh5Kx71tbmbnxmW8PeVz2rW7i+83b+GnKfMZMqI38fEq6MCmTat5/8t59OjYnl8WzGXVgSOUT28y6+ffyJY5O5mCAT6Z8xNDnnqAKePfo0H9uvR/8U3eemMMhXLn8PQV/DnpI+AjIAj4BMEfB2kXgdTaRtVGfbKArqvX8sepme4p+e6OJPdpGW2V+KSS4URjXxJetbSx2oeWRH9PLlolrYnKmkrUkxI/LQUtvEAJbasjdnVUQrT8lTqn65X4mWFdcSCVOKfIPqv2qvwa3XJdbicyrjrZThOW1KqAtNsJF7ZlKhIjx0uraE0yRjTAgb3bOe4GKZI3hxK22rnpd1Zv2ELOkgUxTxiUKyvZ7LKFZHP05DH2HDhCyYJFOHRgH0fsCEWyZeCruQuVwNZV5ctzcNcOth07RHxCJsoVL6qqdY6GDUqVKKwiVP7HR8BHQCPgEwR/JKRhBHQOQorUsrapunTuD8Y1tYzOO3DHq+uXrQUhCvJ7Ja0sZX+2RbIFcYoURDCVuI9XCuid/aE3MmRzw9TZz5Y6G0lVX6hs/Jhmu+i7i3yzRC08QuMps3vHW8jvtbZiqr57TIhICIIv+3t6BCGC4UhFg5Q8JmNGvWOLLelXtAx51MWUahgrjpAkrqpzqywCRgTHkcogqWCSeyRjqhwRwV4InuHlmjiisKQqnBzLwIxEiagjrf0SyDS8GPhNuwgI+AThIoDuP9JHwEfAR8BHwEcgrSPgE4S03kN++3wEfAR8BHwEfAQuAgI+QbgIoPuP9BHwEfAR8BHwEUjrCFxUgnDaSWx+clBaHyt++3wEfAR8BHwELiMEJk+eTJs2bRgwYACDBg06529+xsOaFixYwJ49e3wlxXMOuX9DHwEfAR8BHwEfgX+PwIwZM+jSpQv9+/dn4MCB51ym/G8JQsOGDdUDdQmY//ER8BHwEfAR8BHwEUgrCOzevZtff/1VEYQLGkGYP39+ChvxCUJaGQ5+O3wEfAR8BHwEfAQ0AuLAy78XJYLgOA7yr3+6mj8cfQR8BHwEfAR8BNIWAlOmTKF169aKIDz55JPnvHF/u8UgSYoxlnLOn+zf0EfAR8BHwEfAR8BH4B8jEEtSlPwDSVQ81878GQmCbDH4Wwv/uN/8L/oI+Aj4CPgI+AicVwQuWhVDjCBovXpf//y89rJ/cx8BHwEfAR8BH4GzROCi6iCo43B9gnCWXeZf7iPgI+Aj4CPgI3D+EbiIBGEBrpym553Jp19Vn6Ynx9vIyXfyN/0zOXJXTtFzMeQYPNfFNl2slDN8DXU6nj6Sx9EH76igRASXgHqCHNqjDtlR99cn6snpfPJzVzI11f/lmF853Mf7uXc2kPz91BjH6fGO2BflyD+50MD2juA5H3ERjZc6fcZ7Xgy52Pvr8w7VWYeqejS18a76jXw0tgpLgTN2BtJfjjd1VrF6L31dDMPYt3Q7Yl1xPt75/E+DS/8JqjdUV8TGR2yI6H76637xRpM3N2InZJ65D2UEOWouylySI6j0vEp9ljwpNnv1oVqW92zvWG49zU+fUGkF/pTDtrwDwk5BzXtFb42JNfgfjHbvmHE5pOu0w0pjJ32daQ7G2pIy7c8MojpbTJZB88LDnDoOY8/W64deH045fl392VvvU3CX70TBDajBrNcx7z7qGjlaXdZz+UQx5bh174LUdTF1gKUilHqUW+q6edpKGhvC+vkEvEVVDgzTJ66q0XtaO201tvUZraljOvb+f5pwpx3kFhs3+od/bklamRAX9TTHhbiugCwjWeyPwCzdoDvfIaR/jpy452B4g8aQU/Rsh0hAugdMR/7r4JhyRK9sV0TADekBKREK6VxDaIEsZ7JgBbXhdME2I1hOUB8P7IBjChExsA0hH6nD2ZbnpwzWP9ADpeEQG4DyDtJemf4eETknfX3qUI+AvEPsREOPzQgpkeOL5eMY8nS9IKdSLT3MvXMFvd/EBvaZTxRUi42nU+HxCTVxFbHyCIOaIuoURMEmgiGnI/qfC4pAal9oAqg+rqPGglpD/2RP9A9SjYnuvVPoxZ/b70LUiBJwAur4a5sAgRRi7R2vfcps0MuqPpY7tvDKUPJOur6g+JzNw1IW7FMIg8xoR872VOToVGL1N3c+ncN7fSKQiOPiHWmdYsz/DnlxPiztuKSYk1MI1x+aEAZCUTjFfl4wUhYzkLqtMcsphl3WrFMHhyYAyujGjm83ZCVPwnLiU61x7Lc22FYyFnHqcjmFVdYZ7dCpM1dT3vHv+Wesd0+lFJ7To/orEcNN0DbDMXBM3ZTY8fCqB1Q7o1huwCPk0j+a1OhPzJkS+yZ2SRyxVEJ9KjYKgxSqmEqOLjy1++txfBEjCJKkKAB6x+DKwqFP2AUjrI7ZFdBlWgrAypgT9BY07erbhhhF+cqpdFmOfxUjGo/8V8APSLTAM9hqoTIs1eO2FcFygwgBsFzpeOkgMXY6CmEYtnesr3CN1FyJWHKl5iAWmEJoAp4xtrHsKJgyYLwjhM9mdfrLa1M9GpckDOIVEZEziHUdiK3IEra0JdWjk0Et3xTOLQRCHVVsys9sRawiplANeYlkMOL+8smajpwysdWRu/rJDnJkrkBlexPVwvTa9a9f2b/B2SGgjHeEAMHYcqvGhXhcf+XnxpZHNYrsRGwrQV1nKgt+Bs/4tCibJt3yUeNAkfoApkdSo2oyo+eeIsx68VMLb4xpnt0bnverXc97lOmv13nBQjxKGf9BbdjdoIJHG0LHW7RSmxYzESqO55gpBkYFPk8JnGgTEptYf3/kd4rZUceTC9anREL/AhXdpyC+U8qd/95qnmNswzq6JJ64CxEjQlDw8yK8UUPGReraKEd76xHnolZ5dTS3hekK1YlTxEh6Qe4gmLuK9CaCq48Cl6iZwtsjb380rqn4SX/JnNBzJDUioBdG6XfH1GRDrXtqbdORVm3U9RjW9j7irfsJ6j76nVwv4pBKAFU/qzkgbdZHmauorRfYVfGK2LyKOalniPed4076r253EQmCbDFIZ3muqJqQDq6QAvmReZIoetGSwY6pw+YyYW2CyuNXi5NYKBXqdNi3fxcEspMta1CxOzFk0jmWE8E1QqqTLY/JiXel2LhSctQsTv8jWxnaa9bM1PRIQswb0h2uPTIdkdBria3aYhPyBpbmhufko54lWHmhYkVmxCif7lXINNJRgpA3+CMaK+VJSrRF6LCQH00uZNDG/JAztfTUdUX/WQ/+WDTCdFxcM4LhhjRxOLNjc06g8G9yJgT06JUImx6QERyCfwiLpoZCU0Om8icZt0HNLf/WkJwWM/IifTJDhMy7RA1DB2c9Q6YjF97PY/dVi6A2H2nt4/m0mlWrRdwzHMrCaCckNWyf6i2e+h6xeKLMD/m6bRpYjqG+F4NAzKCpCIfMQ1lPPKNzBkBSqYSQKyEJAWTeyZr4lx/vQZpGKAt64RzSlO0EbfBlxdIrhvayNRnQ4yWlUSmvoaPJ4immYKUiTuLUyU+Csa5R7klAhYmloxyipqIj3gCPbXvqG2sjLdug2tjbRsz717/TLVIDU0XGxKVSEVrV2RKpEKIj349t3toYTkA5WGLcDTeCa1p67nlREHFQ1T1dU0XA1Xi3IWpFlcOm11DtuImtUc6uEyFqBgn8BfG8WHPlIhKEU7cYBGWHEycP8/70maz9aRkRMx4zQzra3X03V1xRhICjmeSx/WsYOvYjBvbvTTrjJOFAOhUoFXDHjBxChoK1aHvbjQSNCDtW/8xr73/J0ZPHqX5tM5o1rkNIOkH8belcYdneImA7yUx77wOurlqL4iULEXRtooalIxRCZAyJKBhK2Mk0XHZs28L0qe+xdeduqldvSJNG1Zg29W2WrtrOFWUq0fyOpuTOmunc9KvHZGWEqa0WWbekYbLwGGHllVl2nNoqke2RkGKyEtry/H9ZTKwItng/altGoieCmd5LVjc0vH23P7ZYrZHiHcpE1LkdwjHUaBeCofboZMII4Yiq54qP438uLAIqKiQRJB1KAle8nbiUvBshb9IrMa9JGQ+1wDqEDZNQqlX8G2OiybgODXves6O9MvGwZcFU21GykMqPZQk0TLUgy6Iri6mK96mIQhr9eG0UY6LdAz1FjFj+kopOBlREUczv6TZaJ13rCIyBa4sRFzse84/1pk4Yi5CyHV5+lfrz321JaicqbEhQPYphi/PjYv2JIHj0JGoS9bbnxdSKUbxwHEHGiB5XytkSCKKGCsCo7VdlFmWNiCryGDaChJT91t8zbI+EeTjKVoJ8WVMGWd8cFf2UJyRGD/Pbqm0ULFaYXBkzaHJgmES8yLKQKfUd08JyJPIQIx/ybFnv9FhUW9NezpYy5SqCHME2ZL3U26eKmKntWyEPLpYMaSvKto1bCcclUCh/PgLqe+JQxoJwEnXWREMTEx1r0/6uRDxk1gZUNFYi0eJomU4Q11S0IU1MkItIEE7dYtC7n1E7kd179zLvk8n0G/0N0z56nXK5svPz+pWsXvErdevfyJoFH9Om8whGvDaaa4pm4/uf15AlW0YaNWjCsH4dCVxxPf073YdlH+HWWjVo1LYXVWr/h/1HwzSoWZp5X/3Ext07ufXWO8lkJTJ77k9s3/47tWo3pP09ralcrxlD+tzLkmWr2bJ1Dw0bNsKI7mXuonWkT5+eqytdRc7sWdm6YR379+wkGIJufccw/NmBHNu7n8zZ4nhh9Ku06dCRG+rWPDednLKX7GqnwzgGZFKTKmJISE7vNxunZFhKiE4ulUVZwl9CeGThctRglUXvJE7Y4fsFCyhWsTqFs8sE+6uPeKKy1SM3ki8KudJ726aTTNQMYdkGUUv4fTI2cWlkaJ8b6C+VuygTrO23Mh5i2BbNepuFm8NqMbr1rtvJnT2rHiuGS3LycX74fj4lylWkcN7cmF4kTrtwZzDfXgKvjgxEiRgBDmxaz+CRI3n8sQEUKZKbpIO7mDV7Lvv27sEMZCCOg8z4eQ+fvvq07Ix7uT8ej0lj4GqvVXv1sWQ4GeM6X0k7KIk7N7Fu6x5+33OMlk2vPz2G73gRAZUYHCAi807tnXvvqyxHBKIOthWv7KjMUnFYFHn6y4CAgB4laso1OtoZla1BEZmz/mhEZK/fYdFXP5GvUjnyZ8uiCEwsAVt70+f3o/yJlOiut2kQ3kLNhp05sOMYWfOVYeIbz3NF4WwkWTIiZKwKQ9BkIslMIsFJZtSzk8hQ7Rrur19NbfUS3sH1t3Zj06aNZMqdh+4PPcyd11Xgoy9+okrNehQqkF5FSMWo69w1r2vUC2vyEXVN9i6Yxk2jFvHTlCFYAaEpQYWpRDjUNkHEwg7qEJLlRnAkn03lqIVVYvzuZYvp/uSzrPxtOzfddw/5pYNzFKNLmxY6Qi0OZGyb2stXsCPwxvjBpCtYg7tvbqD8MblW1m/Zjo4G4tT2hKYFQkSEpJzvnvrvxsFFJQiOeLhqL8oQ+6b39lyHBZ+PodWAb1n2yzQ2fDGLe/oNpUmjemzdvJ9rKxblicGv8PTrY3F2bGLn/j38tmYDFStex8nt86DidQx+4D5CzlE639eOeSuPcWODqtx5Zzt2bZrDU8PeJEeh3GSMK8iNdYrw3swfqVmjNEWLVGf8mMFUqH8H9cqZDBk7lWoVryJsxNOpdS3u6fI8997blrat7yZntkxqf2zV8mVMfuMtNp8M8cKLz5EzLo49u5bRv89o2nXtTq2q//nveuH/veo4Dhl0spkT5r676/HZN9vInCFEva4TGHFnATo92JYN2W9h7vhOTBoxgKfGvc/mfQGKFc9Kn8FDua9FMyJHdzNhcG/GfvYTuOno9tQz5I2LUqVyBTLEp9Npj5ZF5oyZSE48SVLYJl2m9FgSFXCjzP1yIk8MHsXefS4tOzzBY/ddw213N2frujClG7Ti7RcGkCm9cpn+3zfyLzi3COhkQ80QorId50K/VpVYSQ3qX1OOO1rdims75MyQkX0HDxIfSKJT1x40uLs9Dza7ib37tnM82SZztkxkSQixe+9hIq5BkXxZ2LLzECHTIeymI3/+bBzeu4eTxw+TlCkX6Q9u5oG+T/Pssy9QvnhBdq1ZSIv7e9D8lqbEZcxF4NgGRn+zibWfTmD7toMkGxbZs2ciU7zFrr37MQyLkxEomi8boSBLywAAIABJREFU+/fv52RilPiMmcmbM+u5Bei/uJveUBCqJZGAoA6scYSP3p3MtDkrufLKarSqW5Q120/Se/R7/DzrJfYcOgaBOHJmzYRJhDcnvcnSX3+jeNHSVKpVlfJFyxJIiHDshFBnl8OEKGLPo87Dc/jy9T4cTEwkwcxIKGBzIjmZhKDBkUSboGmQKUtW0sW5THvrbbZaeXns5ozUbfsJk8d1J0PIJclNIFOcwd5DieTOno5Dx46TkM5i3keLKF6/MnnTZyQpnEyObBk4fOAYZsgg4lrkyZ7tvDEF2ayyYtsxhvoTVtIC6t/+NhPH3kr/7s8SLXs34x66hg8/+oaNhww6tryDkLGNqTO/4gDZuL9GBfo9NYwjlsmtHR6izfV1sZJXUa7WYF58tQcVnP3kunUksz8YzIE166hXowLPTVtCg9I5CWbOToEMAT78/AuyFK7InU2vJXHnGibM+JrKpfLz27LFDHx7Ma+M6ku1UtmZ8ekcsuYtTttmtZgwbRF1Ckf5ZZfB3qPH6H3/7WzbtZ2Vm/dxY91rCUd30bPLE+Sr1pi+HSvz/ntL+XXtMtIVK8BNWTKxLn0p6hUJM/LDZTzevgmzp33Msp0B2t1SiJ4DX+JgfBHe7t+ePQcO8vHc5VS8+ipuq5uHMe8uJXM6kyvLlOQ/lStpBy6NLKEXlSD8pQ6Ca7Ng1uu06v8ZK36ZwUejn+ObdQfp1+cBRg59gVubVqdVu9EsWzebKeNfIGP2omxcupDkbFdg7p9PfLlbeLLLbZjRk3z33U+ETx7gs69m89ueCDXz2aw+kECzBtfwy++7iI/sIF+ZOrS/+xYOJx3nqS6P0vS+ziz99i02R4rT5c4qDBn1Jk90aETfl75n6pQXlX8sKS7Hj+9m985DrFq1kLHjpjP8xdGEwruZNPkDSparRqtWt5MQFPJja3sp3rvH38+6vkH2uIQZe4lPve+ti1OiFXc0uoqiZSqzftH7vPjKm8xZdoLZP31F2azxHPtlJpkaj+TIjh/IpPdJ2LvpZ+68sxu3de1F9cIFCRYI8uOX86jTqC5fvjODLft3kJSuMMMfvp3nxk8hOTGJolXq0Pn261W4cNfOLSrqMP/bj5m98ihP9+rEjrBLrsNraNdvLBPfnEiBLAl/Stz6L9Zm/5J/iYDaSVU5JrFaIIeBd1bnl7gqXFujNt3a1qJHzz4kxOXih837mfDI7dzW/jGyVLqW+cM70uj+QeTNHs+2UAk+ePRKmj32LhWr12LUY+XJ33AEPa4vzTOfrOe3Hycz6dlefDRnGStPFGbulO706T+MZ555iStK5mPH2kXcfl8vbrvtdvLlykw69wD93lzGyhmP0LxDPzav3kvOmrcwvm15Og99gyZ1yvDQCz/y24fd6fH4KDLlLUTeqg0Y/lgrFeBP3Y64MMktOjfDK3VT2wg2X7z1EvN3mFzbqCbFDm9m8vermfn9ZqaOqMnjQz9ln5WLd14cQIEcQSZNmMS6vYnkK1iAvBmjbN1vErd7Jfuy5WXj8t9xMmfnpVbFqdr/Byb3vZWnRs2gfDGL+CxXsnzTGno2LUXHV3/humLZ+U+zu2jboAq7Vy5m4DtfcH+5zLyzMyOF3S0c3beHjzZkZFCzPEyed4Rn2pbg1n7T6NihCas/2MhNPa5i9qebyBtvkLFaQVaPmsdVd5TjtW+3M2/ScAjqjHCd6H3uLFJKICSlu8T7X06lOoNpfkMxvl6wiU7denJ45SzWHA5RK88hRsw+SvV8QdJdUYKSJzbz1SaLdCeO4RYvygMtW3FluaKEkjZRofpQnn+jKw3LZqV27Qep2+YOdi39lsc73EKd9qPp3eF+bqycncYdh9Pkuiv4ZdUOerWsz/2DP+T5J9uTJXdGktf9xIMvruCTVzsycMQ7tGvdhN9/XkL+ogV485OfqF+nGi3qXMVzL0/n9vsac3jpKpILVeCBOxsT3LWApo++Tc8nHqPmlSUwnaO8MHoi0SwJ5Fr/Ewsz1eLRaiHKPf4Jq59uyG393qdutQrUbnINX8/4EDtrJUbdWYBS7V/izhqFef377ex8vzUNHptNy5bNaXZddYoWzIVLyCcIZ1JSlAjCD59NoVO/N/h5yRfsWL6MRwY+TZQwV19dnY5tG9D8+vbUuuF6jh3ewdaTYa4qUAAza2HC+38lT+kb6PHIHZCUxOO9erFryxYSIw61m97JjeVy8dgzr5AQF+SaetdS44o8jHxhMsG4EL2H9GLq6xNYunYvjzzUmjGjxxOyoHqTm7mpfD76vPQZU6eMI6TyEmzmL5jNyy+/zslDR0mfrxQPd7qNwT17MW/1bqpcVYGHO3fihhtvUOEzTRDA8TYCz54gxLKXdbSs+z11WZlcnOrlC3DnPYP44f3uHM9WncNzR3OsUg9Gd7uZw0s/I+uNT3Ni23zSBXQKdST5IO9PmcTihatYvHIlt93fgR0//UKzrp3J4Rxk7KhxlKnXjnJHvubht1bSsFJOpq4Ls/vbqXpfDYe1i75jzGtv4GSvyDMDOpCQ4DL5xZEsP5qDp3p1JkNI3jVt7J/9S5t7SX3d2zlI0fCQaFCvNtXZmb0RtzWsS4Mb67P5m3e5q8NQHn1zEi3L5eGhR3ty5/2Pkv/AXO544Rt6tr2Zj5fv4M0OFWg9cRXvj3yC+OT5lGk5lTWTu1KwxiPM+2wko8a+Setmlale5zm+XTqGYYOfZ8iwUVxZLD+7Vi/izg696ND9QXJnLU543y/0fm0hi0fexUNvraBRmTB39JvH54Mb8eW2TLzQpxJG0R6s//oZXhv9Duu2rSZzlZuZ+GRHlZAcIYHgOTRgf9upp5Rsam0U2UpzmPnWS6zYH+S2mxqRsOMX3v5uPR//sJk3e5ThxR9NGtYrR8OrKpKQJTM7tm4jnHiQfp0fpUm37mz/6WNGfnOEjTOeZNGKjYycOYcv+jXhuj7fMP2J62g+eDYj+t2MdeAQT0/7kWkjWlKvwxv0qFuY1ZnK8Pht14O7l0c6P8Ebs9fy82evMO3ND6lerza7TyRhHd0BBa6iWt4TLFmxi1Xb1rBp1iHuHFCaNz85wMP18zF1+x6Yc4zHn21Ok04TWfDZOOKDeutQJXifw5GuCYLkv0i+kle64SzhmnrDub5aNiZ8tpZPpo3h8ynjyX3FtXSobFO89atUL5mTdg8+yNXWZjqN/46i6XKQrkYNnrz7Jl1+HvmVq6qO5rm3OnNV5BjFbxvE26925+PJM+jVoSlXd57KnCl9qJIliazX9OTtVwcQtCMUNPZQru2bbFz6JumDQY4s/4CqPReydUYX6t8/gk+nv8CiWdNYvWMv73y/j+f63UPjWjVYPOst2g9/kXz5GzJhWHcKFMhJ9NBW2nceSLVGzenSujoL5q7gm+/mEyicj7y7fuHb4xV5tHqUyoN+YOs7j/HpDwtY+MN3xFdoQpETawgWqcVD1wXJ2+Qlpo/rze/bj9Om4kkaDv2Zcc90pmzB3LhunN5COod98m9uleYiCKqqwU7CjoRw4w21v224iSSrfZkglulghMPYlmR7hklyMxA0Y39PwogmYIeS1X6dHZXM0mQ1ycOB9KSPJJFs6gx/8YgDViJGVLJs47Fk3ymSpConArKZG03CNhNUcmIcx0l0EwhYyZiuJJWEVOKiHZU9LzBNl6BUXUSDhE2ToG2hHH4hB6ZUWOhpk5L3fJbxI11zILnAkkwTYsA915Lt+sE83PIakq29NMpfhrn7kmSjlAKV72L1gtdxln9IphvGcGDPd2QxpLohwP7Ni3j3o62063Az43vVZu6JaykUf4LmD3ch6esJfHWwAsMHtmLJG0/Sb3YSs155it9X/c6VVf6DG0hk/rLlXF2iAltXfc6Dz73HuGEvMveNfnx7ogyjh3Qld/oEvbl2hnzHfzNQ/e/+PQJqB1NtduukLtwkurWpx6rjpaldqRx3te/CrJceYtPuRN5dH8feD0fQ/ZHO7Ii/ghmDq5GrTi/atbiRJb/tZ8pTN9Nlwiomvfg46Y9/T4WWX7DiwwcoVOlR5nx0L01uGslt9Srw9MtL+ObXZ3lx0DieHvoK5YrmYM/6BTTo8jpLPhhBKFNmlsyawL0vzWFCx/Lc+9RcmlXKyrBZh/n17cbc89yntLgyN32nrmL+qw/x4ofzKZfN5OXvDrJj7vs6n0IlPnrvfr7DrqeIEMVqkKQmaM2yxRwOZqZGmUIc3LqDlRt2snbHITrcUZtpk1/j1x1xdOtyD5mzh/jpm++ZPX8RZsGa9G1TlUFPPE/6mg14rGpRnp84jeyl/sM9LerzxpjxFKhcjeyHN/Ppig1cfWUFTrrxtGxYgTc/Xky1ojk5EJedmuWKqrVjy4r5zPz1EF1bN2DLyqVM+foHwlZe7qhRglCWXGQMb+LFD36jRs3/kGm3Q6b6ZbE2rOK973+nZ/cm/PjBNuo3KszET5bxYJubdPKdqRQTzkNeQlhp0aSqD/1Kwxsn8OLLD7Jt1gyavTiHz4e35tF+T7HscCY+mDiGbJHVtOk6iB0JBfjm5fFEN33DnV37UvPe0Xw8qhPYKyhbsQWrf99NxnxleWbEAO6rVZyufYcyqM0tVHjobT5/bzjXlM7HhHEv06/vME7kzMvnk4ayZe5yeg19lsKN7uLbAfdQ+sbmVLjuHppUifJEj8lkrFWJH0c8Spsek3hs0KM0rlGZQGQV5SreQe1WT/Jy31sxZF0D1i76ins79WXBbxvo0LMHRUIubv7CdCmVSOmWw6hTNh8f7czBoiE1aXjPcJKyFmXKpGFk3LCA+n3fYfYrnfnxx9946eWJGCWrsOuDLjTov5hxzzxA6XwFdZl9QBIjz/dg/+9W1LRJEFwhBVEcU3xWSc5JVPWwaofQSFZ5n1E3QEAyqE3xriXoLykeBqYY7YBSUdBFgZ6QkS2evxPV2cIpSnBaqCMqySIqRBs6JenIKxFUpUo661Uly8Tu6wk8JRkW8Y6u0lU1tKr4WGfrqtrac5AYFFM80F6ixRvPP0HWSi25pe5/OL7xSwa9tZ6B/buSkfW0vXcwDwx4gSut32jSayafzniO9ErNLsKJ/ZsZ8cwwFqxdR4HCNejdoyOffvwJjeuUpVOPYXrE5L6Cj0c+zLPDnmfxqm1cUb8Jw3p0wjSSmTvtfUZPeo+IlY22HR6kSUmbGx95mjhbsnAzMPDlV6lZMnuaycD976bA/8ZVEjHwRrwKM0n+wKo5X/Hbtp3YRgaua1ydhT9tolGNcsz+6gfK1r2OuH3r+WzVVjrefgvbV69hzrJfKFPuP1xVMAML15+kRuVyBOy9fDx3K83qlWL6p4todn0dVi5bQCBDPtYuWU3tZjVZteI3Kla8iuyZEjh55Cjf/LSS6+tWIz4YYvfOdfy45ggtahbh/U8XUKJoXlavP0TDK3Px8JAXqFygIEO/28TWT55j3ryF7DyWhdubViUha2bNM1WoOlbiey593b/qd63deqrCn655TwIzpBJ8VQtUqXVAEReViKh8AU+YTMqPlWhPkhJ0Gz3+Pe64pTG58mdVPxeirvblEeOs/URF39U6I3kkkvbvVQCkap6q+Us0qMSP5KOz+mMCPai7SWWE/q6scWFd2q0KnqRMUNWwoLQIbVk3dUWS0gM81yUOpwpESTMloBBMxpENWq+qXRICpR7G8qoWVF6nbRO2bEJCLkRyzZDiWyG88SoCKp51Sgmgo/+uzaiuDlCVO2JYlR5MFNurzJLEQf3+XqJbTMjIa6cj6gtu0FPS9TZJjq+k2I0v8uU7vSlWpFiK5JwueouCVJKo5FNRpDKxTSXVRFgrOeg8DNnyM6T6RGiYFrvSmGszk5IOHNN28Modxeqd27jOP1/j0hxB0HXB0u1SWqg9fa3CJvBrDYSATCIJeKuykIBKihOPXic5esxLlZGIFKZWiFNSwZ4nL5nKrhHwOkqmjBheqS3WdWASXhRFQPHEVC20Whjk55ogSFuUOpZKl5XM/XhP2tRThRQW6JEEuS52GNU/jpR6AhzqNVSCbUTtzcoiJdnMEcurZHAcHEtPBCllVEJIMZ1omVCqulMWMAfX1oIvMoYt2yVqydJ1nCjp1GQT0RjBJKa0Z6iySpuIKb/1NCmkXNK0CbqmKsEKeNLWMXHdfz4s/W+eLQKqv9RciJWZqRoW9FSJYkaDqixLzRtZnJUyuK5IkcK9kG1iW1o9TquRyhKnx71WIjW8rHw9N2WcyUiSwJvMMQkDy6MsVUuuDU9QEXhZEbVhVwuqij6HObF7BxM//JjwyQxUvPZqGlS8Smt7iI6HKp2VTwBD3eN8E4MY2jpUkUK1To1cxCTY1Vokxsgk2VAyPp65lmqHOM/xE8KsNVJUqZ2htVW0QfDU9VJUArQXL7/UWiV6Tmq9Az0Tpc9UwbLCQqGM9JrpEQy9fqUaP3VHJTLkaZOQpIysFjiLPSimzihZ91oi/lx+PA1bfUtPFEnpAYhmgSEuntaOUdoCIh6kSKCF4YiMvlfkZ0PEimkwSizHk5AXZiBJs6ZJSBLd1VquSyvlvpogeW+jJJs19lqa3+uPmIGW8et5cbH8CUm0tI8fZ9GqrdSuUg7bFM0FrVWh+zC1z2Ly/OppnkmQ9Vnpz6RoLHhz0tMo0XLoulWiiqAF7LSylb7kHGro/MtOTZsEwdGlPIotIrWylqqVVUUzUgusbHaiEiUKxNQDVQdJpoJJyBO8UPW/Oq6gFyg1QLVXHzZERkZqiiUU5pAsgy2mdCU1x9YJQnZ6VZMqtdwyL5WXFhNPiZ0ZoZ4lgzuKKXXnp7BUz/1J2VpQX/8n89DbYI75UVrpTYufSA2vDCoZUuJ9iBpkVLZiZC0RzURhtoqZ6G87ruRQyKSR7Q+5sUw8XRpkOrYW/IgtUvJ9qbeOoqStg7ZXXC2LnERiFDPXhEmLgCiT5Ccp/stJ+U++rnsy1TPR6hY2IV1PRbIqKVNKGsozVzxTSmNj4lmKAIvn6+0ii/cmfxY1QKUurCVmlaSBJeRbPDgRp5HBor05uTamlJ9s2sTZAa3mpxomOhzaUKrafGXPdG24lBTKIhmTtVWPVcYstshfmATFU2mCWsDVvJHYpI4WiDPgepRAtc2J4JhaYEoXxuk1StW8e4oR8n3lqKhIhKPmjTIy3hckAqHruERsTBwSLYCWogev7i46JCrGqY1JSlhSkxL5RI1EAnaC2o9RMYyUBnlrZopR08JVOn1aV+HHDOM/GXd/+o53My0srMeeRAu07oGsHxJdFclqHSXQBlbWGa1fqMS9vEiIPutDiJInqe8RT01NPeclRbk1VVtaiJAyvYKjUuHVGGuKocmDivwo+yJ6B5J6nipapfC1bWxLq1aqyFxMaEmNC4skA+JjYk9qLtiqVFUrQHpaH966nSIprSS69VEAKWbASPIiSRJTcggphvBPDcU56cHTbpIGCcK5f0n/jj4CPgI+Aj4CPgI+AmeHgE8Qzg4v/2ofAR8BHwEfAR+BywIBnyBcFt3sv6SPgI+Aj4CPgI/A2SHgE4Szw8u/2kfAR8BHwEfAR+CyQMAnCJdFN/sv6SPgI+Aj4CPgI3B2CPgE4ezw8q/2EfAR8BHwEfARuCwQ8AnCZdHN/kv6CPgI+Aj4CPgInB0CPkE4O7z8q30EfAR8BHwEfAQuCwR8gnBZdLP/kj4CPgI+Aj4CPgJnh8BFJQiOKPEpFeR/Ii94di/qX+0j4CNw/hAQGXN/Hp8/fP07+whcDAQmT55M69atGThwIIMGDTrnTTBcfQBCymfDhg20bduWBQsWEI2KbqsmCP7ics6x92/oI3BBEIiRA/m/TxQuCOT+Q3wELggCU6ZMUfa6f//+DBgw4Jzb6TMShIULFyJkwY8gXJB+9h/iI3DeEBBSsHv3biKRiHcg2nl7lH9jHwEfgQuEgGmazJs3jz59+iiC8OSTT57zJ59GEGRLYcmSJdx6663s2LGDWrVqnfMH+jf0EfARuPAILF26lBMnTvgE4cJD7z/RR+C8IGBZFtmzZ2ffvn0qenDetxiEICxatEgRhL1796qXiu1A/GEn4ry8sH9THwEfgXOPgHga8u/9999/7m/u39FHwEfgoiAQCARUGsCECRMuDEEQEiDbCu3atWP+/Pnq4X7uwUXpe/+hPgLnFAEh/0ISZD77ZP+cQuvfzEfgoiEgVQxt2rRRSYrnPQdBFo6NGzeqpAchCH5S00Xrd//BPgLnDIEYIfDJ/jmD1L+Rj0CaQECqGIQgXJAtBnnjWBWDTxDSRP/7jfAR8BHwEfAR8BH4SwQuqg6CH0HwR6WPgI+Aj4CPgI9A2kTgEiEIIqWgxZRiogr6bw4upvcb/TvD+6+GO/V7sb+7GN418pPYPVN/evpTYt+S78jd9HX6IyJP5h+edurv/9jhp7/D37fzTINFP/PsPy64Rux1FSz6r6ff7/T3+yN2Z3pqao/8NdoCXOzZsR5yMU79mWtgG2CpR9i4WCko/7EP/9tWnT1G/jd8BHwETl83/dl2uY+ItEsQPCMmBkIZMtdSBk4PWc+wORAxXYJ/YfK1NYziugFln5Qpdx1cQxtYZcpdEWmSP9sYrqWuU7TBleeZOKaNqYyXiaXaY2M4lvwKgwjyZH29N5GMKDYBrBSqYmOI2ZPfK4YhhtLBwcQkAvJ9ZV9dXBGL+pvRGHvvPxOiVCKUMp1T/mCjza6r+Iyj2m1gOA6OZJ6nUB5NDRQqHgjqXT3McW0cQ4hYrI1yvb6XBtMBw1R0TX5qyv9csE15uq36zjYcdb3pGDhmBNMJgin9aCDsIGw5BBXZE4Kgn3U6EYu9lOORC19983JfvC7N95eFRKnD/cHZuXhvo5qj/mPjYGG6Lo5hIDP6nzkkF+9d/CefWwTSHEH4o5FLMUUpozgKTpCICUFvUGsjKEZdDLE2iIoAOGKkbCzHwDUdwgSI8xzeiCHm2ZsApxJlMWzizapfpd5HO+7ybJOIaRJMMa5yodxAiIBDsgFxyrjZ4AQImxDCwfaMnxkjGE4ETGmr3Pj0SMifuzgR101QZCbFaApLUewkFsuQv3gGVxEmbZgNAUF9YtPd1a1xA+qnjiJPp9zDM+7qvkYUA7kujLyF/gjpkUVOEy8ha0J4FAKO660n8kwbmxCWeje9GKoWuBZRQy1DiogJ8YjdV7BRT1DEQlCNkSn9bkIchFM4pqZY/sdHwEfgXCCgJ712xQzPGYqRhnNxf/8elyoCaZMgKIMtxsRQRkhMUsBJRkxvkgnxUTjhhkkQox+BYHy8MkSakoub7Bl2O6r+6hoBMe3K39fOfhjDDuJYDmKUoiYEYgTEsbFNE0uMohuPIhIx0kAE7eeqmAOW6xCV6IJHEZTnbEg7Q7rtHjN3TZukZJugm4QVn0nbdUVAdBTBJorlBP6GrEdxCSiWrw26jnD8IXJ/yhaLZ/DlYolqGBLVSHl5okZURTkMV0dAFCFybfUuAbmpsuZhHEIx6gMkgyskwVYRFfnHEFTdgPq+YGKoxqm3UebblAiObBeoiIxEgMLYRkgtQybJOCQoKmXIvYnTRMQNEDaElug4gqIm6r6J4MSrSItEIwI+QbhU1xy/3WkMgVSnTEcyhZibKkzqbzGksa664M1JswTBFe/VDeB4IfnFX77H7wcc4uww+a+uzu5li6lQOh+DJy3j1TGPEq/MiRg9MYhBLCJE7ChLvv+OzbsOk5C5ADfcVJs4xCs2lRcbEC/a1WF48fT3rv6F/UY2rihTWJlGQyaJkABTggnaSzaNKMo8yeE0assCkk+cYPH8eWzdu58CJapR+5rSui0Secdmz5ZVvDh+CnnLXkuXNvVxjaDYUWxLjKAO6+uQ3hk+Dhw+tJOtO/Yp8pErd15y5sqkjLxrqCA+pqv9eB1DMHDtRJav2kXZCkUICEFwIClpB6s37CPgWGTIV5yiOdJpz9xwMWwL10rEUYZab6nEtj9wI0StkPLeTcHLlOcEVHQiEnFZ8dM8CpapTI5sCTjhCDs3b+dI4gnirUwUvKIgIctSBERFC1wduhQjL1EMI3KMlVsOUL5YESKW0KUIyQSJsyUaJI1wsM0AlhtRkSOsJBBioyJF/sdH4NJCQJ1VEROI886gSdmhvFivoqaZQ8QyCarlUCKlFrYpVF87Ef7n8kQgzREEvV9uEDWjyoALQRBvuX3z6mQuezNVy+ah8JX12f3bXIrliVD7gY/Zs2IqWzb9xvrV2yhdpQHF84dU7sDSz8fR75XF3HnLDRw/kUyz22uwdbtNtavLsm7RbKJFKxK3ayNrNu2naNXqfDOyC/OPFaRb74eplDHID4uXkKNwKa4uX4if5/2AG8hINEN6SuXMzPLVG6hQqQo5MiYQPb6ft8c9z1PTfmL8mLEUyW7jOhFWrt3JfypU5McZoxj32Vp6dX+SquUTWLJmIxUr1aNI9vR6q0TyEZTR++tB6Lon+PL9V5n0xSpK5Q6wflsGnh09mAI54hQl0FsPimp4oUJg31Kq1X2Bj357jQJuHI5rsPWXD+j01HQql8zAwhUuE94aQbEcCcrrV9ESFdp3NQlwTJ13YOioiYqHSHDB9XI39DYqiSeO8vijbWn+6GiuLVuYo7u389TgXrhx+Ti0cxUVmzzKQ62vxxBipbZDAgRcm5OGRbwL0V0rqPvY2yyYPEyTNStKxI0naLu4poFhOir6I1Qq6AhZ0xEbPwPh8lywLv23lrnmpUKr5CidUSVc2Lxog1rWWPlXbxuqCJ2swRLJu2htuvR7+n/hDdIsQYiYNhIHUAbQMXmgWXmOF7iBciVz0+zmjox9+n5uvqkRrXp/xNyPB9G/91AK5UrH+ws28/PcH8mTFbZ8PJrq7Z6haet7aN68LbWvOESbe8cxbHQP7r2tK33H9WHiwDEUqVKecEJFMm6czMJ9cTw8oC+fD+7KwdxXsn7FKiZ8/jFPNa1FzpKV+HrJLzRucAOb16+i7aODuKOcsUy4AAAgAElEQVRhDWW+Fs2aSLfXfmHBtKG8Pqwf3689SrZ9u/ktS3muL7iHqfP306NXF6a9OpLcebLwxUKRnZ5OnniLsGESssU4/rVXHHZdPh/1HEvNwnRrmolrmj7PB3Pe5fMX+zP4tY9peFdHRvfqwLhB3Xh91iJue7AfZU7M55Fh71Ky+g28/MoEav2nIHtmj+fRyXuZ8Fxzrix5NYM/W0OW3z/jkYHjSMhZhNcnjWbP99PoNnAC+SpX5ale9zP0qd78vilMn5GvkHP7B4yZsYVMoaNcf9d9fDV9LEs3mJQqlo2Bz4+hbplC7Ni9lid6DqPDIz1Z/Wl/5tmNeKCSzX0P9+N4xnwMGTqKFkVdbrjzAfa46Rja/W46vjafLTN60X3we7S/rRJ1H59JeME4egx8geZduzDniWZ8uzMPO3fvoOeE92hfuySYvmfzv7AAXX7vYOPaNhMmvM6Ro8dU5LBYiZI0vakJCaGLM6Z1xhAEk1dQuto99H3mLdo2LKMinSkpQpdfR/lvDFwyBOHBW67CKXkblcpmoe51rRnW5y5ubnE77XtPY8qw6+g3ZhFtWlTjk3c+ot9bs6heMgtH9u1k9YKFfLHgKya8+xnv/fAbc0c8zEHHZmt8FcbdV5WOXQaQJW8earS+j1wb5vCzW4JBN+eiwNUP80C/Duyc8xV1e77AV0MeoMOzIxnS6nYefe8XNk4fhnn19bRvfi1xDiz6ZCIPTVrA/Ckv8NKop8lR6WYap/+ZG4Zu4rFbMzDj96yMuSkHD45ZwYS3u9AqX026fPcrN5fLqqsgFFP/a7ruOGE+eXEAncZOp3D2LKTPVoTWN9Xhnbkr+ejd5xj1SDe2H4uy5FA2vh4vJ2/1o1nja2jY4hV2JP5M7pB47ib7vn6VG56YwjXFM/Dd75n4ZGpvnh40irs73cuur6cxZzccOHCEsa+MI3d0I/17jaLwLa24vfxBOj8+i8rl4IeDFflyTFtGDBrAtiwNeKZTDR59uAOtuo+ierkiHN62lgfa3cXafQlkDJ7ghnY9uLZUVjYnHmTT7K/ZZuTlwK9LuObxJ+lW7z+c2Pwjpe4ezRPXZWBH/uaMvCkXVqOhuCum0PmxJ7mrRw8+7HMrmRsNo15gMbe+vJmD81+9mO6Wv3D4CPw7BKIrKVu4KcXq1adF/aK8OPItSt3UgTeHPEp8yOTA4YMcT4ySPWdOMpgBwm6EgweP4IYjBDOkI0uWTATCyew9sI+ImUDOLBkIhULs33WYUEaLxKQIQSNMxIwnd+Ysaptu776DhLKkJ0sgyJ59e3CdjGTJnh4rPogZSWbPoSPkM38n/9V303fce3Rqco2K+qGSlP3P5YpAGiQIXomcJNKdssXQtdUNNGj/PDdf+x9OHjlIj04taHx7S9o+MYu503sz8tmXyFu0JFkzh2jZsQ/5MrnMnTmeqQt+J69hs3D9foa9NJHt371C1yffYPy0mZS3NvHs+Pf5fekqqHwHj1SAUdN/pO1jHfl2zPNYBSqSJ2eAxu078Vy7lnR++jkG392aR96fx4bpI0moUJ+Ot9Tn2PHDvDq8D8NnruT5wc+we93X5L2qMY0y/0L9ZzbRr2l2PlyXhbEP16B7r+HkKZyRRYuP8+aMVymUOZ3KnLQNVRD5158IzHjlKT7bDG0bV2Hk049TqGJj1mzcTZ+H72bm+1PIlDkLs5bvZchDLfhg1sc80Kwe1ZoO4sOvp1GnSgUyZTTY8u37dBj5HY0qZeKjRXt46omuvDH2OeKyFyFfnoxkz5CR7xeu5p62d5Mt/Uk+mfEVTony1Ct4ksnTNnB1qWS+OFGVb4a35uWhQ/g1kpPGtUoz5fWX6TjgJWqXLcLBHWt56PHeXHtjawqe/JHhs7ZSJEuAjGVrUDGwnbm7Qhj7t5GpWmMal89OwcAhruvwLI/e15CftwYZ1b4qea7vyxcT+zLm9Rn0eH4En/esz4lyD1DMXc87m/Oy5J2B/h7D5bpiXeLvrQoJE1dRosRttOnZh4HtW9DzwVtZF6zEu2N7sPDrWXwy5xcCjsvRzGUY1bs53330Kd+sWkN8fEayZb2CB1tV5933prNl0wGOuYkUqlSX7jeX4pbOgymWOSerdrp0v70wHy116NerA/mDG2jV5R0efqg165YuYPX6rUSikK9cFbq0bcgnk8bzxdJt1C6VkcefnsAzr37Kfc2q6pwof4vhEh9x/675aY4gnFqTK4kyUtImJYK71y4mLk9ZsmeOw0wKsmnrWrJky8K6bYe5ulwptm9dycE9J3CzZqBMmfJkxOHk0f1sXL+Bow5kz5uf0rkL8ePcdxg39RdGjHyKHNETLF+3DttJT8Hi+chimKzZsJH4QqXIET3J1u1bcUMBSpUvx+4N68lToCg7160n5xVlCO/fi5EhOzmzpicaTmLDxtUcO5RIplxFyJKQhJUhG9nN46zceZyCmTNyMNGgSKHcbNuyhp0Hj5Ild3HK5c/hVUz8fb1xhESWf/M1Uz+fS7qMIfIVrMTNDWuxYvmnfLt0I/muqMztdSqzaM4nLFu7m2KV69G0dmU+fWU426zCtGh5K8XzZOHQmh/4YNFxbr+9OrPffpWDmctTsVhmFnw1l0PpoVn95nB4B3Pm/Eh8wQLUq1aFb77/lAPHHeo0uoO4PfNYfLAU3VpW5uCmX5nwzkfkvOpa3N2/Uu+GdpTOl5Fjh/fx1qSX2HMgSkIoRM3GLUh3dAszFq6mQYXibArH06xifia9+yF2fBaur3Mlb85exXMP3cL0aR9TtU5dvpr+Hka2AoQjLs1btGBst2vZle06ShfOR6u2LSmVP7+/cP27ee9/+yIhoFaz5JWUL9qEQ+lNCmTLz95DCYybNIoby8VTrHRrHpn0DK0LmlRt/gwjJ3RkTNfhFGp6Jz3aNyd9ANYt/oJmj09h6VejWPvzXLoP+4Hfv3qcvHXup8ntHWjTuDZX5TpIxVsGMnTkcNIvnkSnT48wsUtD7hw8iQUzX2fTmu94ZMjnLH/rQa5p+Tzdh/TjrvIuhWo9wIDX3qXTTZW9GiJJWvY/lysCaZgg/KHM0fVq8Y0IEa/IThXTRcEOSHKdV12gtA/CWFKSZzskBWzikTJHg4AbZe3iBewP5aNm+eI4QVuVOUrdvZb5MbXIj5IwSMQgAVee5gZ1eWGKzECskkEYthZMEqKtzXwSDvFahEnaZEjFg5QzSjmgrjFW1Yex0siYaNHfVhRJVrGUQWpMUioeVFsd7ICJpUoZvGF8SnmSVkFwMG0T19JCTgF9G11JasXEnGLt0joHEQIqUVDpGJkS3dDJVUo0ynZwTUliVPUf4IRSyhulHwwnoHQnDJJwSafKGlXRYkq5qNcAlaQVE3OKqmcKLgHJx1AaFLqEctA99cnRbAgPtail26Fe1HdtLtdF61J+b1XY7CyjRMG7eKBHZw5vXMTYmb/z2VfvUTPhAHHFapIgZdtBSLQMBoyaSu5tX9BvxNscOuHQ6L6uNMx9gJ7PvEHQyoRlhdkXyoe7ZBiFr+9P5x596dXuVsL2SYb36ED6/MUZN2kyt3QeRE1rC22eGI4dsEjn2OxPl5utr/Xmyr4zWfDlK5TOupOCxRvzxNiP6dT0alWi7OuNXMqj7d+3Pc0RhJRX8gzmqfK/MXkEUQQUE+Eqsy+iPUFdqucaRAxH6RZIBr7YnrCUznmqjKYdxjW14I/SFDC1EJC2pzJ1tXBRBEmQFCOmlQ61AqH+jiuKgI6Ja+rnaS0C2auTwkqDoBLy8fQOVSmjfiMhIPI9VQmg2qqVFfW7eCV8Z6pz1IUcqQqSnsCQljXRd9cfj6yk6CXEjKkYaJEvlr971CSm/+ARCGmLylpW+RBCBgKeDdZqlIZqsIgfWZ4QcipZ0VoGImokJYxaR0HeUaiG0kNQ+CaCm6BYSRTRW0iRsVQkQO4h5Eq0FmLKlTElTCkzDToRXFN65XQh5n8/Bfw7+AhcQARURuBKShe+jVZ9ejHwvvo0bXwXB3NezVdPt+XK5vfRsmM/7qpbkeRwhBz5Xb6Zs46SBbKx/vPpjJi9jx5dqvDIkA95640XyJ89A4cOn+TaSiEKXtmeB3sPpOf9TQm6UeZ9NJFH+r/Ekv0Z2bV6JntWfEnTDqMYP3YkRXNlZNfxMPVLRClW8zG69XuM5iUcKt/RjQHjv6DLTRXVPPariS/g2EiDj0qDBCGFGXjVQFK8J/K74l3GlA+l/l+ZeW3slQqYGPCYpr9OrtG+qRbzEQLguEFtmBUxkPoILXqkwwNaeTAlUuCJI+p76N9pASaR+tV/lk/qKQ7ynBih8AiCMuQiPewRCWU4tTiSp7WoBJ6UX6+kh/96hJwqBR0jM7GoRZgoIeWxaxxi6klaLVHLR8cCChIXEHEkeUe5p4rAKJXJGNnR2hMxyVVNirTsqio0dA3ChggXaRKkZJUdEaMSWaNTn6OjE1FTek0zLPmz3EXpK0jwUu4Tw1X9SNMyFRtwbaXvoPvVUOJWqp9056XBaeQ3yUfgv0TAkbVkJx0fGE6Dm5tz8031Obx0Jg+P+ZZundsQn3SMT+Z+TyTqkDldQZq3rMmcmZ+xed9JLMOlZLl63HrjFSyY9QPfrVlJ0HSIy1qC3vfWpsPjo7m+xR20uK4KlmtxZNd6Ro5+BTNvFfp1uwMrHOXbzz7h0zXLyRyNx8qaj97tGvDB1E+Z/cs2bqlVhClfzqVllwE0rFwMSy8q/ucyRiANEoRz1xtnjtpr435uR/9/qzqWet1/+40/I/Lv7qG//VdP/+ctOtteu3BPOtuW+df7CJxPBLQC2cmTSQSCIYLBAIYT5URihFBckKAVIBxJJhyJYFlB4uNC2NGIiiZIzaFsP5gimOC6JCUlYjuuuk9cyNL3DIUIBbzKA7kmOVndJxj0QpmuQ2JyErKLFwgGiQ8GcEWXJDFMfFxQPScYF0fwDCXX5xMZ/95pD4H/aYKQ9uD2W+Qj4CPgI+Aj4CNwaSDgE4RLo5/8VvoI+Aj4CPgI+AhcUAR8gnBB4fYf5iPgI+Aj4CPgI3BpIOAThEujn/xW+gj4CPgI+Aj4CFxQBHyCcEHh9h/mI+Aj4CPgI+AjcGkg4BOES6Of/Fb6CPgI+Aj4CPgIXFAEfIJwQeH2H+Yj4CPgI+Aj4CNwaSDgE4RLo5/8VvoI+Aj4CPgI+AhcUAQuGkFYsGABzz77bMrLuiKX5398BHwEfAR8BHwEfATSBALLly/nvffeY8CAAQwaNOict8lw/2D5N2zYQNu2bRGCEPv45OCc4+7f0EfAR8BHwEfAR+BfIWAYBvJvv379FEGQP5/Lz98ShCFDhiDk4Fw/9Fy+gH8vHwEfAR8BHwEfgcsRgRUrVjB9+nT69+9/4SMItm2nEASfJFyOw89/Zx8BHwEfAR+BtIrA5MmTadOmDQMHDlTbDOfaTp8xgjB//nxFDvwIQlodGn67fAR8BHwEfAQuZwQuWpKiTxAu52Hnv7uPgI+Aj4CPQFpHwCcIab2H/Pb5CPgI+Aj4CPgIXAQEfIJwEUD3H+kj4CPgI+Aj4COQ1hHwCUJa7yG/fT4CPgI+Aj4CPgIXAQGfIFwE0P1H+gj4CPgI+Aj4CKR1BHyC8IcecgATFxwX1zQwXIgaBoEz9aQIQBo2uJb+P5Z3pfpFWu//NNI+B1xTtyUFspiy5h8wPOXHLi6GY+CYLqZjYJup6P/xxfTXXAx5wGl9llb7yRuJrkCSjG3EYbngGqgxmYqVg4OJ6brYhoElLyfD1xB0TCzXxjYs/XP1r6n+J/fxgND3U3/X49g1XAzXwDHkznKZ6f0+bWKlWqXe2cF0TWwDrNiUPOXdBA95ET2iothYWI4Bpr5Y/hgbgvJHF9u7WjDT/aGHj42DhaEHEqaC1gbTRPWGo9cA14yq9UCwxIiq78gItORe+gF6tTEcr03eHEgjs9Jvho/A/yBBiK0I/2wx85YBwFELrOHauIYsBn/9Od2MyYIgVOIMxu0yHW+paJwJl9P76u+uSuUQcpUQC72wm66Da5h/20+n92GMzP2zcXL+u1Jb8agBAcWfohhuKk21jSgmgT+RBY/eYhAhSpCAYIQYrhhGYtYMRYI1XdLj3FU0wyMDgqwYW8fEMb07KiN3/t/6bJ/gYGtC7wawDRfLNTyDK28jht/ANkyFgLy1Z9PV22uyECNOnrn3JN9lLMU+hhpb4izIvYWMnDJmDI1fbN0QPOUiTbI0odCrQkSRBbWmqJ9YukXevdT1aRHgs+0Q//r/KQT+xwiCZzRSvPiz7Ss98WPepl5AIuAGz7g4nm7MYtem0oyzbcH/2vUxfLRhF1y013Smz6nXp5IBfXXsd9oPloU5tmg7ajF2DfH4YhGc/w9JaUvM4qVBy+eCkACJXZkORE0IuFEcQ4yKRbIBcWJzAqmes2skYxAnZlEZTTFoypsWKOwwYStESA3xk+Cm08ZODdUkbOKV1y3Or3jEriFGzMRQJEEbr9RIw/+H7YX9vY2LJS9qOjiKDIiPn4TlJHhRpQguQY/0uwo/6Xr1vRSMojoKiERcxIwHxelX4CkMdWBGjxgBzY3gGHFqJDtEMZ0AEekj9epi+vVoN72QTwSDoBADO0LYSkiJSCpqocZumuRfF7Yj/aelOQT+JwhCKp+XWaxDq8LIz+xP/p15OoUgKNfU89zOYEP+r73zAK+iaP/2vXtOEpIQmvSS0EECGqogICIICFKkShWUjiJFOtJUpKuAgqKiIMVCkSJFAekgLSSEIp3Qewhpp+x+18zuCej7oq//C/lCmINchpM9W+7deeY3zzzzO7KbEtvJ6Glgmg50MdWg/a8dVZp7Ju7rCRnyflh22uJ++L53416OXHI8J0ZVViSW/7PQC7bWCM5K04pOzI0bP/ylevDg1Zz/mzyQKV5r1GwdI60JBEHBQ+KtJGKv3aBEoTC8Xg9nYi+Rv2B2nGaAJCKyWxeObWfD7yat6j+NJjIoYqRrdVk4DaEgLHGbohk4TB2nnSr36F6LoXheDRN3Yjxnzl8gRdMJKxBGXNxZbiQk49SCyZktGxmzhshOLa2Rkt1zQjK/X7lGqQK5JZeTly6SP0cBnEIH6ClS4BtXDvPF+ljatnqWIPHEaNYEgujANcODy+GU4smlgb/UsSYu3Stkgp0xcFhTOJ5ELl6LIzhTZoIDg2Sz14RwE5kW08nFY5F88fN+BvV4BadQGKaJS/PDT1jKC4nhPU+XEct5f3Absodkltkv+YzLZz7t0b2vwUDt7KEjkM4EglDj4j/xR3TU/+x+3J0/kM3W8ODVnXJEda+2a5rWKM8UowPTiSmGeyLoiD//8Pj/7GzT7tZ/FGwi2vpyMndS5HezuTsL43PX1DUxB24BtPINhhgq37kRpoFXl5JDBnlrlGd1/H/9Eg+IGDvayfc0OHKz5IHJlR2LKdJyJpeOLePinjU0HvQ9u3/9itunDnPqtkapJ0pwcf1XTNrgZnin2sTpGSmSPZjT5y9RskA2dh69Sd4Qk8CsWXDcTuRcoknh4qE4rl/lt9/PkTdPforky0Gy0+TSgc10aNeFW49VY9Yno/hizGucS8xOaKiTeHdeRg3vS6G8OdOgRDCIP/Yrueu/y+m9KyF2Fw16fcKmZXO5cesER68mEVE8nJAzq2k6ZS9TBrXlpjeAkvmzE3vqDKGhOYg6fIHQnIEkB/gR7HVy9upNSjxeFC0pgf0HjxGSNRdFi+WROQhv/FV6DBhFs7ZdqVe1HB5vIqeOneD87USKhBbj1qHVtB67nOWzxhCfpFG0WBjepDiiDpwnS+7slMhzCy2sG6ejviU0R075jFsCIQ2iTbshRp3ZAyKQzgSCiek1OXAoiqCgrBQpHPaPMFptVCRowZXsZdvmtWTKVZwnnij+F0WKVmry1u3rbN60n7oNqqJrAdbI4pEXCEIsGXjdLlYsWyYDZpYsmalWvRpZsmRMvTd/qFGQc7I6sadOE5eUSIlSJWVWQMzVJsTFs3bNWkwtgHJVn2TrV59wIHc93n+tMhj+uHWHDOL//eWLwAYedzKLF6+hUdOG+Ps5/2LC4x89Pvd1Y8ME3XWaKmXr8vKoj9EO/cKNXBG8XjsrnYfPIVtwMlrhRgysYvLBr1cI146y078G7zUqwKhPlzGtX2OqdnqfZlWKsO9sAjXKh7Fh50H6duvG1E9nULhgUU5dimPIwNcpV6y4nHYY9npnPBGvMbJlOH36DuLF1v2p80w+urR7mYqNB9K7Q737eo33Y2fyrhrXaV3reQo2HUPZwCP8csnBZ92e5YVeoyiSOSPxIU/yWc+StJy8jTYlncw6kY0FfesxctJU3unVjuqvvEO7OuHsO3qRSk+VZtu27XTq8Bqrft5IYHAGYs9foEvnbtSpWp6khHh6DxxKq5fbUqtGNc4dP8j8HxbiuBXH6rPZGd42Gz3f+o6uHZ9nzaYDDOvVgSkLllM0axAnL8UzofeLFGo8kVORi8ifKycOMYVp+P3VrNv9wKT2oQj8nwikOYEgxpvJMUvIUbETI2cto1mBEzwxeDEJm5ZhOAy8mhc/twEO/9RCIGueNUVOoHpMD5+MH4ajcC1ebV2PQK8HHKI4yQueANx+HvxE9NX8xGyjTLMm6g6C5LDNxHBq6F4Px36eSYvhixk9fhoNapXiWPQOXm3VhD1HrpC1YjU+HvshTZ99EtPhRjOcxF87z1eLdtKhe3MyixMywe304ud1WPOgpoFbt+ZHHV4Tt0PMcrrA64/HIc7/3vPnVnkTnNi3mSWr1pLiDSS8ej3qP1MGj+4kWFSyiYSHmBHRXGD6yxG1qGQX1+rSRcLZgVMcSGQ4NB1DS5ZlaU7T355b9eDWnPgZBh5dvJ8sJ7i9R34iwyvf49oxxyrpEvP8stLdLvr6j8fOLpEX16+LBLcB1w5ToExjmnZqwu+btvP4S/2Y1LeplRWQckCX9WRi7hc9BYc3A6sWTmfLuSy8/VY7/BweiDtKs3Zv8FjxyuTwJlGkam3avfQCTifyGsVIzNRc6IZIH7tknbnTncFaXKJ5SNR1gjw6HqcL55U9BBbrz5FLm8nvb01d6JoTtARMgtE9BoZT8BHPiEaAx4nHmSLvgsN03PcvLPlvLdc0DTnVffKXSdQYtYkaxfLQrf8gji4bwbrr1fhm4NM4nx3K3lkt+HDjeQpf3Mtq/xf4sk0Yb074nKXvtqXwq99z+vt+VGw7mm3rvmN079fwGNmYs+JXenZqwJYd0fQdOIwGz1UCbwJDe3dDL9OeYa1L0+fNoTRs0496dcsyuPMLZC/Xi0E9X0yTUwwiv399/zwKNJ1Nl8ZFeOr5TuS7MI9+q0LYPbcruap058yCN2jx8VYa5bjC2CM52fxOS14fPJ45Q9qTqcNHJK2fQsMu77Lg89nMndWbQ8czsHbnJjo0b0rU/oPUfKkVr3doiHnrKm8OGErj1j2pXTOCuNNRTP1iHqY7mfnLrzJpTDWGfhbJgeWf8+0X49kZc5DPF+9kcMfmrN91gJE9avJMt5Uci5lP4ezZ0TRrRYQsVnxURxT/p65LfehBEEiTAiEx5kcyP/cGTWvWo33j4rT9IJJD3w7ip/V7aNaqPYs+eJNc1dtxeO8eyhV08OuBa1SIKMH2bbtp0rkvexeO5ZgrN1ncNylYqRXPl/Vn0eINXLt2hTLVXiKbex+7zmcin38CZWvWJzw0B5evRjFn/g9cdQXS8MXn+fGdway/mY8vZo6gVMFCxO7fzqhpCxn53mhuHFjFqMk/Mmjoa8xYuIX2z1ZEy+Bi1e6zvNWqDEu3XKRNmwZ8OWEolZr05ty+jRw5EUvmopVo/lQRli9byrlkjarPt6ZBlUJWZ2t6QJOz6f/5MrxyjvOnryfx9uwoXm1ZkaXfr2DMxKlE5M7GjsPRmEFZqFyxFJcPH+XYuXME5i5A9ZJF2bV7DzdumxQqXZo8AdelwDEMndxZDbwZClI4XwB7D5ziqTJF2b0nkluJKRSNqEBuPwd7ovZgXtlHvQl7SNw5z5pDlevJ9Dsr3/5ywG7nBq4eJDS8KyM/78v+H5YQVqsdrzyRSOvBn2CYTp5t3plmRVLoMekLHG4/6nTpw/VF77FsfwIN+r/N5M7N8Jw7xWtvDiCsTA2qVClPyYj8rB7bmWXOxnQrk8THc9fxdLns/HDiMT5sno+JSw9QLDie328EMG1sb0YPGUv00WOEVqhL0xLxdB+xnCZdmpEn8RxHctdndrdqDBj+LoN7NeHJF4fwVtfOVH2yMD8s+pHLt28RmL0wE0ePoXihrPdeS3kfW6yojxACznErhsKF6lC6aXM+G/8O17fMZdDSKFpUDmXK6qss7hnBxE3xPJf1EAO+jWNc54pMWbKdTVNeJm+XJVxYMIxyHYYQs3oeg/p1ISzsCb5ctolBfTrhMfypVqUiBfLk4vbl3+neuTOJRRoxZUBbxg7tSe6Sz1ImFGbO38z7EyZSqXTBNJcHt2pWxErFo5QsXJ8c5SryxdQZ5LiymhdHLaV3iwpM/vYYW6fUoeWUo3SrnkL70Xv4dOwLTPzqR1aM7UH2VrNJ3jiBRl2G8tVX01k0bQRXUgqy88AeXm3eCDJmIrxMBMWKheG4eZmeg4eSv0g4lUuV4tThSDb8fpXhrUvTrN9Kxr9dnZEz1zOpT3u+WfAD9WvV5p0vl9O/W3sC/J00KRdA4FMf8fuhryiWLacUxG4C8FNTDPex9ahd3S8CaU4giJT07ZjlFGg7m7fblOLA7r18fSYn0R+344NZqxg5bixDmuXhyTYfsW7lCvp278niWaPIWL4FrgNLSC7enVKOXzntKcqL5QyGD1tJrUbl2X70IuXDDPbud/NsRGa23s7GmM5tKFKkKFkzBTJn6Ev8nFSN5wvE8c1hD10KXGf+yXzM/LA/uTMFcCRqN+M/nM/b748hC0n06tmRFk3q0nzgD6xa8iEFtTO80Od7fl0ymveHTQCRwkYAACAASURBVKB2rXIMnraXT4bWZPQH86lcvhDffLOKHn17sXL+UsrViKBWg440rlveSqFb68n+68uKHR7Wzn6fIQtOMqhdBRb9tIfBQ95gxsghZAivyLmDB2j3elfmDh9NUPGKRFStRqNCLvrM2kj5PEFEGtkZX9ef3rOP0LTxC5T27GLStqwMeSkvY1cdY1SdfIxdFEmhjBCjFaB3+SDmbj1NnScc9Jh7kaSdc6UvhBhRO+UJ3Tuipa4lMdyYuh/atWhCw9vS5a2u3Ly0n9jE3DTKEsUvZmPebZKVagN/oG8FjUthDelRKpnQQT+xpvfTrLuSjVH92hMosi/Jiezds4NtkbuI3LyZTOH1yH1pFTu8tYjIeIbStV+lVYlDhA/cxYfN8jHtNxffDm9L59e60bTNy3y36Rit65Vg+oxlfDygLeUbfcTB6ytY895bLL1dntk9Iug7fCwjur1EyVZfcPX0Gm7s+pFK3aczZ0xPNu6OoW3bjoSH58WPDPer/d1zP5bHgyhnSWLVomUEh5WmevnS6AnX+WH1CmLjPdSv8zz5PMnsvODi6UIOZn+7nmz58uINCKJZtVDm/XKGji9UYOHP22nbsA5btvxK1pwFSbx5hp37TpAhJJh69RuRK3sGbpw8wJIV20g2AmnYsimnI1cRdfwizsBsVH2qGqVLF5bPadqbNRO1KTpePYVtK1ZzOzgnzz9TBSe3WbFyKSfOp1CpZi0q53Lz0544nnsyB19+t5bM2bOh+/vzUtVwpq+Npm+T6vy4LpIGzz/NwegtePS8+Dvj5aDDyBAsO/qw0Ly4XC52bfmFyIOH8JpZyR2WH+Ivkj1rNmJvB/JMhTxERkZy80o8GQsU5MVnn+FkdBQb98ZgBAfSuk4lvlkRTac2dcgUZE2zyaWsKoPwr7cpdYB/TiDtCQQDbh1eQvH2C9k6vw+9X3udn+ILcfDrroz74DvGjHmP/i2KU7nrx2xYv4EvZ3zI3NHtCajUB/3AB+x0N6FSpv1QtB5NCp7jpfZzqN24HHEh4bzTrTHnjh5h9c+LiPavzNzBreypAJNPu1Tn92I9aV38Nv0WnmByk0C+iMnBzHc6A/7E7t/A6GlLGPneGM5t/Irxs7cypE9DqneeT9zplXjO/Eal1uOIXLeAr6aNZNbXS2gxYiHPZdvJ+M+O8N7kPniOHOVmcCZuXr7O/oWfExlag0UTe8kFUH+1MNJems3qryfw1rR1VMpvEFiyJpNef4bMhV6k96hBBCcnUf6Fl7m4fi4rV+8mOaw8rcIOMWOPP61rleWSmZNXwxN5d4PBZ1PeREu5SLc6DTmbrRT9Bg3g1PfDWHIiO/WfKso5Myd5b+8k6PGWdKt0hQztfiLlt6/tSRBxpk6ZTbhX9b8QCKKSw2nVbaJdj6ZAeGt6DOjI2ejtxFzNy4xOhWn+yVqeL5GRmKQIBlVP4d3lB3kixE2UsxZjnvMyfM5u3hzUj6Y1y5Nwci/9Js2jTPFQDkT+QlCxhuS5uoRfzPrUCj5A1M0gSgVeY+HJ3Ex9KQ9TY5x81+9ler3xCuERZRk7Yyt9Oj7Niq1RfD26I08815thk98j6+39fPDlcTq3Cmdx5AG+fqsdpV7+hOvn1xEUG0XBah1o07w58Z4kenXtQqnSBfH7i0qHf94E/+oT1nSRrKwXD4EwL9K90ojHMoVKwUuAnJ4S02tCY9q2Sehybltsb/ly6B7Nuhfyzli+AWIKyrf4VGhT6evjtFc+IIx9rCWWYjm/uOtpd12OuGoD3euUIltOtcmiYTGV5itxdeMUc/1i9k+z1q9IkySpeJIwtMBU8WPilsscrdcdnwNBzl8Wy3rx6H6yU5f+CJKRCxN/e9WNz9HKi8em5iQRkyCbo8u+X2IFidA3wsvBMnFSL0UgLRFIewLBhJsnf6FB7xX8smI8G6ZPpN+682ya0ZfRA3pzyluEHLf2Ua3tMLbv2MKUdwex+MPROMo1xi9mOdv0F6gQuIXFSzZy9OZV+o6eQ63iKYx9awybY05Rs11bKmdN4JBfBcZ3b4hXF4YlJvGxv9OpV1vOXs/EuOnTCTm/iWWHAxjVrw3+RgZO/r6bAW/0ZP/JW+QsXYExw0bzVMYzlO0yl6hNn6KdjaZ+vxks/n4WJ7atZPSUpcxcMJ2Q+JvMGDOCOavXk/PJsnSr9xwfTJnM1aAivDduIi1rPo5Hc+CUVWn3SCF4XXgdDtYvnM5HG03mDH6a7r2n0LpfH3ZOGUZ0hlAq5cpERM2qzFq8hvCcDvZdCOSbPuVpMOBLaj5TjVsJwfR6IYTpm2DGqB4YDgeLJ3dn3JoEFn01Ff3AIppPWUXtCuHEJobQsoSLmT8fpVxYANP3Z+HmmnF2zYCYZrAC8b1fwr5GLEV0W/OrSdf5csFy4hISyPJYHpo8/zxZs2Zm29bviD4XSLPmNclq+LFx/XKOpBh0faklSTcus3H1CpLyV6B59ZKy2DE6ZjubN+wmb56y1H2xBof3LeacN4ycCZeZs2oDVbKbfBobwrz+9Ym+alKrYjk2rltHyfAy7PxpDWbhxwkxk6lQtgbXjq9l+7FE6j0TwU9r1pInvDLEX6ZcmaIsWR5Fpy6NyaAb3I49y9yVq8gcVoxG1asSmDEYxwOI4z6XBulTYB9PLPG0OmrxxIriPNvZz15l6xVLGaU5kOgIRSfkbwsJS6lJqwDbIEk3U2SxpywJNZLADMQrSlQQNTV+eHUDh1fHcAghKBJGaXC5h/0AWpZPoqe1RJLl4+BGkxxEcYtt7iDkkc8XwieAJEhLDInrtPj6DCEsMy3hoiB+m2o+lVpmI55ya9mtcHC0DLvEEmdhsiALj5BrnHxLcA3htigqn8RUovBgEBcg6mcseaBeikBaI5AGBYJVcGatFrTUuy4Uu0N0oiKaucDjj8spVsCLIOlnFcPJhi6K0/xxGNa6ZFFMZxnLiIbswkOg1Sila5lYn+zFXwyrDA2PwzJNsSwNrKVzYqQhhgeacI8R1rUi6HhFEZyoCRDv++HRU3AaAXJ9vq7ZFcnWkAK3LgoiRQgRgUssXBOx3iFHgtIgRczlO6z12H+ZYpQByeTSuRPEXoGKZfJx4vhpriRChVJ52Lk5kmR/PypUKMapfQc5l+ChTHg5cuXNwsWYIxw6d5zQkmXJE5TCqSseSpcsKgNl0oWjnLyuUapEEelNG3sgihPnLlPwyafIHaITsz+asPw5iDqbSK2qT8pRjuW2J5CJUc89xpSmfQ9lABThVThSOvDoHpzSyEAE7AR5P5ziRomVDrLXtbhoHh0xGJTLFm3rXM22/5X3TnaaVn2D19SJ3PoTCxatI9GRi1c6taJSeJicmDZ0IVIEd8uIxvTq6OLBko4MXgxNjOBsS2NhSiTtnoUxkBuxAl4shPTdG2lNLDoB06p5/fdfd9bUWM+sdUTfdJO0V5bDZXsdqPxFCgb+8tn12Q7LEbPPZFl2XsJFXDzPlhOjNAsSDDRReGrlE6z75RuJ+8y/7l6M+u9f/f9+BOu8Ul0JbQtjjxRL4jqsVTGWjbJlxWx15Pbo3zTtFL/tGpXqZW1V/Zq6VZRr8b+TqRF7daQ6KlpeiYZ0VrKya+JliSq7CNHOxIipQq8tRqRFs0/kpF399b/fCrVluiOQ9gRCahC0wqHllmdV+FrtyXKIsydo/1T5e8es3vqcbb9rCoc1q/uRDdfer6X9xS5tC1XfEX1BIvV9337vuJ5Z+7GHd5axvT0a8A2ufUexIrQUG6kmt3dfhy/o33uSweoU7o4mVtCTokV4LqSOaO1glHp9vuDmSzzf6WJSWdpjIGvCwDKaEju01ij47Hitc7csee/yJbjnuOfu+gS7w7EFkZXitVLdVgi3bvidkd2fO6I/PgNyxGXJxrt6TJ+d8B1zLFsH/jEAW8NuuwO0RMwfgrkV1X3dqfy/NQL0GTf5OD6AFIJ95n94Ku7Gmnpv7tzT//rTn+a2U7lYFoq2WZTlJ2Hl3333544YuWMf/uCu+59G2jttxFYIf9jBXW3xD/HFbrOpkeGP8SO1jcs4YE+oSZ5WW/Ax87WSOw+krdvsuGAJkjtc76i61LChZhf+6Q1X2z8QAmlSIDyQK1cHUQQUAUVAEVAEFIF7ElACQT0cioAioAgoAoqAIvAfBJRAUA+FIqAIKAKKgCKgCCiBoJ4BRUARUAQUAUVAEfh7AiqD8PeM1BaKgCKgCCgCisAjR0AJhEfulqsLVgQUAUVAEVAE/p6AEgh/z0htoQgoAoqAIqAIPHIElEB45G65umBFQBFQBBQBReDvCSiB8PeM1BaKgCKgCCgCisAjR0AIhHbt2jFixAhGjRp1369fM03fVw1Z+z5+/DgdOnRg+/bteL3C61y9FAFFQBFQBBQBRSCtEViwYAHt27dn+PDhjB49+r6f3j0Fwo4dOyhdurQ84J80xH0/CbVDRUARUAQUAUVAEfhnBOLi4oiNjZUZhJEjR6Ld8fX/Zzu6x9Z/mUEICQmRB1QC4b6wVjtRBBQBRUARUATuGwG3201ycjJvv/22nGJ4oAJh6dKl9+1C1I4UAUVAEVAEFAFF4P4R2LRpE1OmTPn/U4Pg8YivRxVfHii+kTDtflPc/cOt9qQIKAKKgCKgCDwcBESRoqhBEFMM4u/97qf/5yLF+33ghwO/OktFQBFQBBQBRSBtEpg3b17qKoYHWqS4bds2WXsg/ipxkDYfDnVWioAioAgoAo8uAeWD8Ojee3XlioAioAgoAorAPQkogaAeDkVAEVAEFAFFQBH4DwJKIKiHQhFQBBQBRUARUASUQFDPgCKgCCgCioAioAj8PQGVQfh7RmoLRUARUAQUAUXgkSOgBMIjd8vVBSsCioAioAgoAn9PQAmEv2ektlAEFAFFQBFQBB45AkogPHK3XF2wIqAIKAKKgCLw9wTSqEDwYOJEwwBDx6Wb+JuWFbNX8+BAx4uOwzTwaDpOvGA65O9NzUQT22om4o/8GfFvxN7Q5UZm6nviJ/HS8IDpBM2w952CoQUgfu8wTbyahsMArw4OXGD6y20xdblvuUfTi6lZ56GMo//+4VNbpBcCVssSX94ufvLzmuBwYZr+aKYHj+6HUzYQXxtDbitaitjewI0TJyYGBg4coi0aoi1aG3gdvr2LdiZav91qDU02P/GuJt4zdNB9rdyDF6cE7CAJD4FyZyKqeMVRTAeGBrppn4lm2PHCgal50UwHXk18VrRxEVd0EVLwaC6cou2LvYnPp5dbqK5DEfgvBNKoQEgGM4Ps5EXrNNDt8CObK7pssCJ+SAlgBQdbQPjeT40uogmbJoamoePGxA/NtIOIFBHi81J6WCJD8wWvREyC7M7e3k7EIM1E90Uuue+71MDdP6vHTRF4ZAjcEQhCTAshYBoO3JqOn2geXkhxgj9JQAY0IbBl5+0FQ8gEq91Z/zbxOEQ3bosN0wNaMgbBst0LUS5EhCVHXLLjdyI6d9GBW5291XHb+xb9u9M6PzucYOhudMMPdOu7YIQYcevg5xsApI4kvHKw4IsxDluQ+MS/iEwiqqiXIpBeCaRBgeAblbvFWESMJXCabtD87L7YasWmGM6LBup1yvgi27QhgpPIKjjuBI0/iAcPmun0aQkrQ3H3eN9SF396eeS4QzcNDE0IlTuZBhGUxMv6iCVmrIyCUgrptcGo6/pPAvaTb3XgvpG1F5ISr3El0STIcYPLcRkpWSQPurBXF1/OZmt6q5MVHbtfqti2diNalxgoBFqDAV+TSv2caHcuNNNfZg2tLILIA2oyW2F9xouhOewsoAevZmcUpJDQ8Mr2bAkTTQgV3coeir0J0SHzA2IwoYlIYaKLDIUdHzyaF6f8jHoiFIH0SyDNCQQrOBhodkfrRcMh37SzAIZo3CIAOKy26sssYqc0Na9MQ8qAYWr2aEJ854P4xkgXhkh72lMCqalKGRJ0OzthRSI7IWEfwz4mIu3owSnSk3LaQpydNcKwUpVCnPjJKQlxEDXNkH4bjrqyOwRkJ+/V8dw4wqtvjMar61x1hvL5sFZEXQC/E/OZuiMnK2b2l2l7MQugSTVhZQc9Z3fxzuTPOXbVQ+mnajK0Zzur7YhMhC3oRT+cIj6bcI3ZcxZS/tlGlC+Zx5oWNCHJAYEyU2iLBdOBRxPTHbZmN7zs3TCfiV9vwGG4SdEz0KhlK9o3qGlFHF2XcwYyCoif8eDGgdOU+UkZR5xmCiYBaJppCRHfPIl6GBSBdEogzQkEawrBkOregVtODyRrOv6G0xq9625cRiB+opMXHbTh4Pf9m7ngzsgz5cui616sKgUxAjEwTS9emVEQwchKa5qmA4eYD7XnKGU0stOXQhmYsrbAEhkioDkNkT1wcDhyPScTstHg6Qg8YrpThDf5O2tk4roUycxVZ+nRsR4B9nvp9LlRl6UIpBKw6m88cGoNdQau5/NpfckQkBniTvPb2QQ8m2fRe3M+Dn/7BmtXrCD6TCD9+7cgwKnh8N6idrHHKdtjOqObV2De1t2E5fYQ8FgENSIyMWraevq3qsqaZWvYfyuI3s3z0+yl/jxWpSELpo/g2JYNLNlxhA4d2xPmvsLKfQe5Ee/lucZlOb35IHGZMlOjchU51eFJTiTD9Si0Ur2JivqBoFuX2Rhzno4tGnE4Zjd+OizZuJ+mtZ/il99ieLl+E0KCE1k8bzk3A7PySrPq+PtlwdREXPKTQkFVG6mGkJ4JpDmBIDplmSwUaUJg0ScDmbjZjy3z3iFq3Tze+nQvq75/n8Tr10nR/MmeLTurPxvOr/HFGNGhDt5MuQk2U0hITiZTAFxL8ODn9BIYHILrZhLJ/hq5MmUlKeEm1+JcZMychZCQAJmlOHFwOwPHfsrEyZMplCsbhus2l68n4iaFrNlDWTFrAKvPFeKD3i/hCcrKYxn98MbFcSkhiUyZc+M+upASnVZyMvJrQkw/FTvSc8tR1/ZHgWAYeM9s5vHGI2jS5Dnc/nnoVd3BR7+6eTpgD4M2ZWTcC48xe+Mxwp3n+SmhBEeWfiTTCTMGdOWrrUco/UQNmrZrSujtGKZvvETXyhlp+mk0n7UszNh5O6lUqijPNq/LuEHDKF29ETO7FyVno09o83QBpv98mStLOlC7z2JaVMjEkPm7GNOjNt+uOsSiOTMpXigMU/egu46g5enKpRM/kdNzgdB6A9m0dDpzP/6I2s8+SYPWM+g7qDZ7tx6naacmHPxhLjsTg0mIPUXLt96nf4uaGGI/InMhIpRIR6qXIpBOCaRJgSDyeV7dg8NwcvXkZirV6cQ3P/7KtoXj8BRuTOMyHj5btAItOQPVW7TDeeBbNt4qSlhCJMG136JqwFlW7jxAncdDGD1/D+UL+OEOzEXOQDcxF+N5o2VTPv1+JTophGTMwqude5AvezCnYrbQd9znfDB5HGG5cnMkagtLl6/n9s2rPFaqNjkTtzB3UzJ1ymXkcnJOOjevzoezlpAxg4tMOQrTsrw/T735M6civyFEBg41QZlO2426rD8TEJm0Mxup/tpsBg5rh5/fYxTzRvPBliSq++9hwAZ/3qoYwKmU7LR67nEW7r7CR0M6gJ7E119vIW9ejb2bVzJ4dgxXN7zP8HensSUyns9/mEHw2d3MW7GFg4fO8fKbr7Nu7kyadOpHhGMntYdtYOawjsxes4fJr0XQdc5hFveqjhb+OldiFtChz0jGTRjHE0VD5dSHI/EIWr7OnI39kXzBgUwe0Je98Sno5GTu2FZopYdy9sAXrPhwKq4cmZkyYTZt3+xL8WCTs9meYGjL6vbCJbkWQrVw1RLSNYE0KBB8RYqiQCkADC9TO1VnRUhdCtw+Sc/B77JmYnviyvailv8h3t7mZtjTsOVWATw7ZxPUbhZNMh7kk5/20LViMB2/Ocf0jhFMmL+L6ZPeZtzQN8kTWoQl63fSsFYNdu07wJjxU6hcrhBno3fRb9xspk0YT958GYnZsZK5SzaREn+C3adD6VgvmFVHQxjXrS4fTZpJ1pAkZq27RMd6hdkcfZX3u1flpdG7OLNvAUG6qnBO1y1HXVwqAWta0MRzZhMtBq3li3kjyar5c2jLQj7ddJ0ajp302foY3/apyaj3pnHNnULVF17moyFdwLzJkNcH8NvhIyQnG9Rs9SYjejTg43f6M/tgBvZ9P42f541n+ORviUt6jFnfTWfP/A8Yt/4cV9aOo+Ur/Th/5Tb+JcuypH9Nun9xkgV9qqCV6c7V6IW07TOGceMmEFGiAB50nMlH0XI3J/bcFvJnDIIL+8kWUV+2++FtQwkJfYW2jcPYfsRk5gdjuBS9iskzl+Pw13ljzDiaPlPZqo8wxOoKeymmehYUgXRKIM0JBLtEUAoDl24td0reP498FXvwYre+fPR+X74e1JaLxdpTPugA3+zKSPcKt9gaF4rj9wVcKjyAlsXP88WvsfSt6kePxQnMf70K/T/7hUWzJ/NWl1bkL1iS77afZdFXn+K5dZpsuXLwWJaMnIo5RP93p/DO8InkyqXz+dRJUPAZXs65nfbTEmnf0I+tZ4sytNPjjB45nadKhzLx58vsXDCBm9cvk/PGeh5/YxvHI78jk/BjUGWK6bTZqMv6AwG5GEjUBzmtVUfEgxEo63hcDk3W/4gKIFEciJYBr2agm7os/JOLkbQUEKuRdFFYJLJuCUyd8DGhVWtS/5my+ItqQ1nZ6CcLiTXTxK1r+HvdoPvZfgaW74GoX3LpOgG+FZRCvHjFp1IwNVFg6MYjCw0tAa/f2kNQ1dGc/W0p2ZwnCSzekxN7FpI7WxCaN0DWIIlkoKhpStY0hAOCb+WDV3o2qJcikH4JpDmBIKb1RAARNQGyUNEUy5MSGN/3HYrUb0aL2pW4dfoI46d9xGUyM+DNYSQfXUVUcl4iMl1lwqfLKPp4aXLkyUPdEkHM2p1E77olWPBLNG90b8P8z6byZNWG7N+6li07NvJYiWq82bkT+XIFcjn2DNNmTOX32MtkyxBC6QrPcDhyO1UqV+HohUSqR2Rm265DnD56lioNm9GybnnmzfqSnZGHyR7xNG/UKsy73+5l6nuDCBBFFGp+Mv22HHVld2UQrA7fZ0UmvULkOkOrmE/0707pPSJeYmWR2N4yItJIQvcGWkZmsud143F5iN4TTVjhEmTLFWwvLxSfs5xPZKdsarjFKgXTsEyMpKeataxArkRIrR8UK5iEz4LPNO2OB4rYR9yFA/wcnUKTuuVwmkksWbmDOnWrEeQUyydd6F5/KU6kj4qpWdci5Y50VlBPgSKQrgmkPYFgjRFsZ0K7AWq2JYlcbwQeh1cuNfQ5nvkczUzcaF4/6b0i9iDWQbs04dEmVhvoltGaXDLpBel4aC2JtBzSrIbvW99oaMnS1EU6KUrvNREgdLy2UVJqAbMhRjbi87pcf+3VXDjk2mxVo5iuW466uLsIGFb6/i5HU9F5izI+0XHLIbfdkUuJIL0FrF/4vERExy9Fha9jF+5KwmxJTtVpopXKXwl3lADpRSJig2joqQcQbgbWkmghTPD5plgGaKLdOuQKJakubLdVOwLIxmqJC1N6MogjipNOwkUg/r74kLq6yj5JezmzehQUgfRKIM0JBNE8RTZRjAbEQkfhm6bhRncFSHdj6TVgr0sUjVh0ypa7ofykFaikYZIINnLBtX3vTFxi5GIXFoljWLbJwl1RSADxOSEcwKVZqUNhj2It17YNUjQrQDmFEJE6ww+3Q4xi7DSpEWA5skkXN6FG1AgjvTYcdV13ExDdqujEE8EIku1Kmg2ZyZhaBinUpXmZ1N93OmfLxESTS4at9uYr/LN8BmxnEss92efGZOf0PZp0IpDtXtgie2xRYJkm+kyOPHJ5shAeLg3Z0YupEJmZtE2P5Puy7MnyXpGDjVQnRTsnYhtAYbgxHH6y7VvOKNJCTT0KikC6JZDmBIKlzV0Y+MuGKvpm31hDKnv5jzu2yIj112Lsbw8+xJ3STY9lpCSNkoQosPIAdlrCdjy0JxdtMWGlO61jOcUuHT6Pdl+QsKOU4bAcmeWowhIxQpbIUGEHGt8spZIH6bbdqAu7m4B87t248CNAdp1225Hfd2DV4og2beIvxb6YdrC+B8EWDPIfvs948IisX+rXnFgRQeb6vBqmI0XmEORkgzA/k9/PIpqrC5fDX+YNLOMyy6JA7lXUIDiEvXMG+6x9bqjiBEyZ/fN189JrxXDg0U2cpk6K5iXAtFwXHaYbU7MEwp1Yolq5agzpl0CaEwjpF7W6MkVAEVAEFAFF4OEhoATCw3Ov1JkqAoqAIqAIKAIPjIASCA8MtTqQIqAIKAKKgCLw8BBQAuHhuVfqTBUBRUARUAQUgQdGQAmEB4ZaHUgRUAQUAUVAEXh4CCiB8PDcK3WmioAioAgoAorAAyOgBMIDQ60OpAgoAoqAIqAIPDwElEB4eO6VOlNFQBFQBBQBReCBEVAC4YGhVgdSBBQBRUARUAQeHgJKIDw890qdqSKgCCgCioAi8MAIKIHwwFCrAykCioAioAgoAg8PASUQHp57pc5UEVAEFAFFQBF4YAT+vwmE7du34/GIb0USX7yoyb/qpQgoAoqAIqAIKAJpg8C8efPo0KEDb7/9NiNHjrzv/bRmmuJL0++8jh8/Lg8oBEKPHj0Qv1biIG08DOosFAFFQBFQBBQBH4GjR4+ybt06KRBGjRp138H8pUDwHe1PGuK+n4TaoSKgCCgCioAioAj8MwK+wfuIESMejEBISkoiJiaGW7dupZ6pEgj/7KaprRUBRUARUAQUgQdBQIiEggULUrhw4ft+uP/IINz3I6gdKgKKgCKgCCgCisBDR0AJhIfulqkTVgQUAUVAEVAE/n0CSiD8+4zVERQBRUARUAQUgYeOgBIID90tUyesCCgCioAioAj8+wSUQPj3GasjKAKKgCKgCCgCDx0BJRAeulumTlgRUAQUAUVAEfj3CSiB8O8zVkdQwD23sQAAAF1JREFUBBQBRUARUAQeOgJKIDx0t0ydsCKgCCgCioAi8O8TUALh32esjqAIKAKKgCKgCDx0BJRAeOhumTphRUARUAQUAUXg3yegBMK/z1gdQRFQBBQBRUAReOgI/D84qYAEKgCpfgAAAABJRU5ErkJggg==;" vertex="1" parent="1">
          <mxGeometry x="240" y="-80" width="575" height="230" as="geometry" />
        </mxCell>
      </root>
    </mxGraphModel>
  </diagram>
</mxfile>
